<svg preserveAspectRatio="none" width="100%" height="100%" overflow="visible" style="display: block;" viewBox="0 0 156.8 83.82" fill="none" xmlns="http://www.w3.org/2000/svg">
<g id="&#230;&#151;&#160;logo&#229;&#141;&#160;&#228;&#189;&#141;&#229;&#155;&#190;">
<path id="&#226;&#128;&#157;" d="M4.18642 57.5913C3.75468 57.8318 3.21387 57.7058 2.92118 57.3076L0.668268 54.2425C0.312953 53.7591 0.462174 53.0749 0.972194 52.7589C5.89415 49.7102 8.51503 45.8181 8.83483 41.0827C8.87204 40.5317 8.42045 40.0833 7.86817 40.0833H2.42225C1.86997 40.0833 1.42225 39.6356 1.42225 39.0833V27C1.42225 26.4477 1.86997 26 2.42225 26H14.4775C15.0297 26 15.4775 26.4473 15.4775 26.9996C15.4775 29.4671 15.4775 33.245 15.4775 38.3333C15.9102 46.7381 12.1465 53.1575 4.18642 57.5913ZM22.5893 57.6004C22.1583 57.8361 21.6218 57.7088 21.3308 57.313L19.0718 54.2397C18.7172 53.7573 18.8651 53.0745 19.3735 52.7583C24.3478 49.6646 26.9733 45.7695 27.2501 41.0728C27.2824 40.5255 26.8323 40.0833 26.284 40.0833H20.9115C20.3593 40.0833 19.9115 39.6356 19.9115 39.0833V27C19.9115 26.4477 20.3593 26 20.9115 26H32.9667C33.519 26 33.9667 26.4473 33.9667 26.9996C33.9667 29.4671 33.9667 33.245 33.9667 38.3333C34.3996 46.7947 30.6071 53.2171 22.5893 57.6004Z" fill="var(--fill-0, #F4F4F4)"/>
</g>
</svg>
