<svg preserveAspectRatio="none" width="100%" height="100%" overflow="visible" style="display: block;" viewBox="0 0 66.0703 24.0029" fill="none" xmlns="http://www.w3.org/2000/svg">
<path id="Union" d="M10.999 0C13.9751 6.83981e-06 16.3041 0.647344 18.0186 1.97363C19.6683 3.26754 20.7035 5.1759 21.124 7.76367H17.3066C16.9831 6.27577 16.2714 5.17562 15.2363 4.43164C14.1689 3.68781 12.7456 3.33204 10.999 3.33203C8.83166 3.33203 7.11707 4.04419 5.85547 5.53223C4.46463 7.08495 3.78516 9.2521 3.78516 12.0986C3.78516 14.8158 4.39979 16.9183 5.62891 18.374C6.95517 19.9267 9.02561 20.7031 11.8398 20.7031C12.9396 20.7031 13.9749 20.5742 14.9453 20.3154C15.8511 20.0566 16.6602 19.7009 17.4365 19.248V14.4922H11.3223V11.2578H21.2207V21.0273C19.9916 21.9976 18.6005 22.7091 17.0156 23.2266C15.3337 23.7441 13.49 24.0029 11.4199 24.0029C7.7322 24.0029 4.88464 22.8388 2.84668 20.5098C0.938109 18.3424 3.26327e-06 15.5276 0 12.0986C0 8.63744 0.938238 5.79062 2.84668 3.55859C4.8523 1.16479 7.57006 0 10.999 0ZM55.9775 0C58.6947 0 60.9593 0.71156 62.7061 2.13477C64.3882 3.49341 65.3912 5.37011 65.7471 7.69922H62.0596C61.6714 6.17883 60.9591 5.07886 59.8916 4.36719C58.8565 3.65562 57.5303 3.33206 55.9131 3.33203C53.4869 3.33203 51.6755 4.14111 50.4463 5.82324C49.3141 7.31128 48.7637 9.38159 48.7637 12.0342C48.7637 14.7513 49.3142 16.8539 50.4141 18.3096C51.6109 19.8621 53.4868 20.6709 56.0098 20.6709C57.6595 20.6709 59.0186 20.25 60.0537 19.4736C61.1534 18.6002 61.93 17.274 62.3828 15.5273H66.0703C65.5527 18.2446 64.3558 20.3478 62.4473 21.8682C60.6681 23.2914 58.5328 24.0029 56.042 24.0029C52.1926 24.0029 49.3137 22.7736 47.4375 20.3799C45.7878 18.3096 44.9795 15.5277 44.9795 12.0342C44.9795 8.60522 45.8197 5.79029 47.5342 3.65527C49.4751 1.19679 52.2898 9.63208e-06 55.9775 0ZM44.4082 23.5498H40.3652L38.2617 17.7598H28.5898L26.4873 23.5498H22.4434L31.2744 0.453125H35.5771L44.4082 23.5498ZM29.7217 14.6543H37.1299L33.5068 4.5293H33.3779L29.7217 14.6543Z" fill="var(--fill-0, black)"/>
</svg>
