<svg preserveAspectRatio="none" width="100%" height="100%" overflow="visible" style="display: block;" viewBox="0 0 11.9844 11.9844" fill="none" xmlns="http://www.w3.org/2000/svg">
<path id="Vector" d="M8.9377 4.86531L6.625 7.17802V0.125C6.625 0.0918479 6.61183 0.0600536 6.58839 0.0366116C6.56495 0.0131695 6.53315 0 6.5 0H5.5C5.46685 0 5.43505 0.0131695 5.41161 0.0366116C5.38817 0.0600536 5.375 0.0918479 5.375 0.125V7.20255L3.03778 4.86531C3.02617 4.8537 3.01239 4.8445 2.99723 4.83821C2.98206 4.83193 2.96581 4.8287 2.94939 4.8287C2.93297 4.8287 2.91672 4.83193 2.90155 4.83821C2.88639 4.8445 2.87261 4.8537 2.861 4.86531L2.15389 5.57242C2.14228 5.58403 2.13307 5.59781 2.12679 5.61298C2.12051 5.62814 2.11728 5.6444 2.11728 5.66081C2.11728 5.67723 2.12051 5.69348 2.12679 5.70865C2.13307 5.72382 2.14228 5.7376 2.15389 5.7492L5.63419 9.2295C5.82945 9.42475 6.14603 9.42475 6.3413 9.2295L9.82158 5.7492C9.83319 5.7376 9.8424 5.72382 9.84868 5.70865C9.85496 5.69348 9.8582 5.67723 9.8582 5.66081C9.8582 5.6444 9.85496 5.62814 9.84868 5.61297C9.8424 5.59781 9.83319 5.58403 9.82158 5.57242L9.11447 4.86531C9.09103 4.84187 9.05924 4.82871 9.02609 4.82871C8.99294 4.82871 8.96114 4.84187 8.9377 4.86531ZM1.25 6.98438V10.7344H10.7344V6.98438H11.9844V11.4844C11.9844 11.7605 11.7605 11.9844 11.4844 11.9844H0.5C0.223859 11.9844 0 11.7605 0 11.4844V6.98438H1.25Z" fill="var(--fill-0, white)"/>
</svg>
