<svg preserveAspectRatio="xMidYMid meet" overflow="visible" style="display: block;" viewBox="0 0 196 104.792" fill="none" xmlns="http://www.w3.org/2000/svg">
<g id="1715859094-cbre-c.svg">
<path id="Vector" d="M92.5411 52.3119C96.3424 51.0469 97.0316 47.8568 97.0238 45.2564C97.0162 41.281 94.2126 37.848 85.9149 37.848L70.4243 37.8449V67.6896H85.8722C94.2218 67.6896 97.2927 63.4041 97.2927 59.1108C97.2927 53.9115 92.5411 52.3119 92.5411 52.3119ZM77.7762 44.3382H88.2051L88.2418 44.3458C89.4183 44.5536 90.2754 45.5544 90.2754 46.7278C90.2754 47.9302 89.3572 49.0622 88.144 49.2272L77.7808 49.244L77.7762 44.3382ZM87.7025 60.7333H77.7762V55.7389H87.9454L87.9684 55.7419C89.2334 55.8855 90.1929 56.9382 90.1929 58.1865C90.1929 59.5508 89.0576 60.7151 87.7025 60.7333Z" fill="var(--fill-0, #173E2E)"/>
<path id="Vector_2" d="M131.978 37.8528H158.153L158.137 44.3644H139.251L139.27 49.1755H156.296V55.7223H139.27V60.9277H158.158L158.154 67.754H131.978" fill="var(--fill-0, #173E2E)"/>
<path id="Vector_3" d="M116.753 37.8873H100.924V67.7426H108.193V55.6621L116.198 55.6544C118.49 55.6896 120.273 57.5658 120.273 59.882V67.7152L127.386 67.7121L127.375 58.0791C127.375 53.6147 123.062 52.2947 123.062 52.2947C123.062 52.2947 127.471 50.9778 127.471 45.7006C127.471 39.2424 121.924 37.8873 116.753 37.8873ZM120.72 47.149C120.589 48.1314 119.609 49.1963 118.383 49.1963L108.167 49.1993V44.4203H118.386C119.609 44.4203 120.565 45.3171 120.72 46.4981" fill="var(--fill-0, #173E2E)"/>
<path id="Vector_4" d="M65.7123 60.5315C65.6099 60.533 55.7768 60.7224 52.382 60.3925C46.9184 59.8577 44.9811 55.8074 44.9811 52.5042C44.9811 48.3807 47.7908 45.3495 52.1421 44.7811C54.2139 44.5091 65.532 44.6374 65.6527 44.6374L65.8896 44.642L65.914 37.8524H65.6742L52.8617 37.8768C51.4347 37.9638 49.0697 38.1075 46.6464 39.0975C44.3227 40.164 42.2967 41.8019 40.7858 43.8384C38.8607 46.4296 37.8416 49.5082 37.8416 52.735C37.8416 53.7525 37.9226 54.7594 38.086 55.7265C39.0073 60.252 41.9759 63.9997 46.2309 66.0134C47.6671 66.6459 49.8839 67.4022 54.3514 67.6543L56.7592 67.7047L65.6894 67.7124H65.9262L65.9507 60.5285" fill="var(--fill-0, #173E2E)"/>
</g>
</svg>
