<svg preserveAspectRatio="xMidYMid meet" overflow="visible" style="display: block;" viewBox="0 0 196 104.792" fill="none" xmlns="http://www.w3.org/2000/svg">
<g id="1715859240-cellebrite-c.svg">
<path id="Vector" d="M69.2909 69.6812C67.0585 69.6812 64.826 68.8167 63.2805 67.2606C61.0481 65.0129 61.0481 62.5923 61.0481 58.6155C61.0481 54.6389 61.0481 52.0454 63.2805 49.7977C64.826 48.2416 67.0585 47.3771 69.2909 47.3771C73.584 47.2042 77.1903 50.3164 77.5337 54.466H73.0689C72.7254 52.5641 71.1799 51.1808 69.2909 51.1808C68.2606 51.1808 67.2302 51.5267 66.5434 52.3912C65.6847 53.4286 65.3413 54.1202 65.3413 58.6155C65.3413 63.111 65.6847 63.6298 66.5434 64.4942C67.2302 65.3587 68.2606 65.7045 69.2909 65.7045C71.1799 65.7045 72.8972 64.3213 73.0689 62.4194H77.5337C77.0186 66.569 73.4124 69.8541 69.2909 69.6812Z" fill="var(--fill-0, #435363)"/>
<path id="Vector_2" d="M139.871 68.1212C138.841 69.1585 137.295 69.6772 135.922 69.6772C134.376 69.8501 132.831 69.1585 131.8 67.9483V69.5043H127.85V47.7189H131.972V54.2891C133.002 53.0788 134.376 52.5601 135.922 52.5601C137.467 52.5601 138.841 53.0788 139.871 54.1162C141.589 55.8453 141.589 58.6117 141.589 61.0323C141.589 63.4529 141.417 66.3922 139.871 68.1212ZM134.72 56.3639C132.316 56.3639 131.972 58.4388 131.972 61.2052C131.972 63.9715 132.144 65.8735 134.548 65.8735C136.952 65.8735 137.295 63.7987 137.295 61.0323C137.295 58.2659 136.952 56.3639 134.72 56.3639Z" fill="var(--fill-0, #435363)"/>
<path id="Vector_3" d="M155.669 51.356V47.5521H159.789V51.356H155.669ZM155.669 69.3376V52.7391H159.789V69.3376H155.669Z" fill="var(--fill-0, #435363)"/>
<path id="Vector_4" d="M168.893 69.3376C166.488 69.5104 164.256 67.6086 164.084 65.188C164.084 65.015 164.084 64.8421 164.084 64.6692V56.0243H162.367V52.912H164.084V47.5521H168.206V52.912H171.124V56.0243H168.206V64.4963C168.206 65.3609 168.721 66.0525 169.58 66.0525H171.124V69.5104L168.893 69.3376Z" fill="var(--fill-0, #435363)"/>
<path id="Vector_5" d="M91.6168 62.4181H93.8493C93.8493 62.0723 93.8493 61.5536 93.8493 61.0349C93.8493 58.0957 93.5058 56.1937 91.9603 54.6376C90.5864 53.2544 88.6975 52.5628 86.6368 52.5628C84.7478 52.5628 82.8588 53.2544 81.3133 54.6376C79.7677 56.1937 79.4243 58.0957 79.4243 61.0349C79.4243 63.9742 79.7677 65.8762 81.3133 67.6052C82.6871 68.9883 84.576 69.6799 86.6368 69.6799C88.6975 69.8529 90.5864 68.9883 91.9603 67.6052C92.8189 66.7406 93.334 65.8762 93.5058 64.6658H89.3843C89.2126 64.8387 89.041 65.1846 88.8692 65.3575C88.1822 65.8762 87.4954 66.2219 86.6368 66.2219C85.7781 66.2219 85.0913 66.049 84.576 65.3575C83.8892 64.4929 83.5457 63.4555 83.5457 62.4181H91.6168ZM86.465 56.0208C87.3236 56.0208 88.0106 56.1937 88.6975 56.7124C89.3843 57.404 89.7278 58.4414 89.7278 59.4788H83.3739C83.3739 58.4414 83.7174 57.5769 84.4043 56.7124C85.0913 56.3666 85.7781 56.0208 86.465 56.0208Z" fill="var(--fill-0, #435363)"/>
<path id="Vector_6" d="M123.041 62.4181H125.102C125.102 62.0723 125.102 61.5536 125.102 61.0349C125.102 58.0957 124.759 56.1937 123.213 54.6376C121.839 53.2544 119.951 52.5628 117.89 52.5628C116.001 52.5628 114.112 53.2544 112.566 54.6376C111.021 56.1937 110.678 58.0957 110.678 61.0349C110.678 63.9742 111.021 65.8762 112.566 67.6052C113.94 68.9883 115.829 69.6799 117.89 69.6799C119.779 69.8529 121.839 68.9883 123.213 67.6052C124.072 66.7406 124.587 65.8762 124.759 64.6658H120.638C120.466 64.8387 120.295 65.1846 120.123 65.3575C119.436 65.8762 118.749 66.2219 117.89 66.2219C117.031 66.2219 116.344 66.049 115.829 65.3575C115.142 64.4929 114.799 63.4555 114.799 62.4181H123.041ZM117.89 56.0208C118.749 56.0208 119.436 56.1937 120.123 56.7124C120.81 57.404 121.152 58.4414 121.152 59.4788H114.799C114.799 58.4414 115.142 57.5769 115.829 56.7124C116.344 56.3666 117.203 56.0208 117.89 56.0208Z" fill="var(--fill-0, #435363)"/>
<path id="Vector_7" d="M185.205 62.4181H187.266C187.266 62.0723 187.266 61.5536 187.266 61.0349C187.266 58.0957 186.923 56.1937 185.377 54.6376C184.003 53.2544 182.114 52.5628 180.054 52.5628C178.165 52.5628 176.276 53.2544 174.73 54.6376C173.184 56.1937 172.841 58.0957 172.841 61.0349C172.841 63.9742 173.184 65.8762 174.73 67.6052C176.104 68.9883 177.993 69.6799 180.054 69.6799C182.114 69.8529 184.003 68.9883 185.377 67.6052C186.236 66.7406 186.751 65.8762 186.923 64.6658H182.801C182.629 64.8387 182.458 65.1846 182.286 65.3575C181.6 65.8762 180.913 66.2219 180.054 66.2219C179.195 66.2219 178.508 66.049 177.993 65.3575C177.306 64.4929 176.963 63.4555 176.963 62.4181H185.205ZM180.054 56.0208C180.913 56.0208 181.6 56.1937 182.286 56.7124C182.973 57.404 183.316 58.4414 183.316 59.4788H176.963C176.963 58.4414 177.306 57.5769 177.993 56.7124C178.68 56.3666 179.367 56.0208 180.054 56.0208Z" fill="var(--fill-0, #435363)"/>
<path id="Vector_8" d="M100.547 47.7189H96.4252V69.5043H100.547V47.7189Z" fill="var(--fill-0, #435363)"/>
<path id="Vector_9" d="M108.273 47.7189H104.151V69.5043H108.273V47.7189Z" fill="var(--fill-0, #435363)"/>
<path id="Vector_10" d="M153.438 52.3885C152.236 52.3885 151.205 52.7343 150.175 53.4258C149.488 54.1174 148.973 54.8091 148.457 55.6736V52.7343H144.165V69.3327H148.629V61.2063C148.629 60.3419 148.801 59.3045 149.144 58.44C149.831 57.2297 151.377 56.538 152.751 56.7109H153.438V52.3885Z" fill="var(--fill-0, #435363)"/>
<path id="Vector_11" d="M37.1794 56.7153C38.2226 56.7153 39.0683 55.8638 39.0683 54.8134C39.0683 53.763 38.2226 52.9115 37.1794 52.9115C36.1361 52.9115 35.2904 53.763 35.2904 54.8134C35.2904 55.8638 36.1361 56.7153 37.1794 56.7153Z" fill="var(--fill-0, #435363)"/>
<path id="Vector_12" d="M24.8155 69.8518C26.6175 69.8518 28.0784 68.381 28.0784 66.5666C28.0784 64.7524 26.6175 63.2816 24.8155 63.2816C23.0135 63.2816 21.5527 64.7524 21.5527 66.5666C21.5527 68.381 23.0135 69.8518 24.8155 69.8518Z" fill="var(--fill-0, #435363)"/>
<path id="Vector_13" d="M13.1378 57.5791C14.9399 57.5791 16.4006 56.1082 16.4006 54.2939C16.4006 52.4796 14.9399 51.0088 13.1378 51.0088C11.3359 51.0088 9.8751 52.4796 9.8751 54.2939C9.8751 56.1082 11.3359 57.5791 13.1378 57.5791Z" fill="var(--fill-0, #435363)"/>
<path id="Vector_14" d="M24.6425 44.2653C25.7806 44.2653 26.7032 43.3364 26.7032 42.1906C26.7032 41.0446 25.7806 40.1158 24.6425 40.1158C23.5044 40.1158 22.5818 41.0446 22.5818 42.1906C22.5818 43.3364 23.5044 44.2653 24.6425 44.2653Z" fill="var(--fill-0, #435363)"/>
<path id="Vector_15" d="M33.7444 47.5535C34.6928 47.5535 35.4616 46.7794 35.4616 45.8244C35.4616 44.8695 34.6928 44.0954 33.7444 44.0954C32.7959 44.0954 32.0272 44.8695 32.0272 45.8244C32.0272 46.7794 32.7959 47.5535 33.7444 47.5535Z" fill="var(--fill-0, #435363)"/>
<path id="Vector_16" d="M16.0567 48.7594C17.4792 48.7594 18.6325 47.5982 18.6325 46.1659C18.6325 44.7335 17.4792 43.5724 16.0567 43.5724C14.634 43.5724 13.4807 44.7335 13.4807 46.1659C13.4807 47.5982 14.634 48.7594 16.0567 48.7594Z" fill="var(--fill-0, #435363)"/>
<path id="Vector_17" d="M16.4007 66.3998C18.2976 66.3998 19.8353 64.8515 19.8353 62.9418C19.8353 61.032 18.2976 59.4838 16.4007 59.4838C14.5039 59.4838 12.9663 61.032 12.9663 62.9418C12.9663 64.8515 14.5039 66.3998 16.4007 66.3998Z" fill="var(--fill-0, #435363)"/>
<path id="Vector_18" d="M33.2297 66.0504C34.6523 66.0504 35.8055 64.8893 35.8055 63.4569C35.8055 62.0246 34.6523 60.8634 33.2297 60.8634C31.807 60.8634 30.6538 62.0246 30.6538 63.4569C30.6538 64.8893 31.807 66.0504 33.2297 66.0504Z" fill="var(--fill-0, #435363)"/>
<path id="Vector_19" d="M44.9071 41.5009L48.5133 40.2906L44.9071 38.9074L43.5332 34.9307L42.1595 38.7345L38.3816 40.2906L42.1595 41.6738L43.5332 45.3047L44.9071 41.5009Z" fill="var(--fill-0, #E75300)"/>
<path id="Vector_20" d="M69.1174 69.6818C66.7133 69.6818 64.6525 68.8173 63.1071 67.2612C60.8746 65.0135 60.8746 62.5929 60.8746 58.6162C60.8746 54.6395 60.8746 52.046 63.1071 49.7983C64.6525 48.2422 66.7133 47.3777 69.1174 47.3777C73.4105 47.3777 76.6734 49.7983 77.3602 54.6395H72.8954C72.3802 52.7376 71.3498 51.3543 69.1174 51.3543C67.9154 51.3543 66.885 51.8731 66.198 52.5647C65.3394 53.6021 65.1678 54.4666 65.1678 58.7891C65.1678 63.1116 65.3394 63.8032 66.198 64.6677C66.885 65.3593 67.7436 65.878 69.1174 65.878C71.3498 65.878 72.5519 64.4948 72.8954 62.5929H77.3602C76.6734 67.2612 73.2388 69.6818 69.1174 69.6818Z" fill="var(--fill-0, #121E28)"/>
<path id="Vector_21" d="M139.696 68.1211C138.665 69.1584 137.292 69.6771 135.746 69.6771C134.029 69.6771 132.827 69.1584 131.625 67.9482V69.3313H127.676V47.7188H131.625V54.289C132.655 53.0787 134.029 52.56 135.575 52.56C137.12 52.56 138.665 53.0787 139.524 54.1161C141.241 55.8451 141.241 58.6115 141.241 61.0321C141.241 63.4527 141.413 66.392 139.696 68.1211ZM134.373 56.3638C131.968 56.3638 131.625 58.4386 131.625 61.205C131.625 63.9714 131.968 66.0462 134.373 66.0462C136.777 66.0462 137.12 63.9714 137.12 61.205C137.292 58.4386 136.949 56.3638 134.373 56.3638Z" fill="var(--fill-0, #121E28)"/>
<path id="Vector_22" d="M155.495 51.3558V47.552H159.788V51.3558H155.495ZM155.495 69.3374V52.739H159.616V69.3374H155.495Z" fill="var(--fill-0, #121E28)"/>
<path id="Vector_23" d="M168.717 69.3374C165.282 69.3374 163.908 66.9168 163.908 64.4962V55.8513H162.192V52.739H163.908V47.552H168.03V52.9119H170.95V56.0242H168.03V64.4962C168.03 65.5337 168.545 66.0524 169.576 66.0524H171.122V69.5103H168.717V69.3374Z" fill="var(--fill-0, #121E28)"/>
<path id="Vector_24" d="M91.6157 62.418H93.6765C93.6765 61.8993 93.6765 61.5535 93.6765 61.0348C93.6765 58.0955 93.333 56.1936 91.7875 54.6375C90.7571 53.6001 89.0398 52.5627 86.4639 52.5627C84.0598 52.5627 82.1708 53.6001 81.1405 54.6375C79.5949 56.1936 79.2515 58.0955 79.2515 61.0348C79.2515 63.9741 79.5949 65.876 81.1405 67.4322C82.1708 68.4695 83.8881 69.5069 86.4639 69.5069C88.8682 69.5069 90.7571 68.4695 91.7875 67.4322C92.6461 66.5676 93.1612 65.7031 93.333 64.4928H89.2115C89.0398 64.6657 88.8681 65.0116 88.6964 65.1845C88.1812 65.7031 87.4943 65.876 86.4639 65.876C85.4336 65.876 84.9185 65.5302 84.2315 65.1845C83.5446 64.4928 83.2011 63.4554 83.2011 62.2451H89.555L91.6157 62.418ZM86.4639 56.0207C87.4943 56.0207 88.1812 56.3665 88.6964 56.7123C89.3833 57.4039 89.7268 58.2684 89.7268 59.4787H83.3729C83.3729 58.4413 83.7164 57.4039 84.4032 56.7123C84.7467 56.3665 85.6053 56.0207 86.4639 56.0207Z" fill="var(--fill-0, #121E28)"/>
<path id="Vector_25" d="M122.869 62.418H124.93C124.93 61.8993 124.93 61.5535 124.93 61.0348C124.93 58.0955 124.586 56.1936 123.04 54.6375C122.01 53.6001 120.293 52.5627 117.717 52.5627C115.313 52.5627 113.424 53.6001 112.393 54.6375C110.848 56.1936 110.504 58.0955 110.504 61.0348C110.504 63.9741 110.848 65.876 112.393 67.4322C113.424 68.4695 115.141 69.5069 117.717 69.5069C120.121 69.5069 122.01 68.4695 123.04 67.4322C123.899 66.5676 124.414 65.7031 124.586 64.4928H120.464C120.293 64.6657 120.121 65.0116 119.949 65.1845C119.435 65.7031 118.748 65.876 117.889 65.876C117.03 65.876 116.343 65.5302 115.656 65.1845C114.97 64.4928 114.626 63.4554 114.626 62.2451H120.98L122.869 62.418ZM117.717 56.0207C118.748 56.0207 119.435 56.3665 119.949 56.7123C120.636 57.4039 120.98 58.2684 120.98 59.4787H114.454C114.454 58.4413 114.798 57.4039 115.485 56.7123C116.172 56.3665 116.859 56.0207 117.717 56.0207Z" fill="var(--fill-0, #121E28)"/>
<path id="Vector_26" d="M185.206 62.418H187.267C187.267 61.8993 187.267 61.5535 187.267 61.0348C187.267 58.0955 186.924 56.1936 185.378 54.6375C184.348 53.6001 182.631 52.5627 180.055 52.5627C177.651 52.5627 175.762 53.6001 174.731 54.6375C173.186 56.1936 172.843 58.0955 172.843 61.0348C172.843 63.9741 173.186 65.876 174.731 67.4322C175.762 68.4695 177.479 69.5069 180.055 69.5069C182.46 69.5069 184.348 68.4695 185.378 67.4322C186.237 66.5676 186.752 65.7031 186.924 64.4928H182.803C182.631 64.6657 182.46 65.0116 182.288 65.1845C181.773 65.7031 181.086 65.876 180.055 65.876C179.025 65.876 178.509 65.5302 177.822 65.1845C177.135 64.4928 176.792 63.4554 176.792 62.2451H183.146L185.206 62.418ZM180.055 56.0207C181.086 56.0207 181.773 56.3665 182.288 56.7123C182.975 57.4039 183.318 58.2684 183.318 59.4787H176.964C176.964 58.4413 177.307 57.4039 177.994 56.7123C178.509 56.3665 179.196 56.0207 180.055 56.0207Z" fill="var(--fill-0, #121E28)"/>
<path id="Vector_27" d="M100.373 47.7264H96.2524V69.5118H100.373V47.7264Z" fill="var(--fill-0, #121E28)"/>
<path id="Vector_28" d="M108.1 47.7264H103.978V69.5118H108.1V47.7264Z" fill="var(--fill-0, #121E28)"/>
<path id="Vector_29" d="M153.265 52.3884C151.891 52.3884 150.861 52.7342 150.002 53.4257C149.487 53.9444 148.972 54.6361 148.285 55.8463V52.907H143.992V69.3326H148.456V61.2062C148.456 59.8231 148.628 59.3044 148.972 58.6127C149.487 57.4025 150.861 56.8838 152.578 56.8838C152.75 56.8838 152.922 56.8838 153.093 56.8838H153.265V52.3884Z" fill="var(--fill-0, #121E28)"/>
<path id="Vector_30" d="M37.0073 56.7228C38.0506 56.7228 38.8963 55.8713 38.8963 54.8209C38.8963 53.7705 38.0506 52.9189 37.0073 52.9189C35.9641 52.9189 35.1184 53.7705 35.1184 54.8209C35.1184 55.8713 35.9641 56.7228 37.0073 56.7228Z" fill="var(--fill-0, #121E28)"/>
<path id="Vector_31" d="M24.6433 69.8593C26.4453 69.8593 27.9061 68.3885 27.9061 66.5741C27.9061 64.7599 26.4453 63.289 24.6433 63.289C22.8413 63.289 21.3805 64.7599 21.3805 66.5741C21.3805 68.3885 22.8413 69.8593 24.6433 69.8593Z" fill="var(--fill-0, #121E28)"/>
<path id="Vector_32" d="M12.9658 57.5865C14.7677 57.5865 16.2285 56.1157 16.2285 54.3014C16.2285 52.4871 14.7677 51.0163 12.9658 51.0163C11.1638 51.0163 9.70297 52.4871 9.70297 54.3014C9.70297 56.1157 11.1638 57.5865 12.9658 57.5865Z" fill="var(--fill-0, #121E28)"/>
<path id="Vector_33" d="M24.6425 44.2728C25.7806 44.2728 26.7032 43.3438 26.7032 42.198C26.7032 41.0521 25.7806 40.1231 24.6425 40.1231C23.5044 40.1231 22.5818 41.0521 22.5818 42.198C22.5818 43.3438 23.5044 44.2728 24.6425 44.2728Z" fill="var(--fill-0, #121E28)"/>
<path id="Vector_34" d="M33.4016 47.7324C34.4449 47.7324 35.2906 46.8809 35.2906 45.8304C35.2906 44.7801 34.4449 43.9286 33.4016 43.9286C32.3583 43.9286 31.5126 44.7801 31.5126 45.8304C31.5126 46.8809 32.3583 47.7324 33.4016 47.7324Z" fill="var(--fill-0, #121E28)"/>
<path id="Vector_35" d="M15.8844 48.7668C17.307 48.7668 18.4603 47.6057 18.4603 46.1733C18.4603 44.741 17.307 43.5798 15.8844 43.5798C14.4618 43.5798 13.3085 44.741 13.3085 46.1733C13.3085 47.6057 14.4618 48.7668 15.8844 48.7668Z" fill="var(--fill-0, #121E28)"/>
<path id="Vector_36" d="M16.4007 66.4072C18.2976 66.4072 19.8353 64.859 19.8353 62.9492C19.8353 61.0394 18.2976 59.4912 16.4007 59.4912C14.5039 59.4912 12.9663 61.0394 12.9663 62.9492C12.9663 64.859 14.5039 66.4072 16.4007 66.4072Z" fill="var(--fill-0, #121E28)"/>
<path id="Vector_37" d="M33.0575 66.0578C34.4802 66.0578 35.6335 64.8968 35.6335 63.4644C35.6335 62.0321 34.4802 60.8709 33.0575 60.8709C31.635 60.8709 30.4817 62.0321 30.4817 63.4644C30.4817 64.8968 31.635 66.0578 33.0575 66.0578Z" fill="var(--fill-0, #121E28)"/>
<path id="Vector_38" d="M44.735 41.5083L48.3412 40.2981L44.735 38.9148L43.3611 34.9382L41.9873 38.7419L38.2093 40.2981L41.9873 41.6812L43.3611 45.3122L44.735 41.5083Z" fill="var(--fill-0, #E75300)"/>
</g>
</svg>
