<svg preserveAspectRatio="xMidYMid meet" overflow="visible" style="display: block;" viewBox="0 0 196 104.276" fill="none" xmlns="http://www.w3.org/2000/svg">
<g id="1715859200-crunchbase.svg">
<path id="Vector" d="M177.715 54.3767C178.212 52.145 180.137 50.5686 182.928 50.5686C185.642 50.5686 187.858 52.146 188.147 54.3767H177.715ZM192.135 56.1296C192.135 50.5503 188.219 47.3103 183.064 47.3103C177.908 47.3103 173.761 50.8517 173.761 56.4268C173.761 62.0019 177.909 65.6579 183.064 65.6579C184.926 65.6579 186.556 65.3221 188.492 64.325C190.427 63.3278 191.765 61.1529 191.979 59.8616H188.153C187.224 61.4846 185.566 62.2698 183.233 62.2698C180.057 62.2698 177.723 59.8616 177.723 57.565H192.099C192.138 56.9563 192.138 56.5505 192.138 56.1336" fill="var(--fill-0, #146AFF)"/>
<path id="Vector_2" d="M177.715 54.3767C178.212 52.145 180.137 50.5686 182.928 50.5686C185.642 50.5686 187.858 52.146 188.147 54.3767H177.715ZM192.135 56.1296C192.135 50.5503 188.219 47.3103 183.064 47.3103C177.908 47.3103 173.761 50.8517 173.761 56.4268C173.761 62.0019 177.909 65.6579 183.064 65.6579C184.926 65.6579 186.556 65.3221 188.492 64.325C190.427 63.3278 191.765 61.1529 191.979 59.8616H188.153C187.224 61.4846 185.566 62.2698 183.233 62.2698C180.057 62.2698 177.723 59.8616 177.723 57.565H192.099C192.138 56.9553 192.138 56.5435 192.138 56.1296H192.135Z" fill="var(--fill-0, #146AFF)"/>
<path id="Vector_3" d="M14.2844 51.1952C15.3441 51.1966 16.3803 51.4982 17.2663 52.063C18.1523 52.6278 18.8497 53.4314 19.273 54.3754H23.4651C22.9352 52.1908 21.6 50.2706 19.712 48.978C17.8239 47.6854 15.5139 47.1097 13.2187 47.3601C10.9236 47.6104 8.80238 48.6694 7.25623 50.3368C5.71009 52.004 4.84618 54.1641 4.82789 56.4084C4.80958 58.6528 5.63816 60.8258 7.15692 62.5168C8.67568 64.2077 10.7793 65.2992 13.0701 65.5849C15.3609 65.8705 17.6801 65.3306 19.5889 64.0672C21.4978 62.8037 22.8641 60.9043 23.4296 58.7282H19.2072C18.7932 59.5857 18.1497 60.3193 17.3441 60.8525C16.5384 61.3856 15.6002 61.6986 14.6274 61.7587C13.6547 61.8189 12.6832 61.6239 11.8146 61.1944C10.9459 60.7647 10.2119 60.1163 9.68935 59.3167C9.16679 58.5171 8.8749 57.5958 8.84416 56.649C8.81342 55.7023 9.04497 54.7649 9.51459 53.9349C9.98422 53.1049 10.6747 52.4127 11.5138 51.9308C12.3528 51.4488 13.3098 51.1948 14.2844 51.1952Z" fill="var(--fill-0, #146AFF)"/>
<path id="Vector_4" d="M14.2844 51.1952C15.3441 51.1966 16.3803 51.4982 17.2663 52.063C18.1523 52.6278 18.8497 53.4314 19.273 54.3754H23.4651C22.9352 52.1908 21.6 50.2706 19.712 48.978C17.8239 47.6854 15.5139 47.1097 13.2187 47.3601C10.9236 47.6104 8.80238 48.6694 7.25623 50.3368C5.71009 52.004 4.84618 54.1641 4.82789 56.4084C4.80958 58.6528 5.63816 60.8258 7.15692 62.5168C8.67568 64.2077 10.7793 65.2992 13.0701 65.5849C15.3609 65.8705 17.6801 65.3306 19.5889 64.0672C21.4978 62.8037 22.8641 60.9043 23.4296 58.7282H19.2072C18.7932 59.5857 18.1497 60.3193 17.3441 60.8525C16.5384 61.3856 15.6002 61.6986 14.6274 61.7587C13.6547 61.8189 12.6832 61.6239 11.8146 61.1944C10.9459 60.7647 10.2119 60.1163 9.68935 59.3167C9.16679 58.5171 8.8749 57.5958 8.84416 56.649C8.81342 55.7023 9.04497 54.7649 9.51459 53.9349C9.98422 53.1049 10.6747 52.4127 11.5138 51.9308C12.3528 51.4488 13.3098 51.1948 14.2844 51.1952Z" fill="var(--fill-0, #146AFF)"/>
<path id="Vector_5" d="M29.7236 48.4559V47.9386H25.8802V65.0293H29.7529V56.8127C29.7529 55.2737 29.7748 54.2502 29.9919 53.4884C30.0003 53.459 30.0107 53.4326 30.0201 53.4053C30.2466 52.6749 30.6652 52.1879 31.4502 51.7031C32.0754 51.3207 32.7991 51.1179 33.5378 51.1179C34.2765 51.1179 35.0003 51.3207 35.6256 51.7031L37.3333 48.0878C36.1471 47.5459 34.8481 47.2779 33.5378 47.3046C32.179 47.3239 30.8546 47.7237 29.7236 48.4559Z" fill="var(--fill-0, #146AFF)"/>
<path id="Vector_6" d="M29.7236 48.4559V47.9386H25.8802V65.0293H29.7529V56.8127C29.7529 55.2737 29.7748 54.2502 29.9919 53.4884C30.0003 53.459 30.0107 53.4326 30.0201 53.4053C30.2466 52.6749 30.6652 52.1879 31.4502 51.7031C32.0754 51.3207 32.7991 51.1179 33.5378 51.1179C34.2765 51.1179 35.0003 51.3207 35.6256 51.7031L37.3333 48.0878C36.1471 47.5459 34.8481 47.2779 33.5378 47.3046C32.179 47.3239 30.8546 47.7237 29.7236 48.4559Z" fill="var(--fill-0, #146AFF)"/>
<path id="Vector_7" d="M51.197 56.1229C51.197 57.6618 51.1751 58.6853 50.959 59.4482C50.9506 59.4765 50.9402 59.5029 50.9308 59.5303C50.7043 60.2617 50.2857 60.7476 49.4998 61.2335C48.8746 61.6161 48.1508 61.8191 47.412 61.8191C46.6732 61.8191 45.9494 61.6161 45.3244 61.2335C44.5393 60.7517 44.1208 60.2617 43.8932 59.5313C43.8838 59.5029 43.8734 59.4776 43.865 59.4482C43.6489 58.6853 43.627 57.6618 43.627 56.1229V47.9063H39.7544V57.2388C39.7544 59.3031 39.8713 60.2323 40.4151 61.7326C40.8974 63.0594 42.1041 64.156 43.6166 64.8478C44.8022 65.39 46.1009 65.6581 47.411 65.6309C48.7429 65.5974 50.0738 65.2496 51.2262 64.4887V65.0061H55.0707V47.9113H51.197V56.1229Z" fill="var(--fill-0, #146AFF)"/>
<path id="Vector_8" d="M51.197 56.1229C51.197 57.6618 51.1751 58.6853 50.959 59.4482C50.9506 59.4765 50.9402 59.5029 50.9308 59.5303C50.7043 60.2617 50.2857 60.7476 49.4998 61.2335C48.8746 61.6161 48.1508 61.8191 47.412 61.8191C46.6732 61.8191 45.9494 61.6161 45.3244 61.2335C44.5393 60.7517 44.1208 60.2617 43.8932 59.5313C43.8838 59.5029 43.8734 59.4776 43.865 59.4482C43.6489 58.6853 43.627 57.6618 43.627 56.1229V47.9063H39.7544V57.2388C39.7544 59.3031 39.8713 60.2323 40.4151 61.7326C40.8974 63.0594 42.1041 64.156 43.6166 64.8478C44.8022 65.39 46.1009 65.6581 47.411 65.6309C48.7429 65.5974 50.0738 65.2496 51.2262 64.4887V65.0061H55.0707V47.9113H51.197V56.1229Z" fill="var(--fill-0, #146AFF)"/>
<path id="Vector_9" d="M69.6888 48.0943C68.5028 47.5524 67.2037 47.2847 65.8934 47.3123C64.5346 47.3297 63.2099 47.7277 62.0781 48.4585L62.0833 47.9412H58.2358V65.0319H62.1083V56.8152C62.1083 55.2763 62.1303 54.2528 62.3463 53.491C62.3547 53.4616 62.3662 53.4363 62.3745 53.4079C62.6021 52.6775 63.0207 52.1906 63.8056 51.7057C64.4306 51.3226 65.1545 51.1193 65.8934 51.1193C66.6323 51.1193 67.356 51.3226 67.981 51.7057C68.765 52.1865 69.1836 52.6775 69.4111 53.4079C69.4194 53.4363 69.4309 53.4616 69.4393 53.491C69.6564 54.2528 69.6784 55.2763 69.6784 56.8152V65.0319H73.551V55.7045C73.551 53.6402 73.4331 52.7099 72.8882 51.2106C72.4069 49.8838 71.2002 48.7862 69.6888 48.0943Z" fill="var(--fill-0, #146AFF)"/>
<path id="Vector_10" d="M69.6888 48.0943C68.5028 47.5524 67.2037 47.2847 65.8934 47.3123C64.5346 47.3297 63.2099 47.7277 62.0781 48.4585L62.0833 47.9412H58.2358V65.0319H62.1083V56.8152C62.1083 55.2763 62.1303 54.2528 62.3463 53.491C62.3547 53.4616 62.3662 53.4363 62.3745 53.4079C62.6021 52.6775 63.0207 52.1906 63.8056 51.7057C64.4306 51.3226 65.1545 51.1193 65.8934 51.1193C66.6323 51.1193 67.356 51.3226 67.981 51.7057C68.765 52.1865 69.1836 52.6775 69.4111 53.4079C69.4194 53.4363 69.4309 53.4616 69.4393 53.491C69.6564 54.2528 69.6784 55.2763 69.6784 56.8152V65.0319H73.551V55.7045C73.551 53.6402 73.4331 52.7099 72.8882 51.2106C72.4069 49.8838 71.2002 48.7862 69.6888 48.0943Z" fill="var(--fill-0, #146AFF)"/>
<path id="Vector_11" d="M85.552 51.1911C86.6115 51.1925 87.6477 51.4941 88.5338 52.059C89.4197 52.6238 90.1171 53.4273 90.5405 54.3713H94.7315C94.2011 52.1874 92.8657 50.268 90.9777 48.9762C89.0897 47.6843 86.7802 47.1095 84.4856 47.3604C82.1911 47.6112 80.0706 48.6705 78.5253 50.3377C76.9799 52.005 76.1167 54.1647 76.099 56.4086C76.0813 58.6524 76.9101 60.8248 78.429 62.5149C79.9477 64.2051 82.0511 65.2959 84.3414 65.581C86.6317 65.8662 88.9502 65.3259 90.8584 64.0625C92.7665 62.799 94.1321 60.8998 94.6971 58.7241H90.4694C90.0553 59.5818 89.4116 60.3156 88.6058 60.8487C87.7999 61.3819 86.8613 61.6947 85.8884 61.7547C84.9154 61.8146 83.9437 61.6194 83.075 61.1894C82.2063 60.7594 81.4724 60.1104 80.9501 59.3105C80.4279 58.5104 80.1365 57.5888 80.1063 56.6418C80.0761 55.6948 80.3083 54.7574 80.7787 53.9274C81.249 53.0976 81.9403 52.4058 82.78 51.9245C83.6197 51.443 84.577 51.1898 85.552 51.1911Z" fill="var(--fill-0, #146AFF)"/>
<path id="Vector_12" d="M85.552 51.1911C86.6115 51.1925 87.6477 51.4941 88.5338 52.059C89.4197 52.6238 90.1171 53.4273 90.5405 54.3713H94.7315C94.2011 52.1874 92.8657 50.268 90.9777 48.9762C89.0897 47.6843 86.7802 47.1095 84.4856 47.3604C82.1911 47.6112 80.0706 48.6705 78.5253 50.3377C76.9799 52.005 76.1167 54.1647 76.099 56.4086C76.0813 58.6524 76.9101 60.8248 78.429 62.5149C79.9477 64.2051 82.0511 65.2959 84.3414 65.581C86.6317 65.8662 88.9502 65.3259 90.8584 64.0625C92.7665 62.799 94.1321 60.8998 94.6971 58.7241H90.4694C90.0553 59.5818 89.4116 60.3156 88.6058 60.8487C87.7999 61.3819 86.8613 61.6947 85.8884 61.7547C84.9154 61.8146 83.9437 61.6194 83.075 61.1894C82.2063 60.7594 81.4724 60.1104 80.9501 59.3105C80.4279 58.5104 80.1365 57.5888 80.1063 56.6418C80.0761 55.6948 80.3083 54.7574 80.7787 53.9274C81.249 53.0976 81.9403 52.4058 82.78 51.9245C83.6197 51.443 84.577 51.1898 85.552 51.1911Z" fill="var(--fill-0, #146AFF)"/>
<path id="Vector_13" d="M108.595 48.0804C107.409 47.5386 106.109 47.2709 104.799 47.2984C103.441 47.3158 102.116 47.7137 100.983 48.4446V38.6282H97.1359V65.023H101.01V56.8064C101.01 55.2676 101.032 54.244 101.248 53.4821C101.257 53.4528 101.267 53.4274 101.276 53.399C101.504 52.6686 101.922 52.1817 102.707 51.6968C103.333 51.3138 104.056 51.1104 104.795 51.1104C105.534 51.1104 106.258 51.3138 106.883 51.6968C107.667 52.1776 108.085 52.6686 108.313 53.399C108.322 53.4274 108.333 53.4528 108.342 53.4821C108.558 54.244 108.579 55.2676 108.579 56.8064V65.023H112.452V55.6906C112.452 53.6262 112.335 52.696 111.79 51.1967C111.309 49.8698 110.102 48.7722 108.591 48.0804" fill="var(--fill-0, #146AFF)"/>
<path id="Vector_14" d="M108.595 48.0804C107.409 47.5386 106.109 47.2709 104.799 47.2984C103.441 47.3158 102.116 47.7137 100.983 48.4446V38.6282H97.1359V65.023H101.01V56.8064C101.01 55.2676 101.032 54.244 101.248 53.4821C101.257 53.4528 101.267 53.4274 101.276 53.399C101.504 52.6686 101.922 52.1817 102.707 51.6968C103.333 51.3138 104.056 51.1104 104.795 51.1104C105.534 51.1104 106.258 51.3138 106.883 51.6968C107.667 52.1776 108.085 52.6686 108.313 53.399C108.322 53.4274 108.333 53.4528 108.342 53.4821C108.558 54.244 108.579 55.2676 108.579 56.8064V65.023H112.452V55.6906C112.452 53.6262 112.335 52.696 111.79 51.1967C111.313 49.8698 110.106 48.7722 108.595 48.0804Z" fill="var(--fill-0, #146AFF)"/>
<path id="Vector_15" d="M130.285 56.4712C130.284 56.7068 130.267 56.942 130.232 57.1751C130.225 57.2309 130.215 57.2867 130.206 57.3426C130.169 57.5604 130.119 57.7758 130.056 57.9877C130.056 57.9938 130.056 58.0009 130.056 58.007C129.984 58.2348 129.896 58.4575 129.792 58.6734C129.78 58.6988 129.766 58.7242 129.754 58.7506C129.202 59.8647 128.267 60.7573 127.111 61.2754C126.766 61.4291 126.406 61.5482 126.036 61.6304H126.02C125.852 61.6669 125.681 61.6923 125.508 61.7136L125.436 61.7247C125.24 61.7455 125.044 61.756 124.848 61.7562C124.604 61.754 124.36 61.7363 124.117 61.7035L123.944 61.677C123.467 61.5998 123.003 61.4603 122.565 61.2622L122.46 61.2146C122.019 61.004 121.609 60.7365 121.241 60.4193L121.198 60.3827C120.827 60.0551 120.503 59.6797 120.236 59.2668C120.228 59.2557 120.221 59.2425 120.214 59.2303C120.08 59.0212 119.963 58.8037 119.86 58.5791C119.551 57.8911 119.397 57.1466 119.408 56.3958C119.419 55.645 119.596 54.9052 119.926 54.2262C120.326 53.4044 120.935 52.6961 121.698 52.1699C122.46 51.6436 123.349 51.317 124.279 51.2217C124.466 51.1989 124.654 51.1854 124.841 51.181C126.285 51.1826 127.668 51.7405 128.689 52.7323C129.71 53.724 130.284 55.0687 130.285 56.4712ZM124.842 47.2969C124.609 47.2969 124.377 47.3091 124.147 47.3253C122.483 47.4441 120.88 47.9935 119.507 48.9169V38.6207H115.659V65.0165H119.532V64.0539C120.753 64.861 122.152 65.3784 123.617 65.5642C125.082 65.75 126.571 65.5993 127.965 65.1238C129.358 64.6485 130.618 63.8619 131.642 62.8274C132.666 61.7928 133.426 60.5391 133.86 59.1672C134.295 57.7952 134.391 56.3433 134.143 54.9283C133.895 53.5133 133.309 52.1746 132.431 51.02C131.554 49.8653 130.41 48.9269 129.091 48.2803C127.773 47.6336 126.316 47.2968 124.838 47.2969" fill="var(--fill-0, #146AFF)"/>
<path id="Vector_16" d="M130.285 56.4712C130.284 56.7068 130.267 56.942 130.232 57.1751C130.225 57.2309 130.215 57.2867 130.206 57.3426C130.169 57.5604 130.119 57.7758 130.056 57.9877C130.056 57.9938 130.056 58.0009 130.056 58.007C129.984 58.2348 129.896 58.4575 129.792 58.6734C129.78 58.6988 129.766 58.7242 129.754 58.7506C129.202 59.8647 128.267 60.7573 127.111 61.2754C126.766 61.4291 126.406 61.5482 126.036 61.6304H126.02C125.852 61.6669 125.681 61.6923 125.508 61.7136L125.436 61.7247C125.24 61.7455 125.044 61.756 124.848 61.7562C124.604 61.754 124.36 61.7363 124.117 61.7035L123.944 61.677C123.467 61.5998 123.003 61.4603 122.565 61.2622L122.46 61.2146C122.019 61.004 121.609 60.7365 121.241 60.4193L121.198 60.3827C120.827 60.0551 120.503 59.6797 120.236 59.2668C120.228 59.2557 120.221 59.2425 120.214 59.2303C120.08 59.0212 119.963 58.8037 119.86 58.5791C119.551 57.8911 119.397 57.1466 119.408 56.3958C119.419 55.645 119.596 54.9052 119.926 54.2262C120.326 53.4044 120.935 52.6961 121.698 52.1699C122.46 51.6436 123.349 51.317 124.279 51.2217C124.466 51.1989 124.654 51.1854 124.841 51.181C126.285 51.1826 127.668 51.7405 128.689 52.7323C129.71 53.724 130.284 55.0687 130.285 56.4712ZM124.842 47.2969C124.609 47.2969 124.377 47.3091 124.147 47.3253C122.483 47.4441 120.88 47.9935 119.507 48.9169V38.6207H115.659V65.0165H119.532V64.0539C120.753 64.861 122.152 65.3784 123.617 65.5642C125.082 65.75 126.571 65.5993 127.965 65.1238C129.358 64.6485 130.618 63.8619 131.642 62.8274C132.666 61.7928 133.426 60.5391 133.86 59.1672C134.295 57.7952 134.391 56.3433 134.143 54.9283C133.895 53.5133 133.309 52.1746 132.431 51.02C131.554 49.8653 130.41 48.9269 129.091 48.2803C127.773 47.6336 126.316 47.2968 124.838 47.2969H124.842Z" fill="var(--fill-0, #146AFF)"/>
<path id="Vector_17" d="M164.541 47.2822C159.704 47.3269 157.494 50.0901 157.434 52.833H157.425L157.431 52.9253V52.9496V53.0379C157.536 54.6478 158.446 56.6999 162.153 57.5338L165.417 58.251C166.263 58.4325 167.697 58.8921 167.818 59.944C167.809 61.3834 165.91 62.1503 164.537 62.1503C162.959 62.1503 161.255 61.3033 161.255 59.9339V59.8476H157.425V59.9339C157.425 62.7244 159.623 65.5598 164.538 65.6054C169.45 65.5598 171.649 62.7244 171.649 59.9339L171.643 59.8476C171.557 58.2195 170.653 56.143 166.917 55.3021L163.65 54.5859C162.931 54.4317 161.262 53.963 161.262 52.9304C161.262 51.3074 162.955 50.7352 164.54 50.7352C166.124 50.7352 167.821 51.5823 167.821 52.9517V53.0379H171.652V52.9517C171.652 50.161 169.453 47.3258 164.539 47.2802" fill="var(--fill-0, #146AFF)"/>
<path id="Vector_18" d="M164.541 47.2802C159.704 47.3248 157.494 50.088 157.434 52.831H157.425L157.431 52.9233V52.9476V53.0359C157.536 54.6458 158.446 56.6979 162.153 57.5317L165.417 58.2489C166.263 58.4305 167.697 58.89 167.818 59.942C167.809 61.3814 165.91 62.1483 164.537 62.1483C162.959 62.1483 161.255 61.3013 161.255 59.9318V59.8456H157.425V59.9318C157.425 62.7224 159.623 65.5577 164.538 65.6033C169.45 65.5577 171.649 62.7224 171.649 59.9318L171.643 59.8456C171.557 58.2175 170.653 56.141 166.917 55.3001L163.65 54.5839C162.931 54.4297 161.262 53.961 161.262 52.9284C161.262 51.3054 162.955 50.7332 164.54 50.7332C166.124 50.7332 167.821 51.5802 167.821 52.9496V53.0359H171.652V52.9496C171.654 50.161 169.455 47.3258 164.541 47.2802Z" fill="var(--fill-0, #146AFF)"/>
<path id="Vector_19" d="M150.822 58.5895C150.721 58.8144 150.603 59.032 150.47 59.2408L150.447 59.2773C150.18 59.6904 149.856 60.0659 149.484 60.3931L149.443 60.4296C149.075 60.7467 148.665 61.0142 148.223 61.2249L148.119 61.2726C147.68 61.47 147.216 61.6097 146.739 61.6875C146.681 61.6966 146.624 61.7057 146.567 61.7129C146.325 61.747 146.081 61.7649 145.837 61.7666C145.641 61.7666 145.445 61.7557 145.249 61.7342C145.224 61.7342 145.201 61.7271 145.177 61.7241C145.003 61.7037 144.832 61.6764 144.664 61.6408H144.649C144.279 61.5594 143.919 61.4404 143.574 61.2858C142.419 60.768 141.484 59.8753 140.931 58.761C140.917 58.7345 140.905 58.7092 140.892 58.6829C140.789 58.4672 140.701 58.2448 140.629 58.0174C140.627 58.0112 140.625 58.0047 140.624 57.9981C140.56 57.786 140.51 57.5702 140.473 57.3519C140.464 57.2961 140.455 57.2414 140.447 57.1856C140.413 56.9523 140.395 56.7172 140.393 56.4816C140.395 55.0801 140.968 53.7363 141.988 52.7451C143.008 51.7538 144.39 51.1959 145.833 51.1935C146.02 51.1969 146.207 51.2102 146.394 51.233C147.325 51.3273 148.216 51.6532 148.979 52.1794C149.743 52.7055 150.354 53.4141 150.754 54.2367C151.084 54.9156 151.261 55.6554 151.272 56.4062C151.284 57.157 151.13 57.9015 150.82 58.5895H150.822ZM151.166 48.9253C149.793 48.0043 148.191 47.4565 146.527 47.3387C146.297 47.3225 146.066 47.3103 145.833 47.3103C144.354 47.3091 142.897 47.6451 141.577 48.2913C140.257 48.9375 139.112 49.8759 138.233 51.031C137.354 52.186 136.766 53.5253 136.518 54.9412C136.269 56.357 136.367 57.81 136.801 59.1827C137.236 60.5556 137.997 61.8101 139.021 62.8451C140.045 63.8803 141.306 64.6671 142.701 65.1423C144.096 65.6175 145.586 65.7678 147.051 65.581C148.517 65.3944 149.917 64.8758 151.138 64.0673V65.03H155.012V47.9321H151.164L151.166 48.9253Z" fill="var(--fill-0, #146AFF)"/>
<path id="Vector_20" d="M150.822 58.5895C150.721 58.8144 150.603 59.032 150.47 59.2408L150.447 59.2773C150.18 59.6904 149.856 60.0659 149.484 60.3931L149.443 60.4296C149.075 60.7467 148.665 61.0142 148.223 61.2249L148.119 61.2726C147.68 61.47 147.216 61.6097 146.739 61.6875C146.681 61.6966 146.624 61.7057 146.567 61.7129C146.325 61.747 146.081 61.7649 145.837 61.7666C145.641 61.7666 145.445 61.7557 145.249 61.7342C145.224 61.7342 145.201 61.7271 145.177 61.7241C145.003 61.7037 144.832 61.6764 144.664 61.6408H144.649C144.279 61.5594 143.919 61.4404 143.574 61.2858C142.419 60.768 141.484 59.8753 140.931 58.761C140.917 58.7345 140.905 58.7092 140.892 58.6829C140.789 58.4672 140.701 58.2448 140.629 58.0174C140.627 58.0112 140.625 58.0047 140.624 57.9981C140.56 57.786 140.51 57.5702 140.473 57.3519C140.464 57.2961 140.455 57.2414 140.447 57.1856C140.413 56.9523 140.395 56.7172 140.393 56.4816C140.395 55.0801 140.968 53.7363 141.988 52.7451C143.008 51.7538 144.39 51.1959 145.833 51.1935C146.02 51.1969 146.207 51.2102 146.394 51.233C147.325 51.3273 148.216 51.6532 148.979 52.1794C149.743 52.7055 150.354 53.4141 150.754 54.2367C151.084 54.9156 151.261 55.6554 151.272 56.4062C151.284 57.157 151.13 57.9015 150.82 58.5895H150.822ZM151.169 48.9253C149.794 48.0039 148.191 47.4561 146.527 47.3387C146.297 47.3225 146.066 47.3103 145.833 47.3103C144.354 47.3091 142.897 47.6451 141.577 48.2913C140.257 48.9375 139.112 49.8759 138.233 51.031C137.354 52.186 136.766 53.5253 136.518 54.9412C136.269 56.357 136.367 57.81 136.801 59.1827C137.236 60.5556 137.997 61.8101 139.021 62.8451C140.045 63.8803 141.306 64.6671 142.701 65.1423C144.096 65.6175 145.586 65.7678 147.051 65.581C148.517 65.3944 149.917 64.8758 151.138 64.0673V65.03H155.012V47.9321H151.164L151.169 48.9253Z" fill="var(--fill-0, #146AFF)"/>
</g>
</svg>
