<svg preserveAspectRatio="xMidYMid meet" overflow="visible" style="display: block;" viewBox="0 0 196 104.792" fill="none" xmlns="http://www.w3.org/2000/svg">
<g id="1715859328-cypress-c.svg">
<path id="Vector" d="M37.7394 58.9942C37.1641 56.8993 36.8713 54.7233 36.8713 52.5318C36.8713 42.5272 43.1545 33.3796 52.5075 29.7722L53.7338 32.946C45.683 36.0518 40.2757 43.9221 40.2757 52.5318C40.2757 54.4204 40.5267 56.2906 41.0209 58.0929L37.7394 58.9942Z" fill="var(--fill-0, #69D3A7)"/>
<path id="Vector_2" d="M80.0218 42.8711C76.3821 35.8836 69.2176 31.5422 61.3289 31.5422C58.5337 31.5422 55.817 32.0803 53.2598 33.1383L51.955 29.9959C54.9279 28.7655 58.0814 28.1386 61.3289 28.1386C70.4935 28.1386 78.8137 33.18 83.0418 41.2986L80.0218 42.8711Z" fill="url(#paint0_linear_23_461)"/>
<path id="Vector_3" d="M54.0275 47.5044C56.0015 47.5044 57.6096 48.5571 58.4359 50.3933L58.5012 50.5371L61.8167 49.4112L61.7461 49.2415C60.4623 46.1147 57.505 44.1712 54.0275 44.1712C51.5825 44.1712 49.5954 44.955 47.9533 46.564C46.3217 48.1626 45.4955 50.174 45.4955 52.5431C45.4955 54.8914 46.3217 56.8924 47.9533 58.4911C49.5954 60.1001 51.5825 60.8838 54.0275 60.8838C57.505 60.8838 60.4623 58.9403 61.7461 55.8162L61.8167 55.6464L58.496 54.5179L58.4332 54.6668C57.6933 56.4719 56.046 57.5506 54.0275 57.5506C52.652 57.5506 51.491 57.0701 50.5706 56.1244C49.6398 55.1658 49.1692 53.9616 49.1692 52.5459C49.1692 51.1195 49.6293 49.9389 50.5706 48.9358C51.4884 47.9851 52.652 47.5044 54.0275 47.5044Z" fill="var(--fill-0, #1B1E2E)"/>
<path id="Vector_4" d="M94.8835 46.5667C93.3539 44.9785 91.4451 44.1712 89.2069 44.1712C86.9843 44.1712 85.1539 44.9628 83.763 46.5222V44.4796H80.1808V66.7375H83.763V58.5328C85.1539 60.0923 86.9818 60.8838 89.2069 60.8838C91.4451 60.8838 93.3565 60.0765 94.886 58.4858C96.3922 56.8872 97.1529 54.8888 97.1529 52.5431C97.151 50.174 96.3896 48.1653 94.8835 46.5667ZM92.0753 56.1193C91.1575 57.0674 89.994 57.5455 88.6212 57.5455C87.2276 57.5455 86.0979 57.0779 85.1644 56.1193C84.2336 55.1605 83.763 53.9564 83.763 52.5406C83.763 51.083 84.2205 49.9023 85.1644 48.9306C86.0953 47.9694 87.2249 47.5044 88.6212 47.5044C89.9965 47.5044 91.1575 47.9851 92.0753 48.9306C92.9982 49.8814 93.4454 51.0621 93.4454 52.5406C93.4454 53.9982 92.9957 55.1684 92.0753 56.1193Z" fill="var(--fill-0, #1B1E2E)"/>
<path id="Vector_5" d="M102.983 46.4016V44.4843H99.4011V60.5777H102.983V51.4978C102.983 50.043 103.569 48.9301 104.724 48.1909C105.873 47.4568 107.251 47.321 108.937 47.7808L109.154 47.8409V44.3981L109.021 44.3666C106.756 43.826 104.484 44.6045 102.983 46.4016Z" fill="var(--fill-0, #1B1E2E)"/>
<path id="Vector_6" d="M118.445 44.1712C116.084 44.1712 114.082 44.9758 112.491 46.564C110.881 48.1731 110.066 50.1844 110.066 52.5431C110.066 54.8914 110.891 56.8924 112.523 58.4911C114.165 60.1001 116.152 60.8838 118.597 60.8838C121.91 60.8838 124.758 59.2015 126.216 56.383L126.301 56.221L123.269 54.8784L123.197 55.0221C122.318 56.72 120.631 57.7335 118.692 57.7335C116.171 57.7335 114.241 56.1949 113.718 53.7943H126.713L126.73 53.6403C127.012 51.0438 126.342 48.7922 124.744 46.9454C123.155 45.1038 121.034 44.1712 118.445 44.1712ZM113.826 50.921C114.46 48.7242 116.254 47.319 118.445 47.319C120.697 47.319 122.49 48.7242 123.071 50.921H113.826Z" fill="var(--fill-0, #1B1E2E)"/>
<path id="Vector_7" d="M136.301 51.0098C134.348 50.6442 132.662 50.3254 132.662 48.9671C132.662 47.8883 133.81 47.136 135.452 47.136C137.264 47.136 138.258 47.9144 138.49 49.5156L138.516 49.6959L142.098 48.9462L142.073 48.7842C141.591 45.9397 139.054 44.1712 135.454 44.1712C133.648 44.1712 132.118 44.6388 130.91 45.5609C129.675 46.4778 129.05 47.6741 129.05 49.1212C129.05 51.2162 130.379 52.7886 132.61 53.3267C133.187 53.4626 133.799 53.5722 134.39 53.6821C136.61 54.0869 138.707 54.4708 138.707 55.965C138.707 57.117 137.368 57.919 135.454 57.919C133.506 57.919 132.432 57.1405 132.167 55.5367L132.139 55.3589L128.559 56.1088L128.588 56.2732C129.109 59.1597 131.673 60.8836 135.452 60.8836C137.371 60.8836 139.015 60.4057 140.333 59.4653C141.652 58.5353 142.317 57.3364 142.317 55.9023C142.317 52.1409 138.984 51.5139 136.301 51.0098Z" fill="var(--fill-0, #1B1E2E)"/>
<path id="Vector_8" d="M151.818 51.0098C149.866 50.6442 148.18 50.3254 148.18 48.9671C148.18 47.8883 149.328 47.136 150.969 47.136C152.782 47.136 153.775 47.9144 154.007 49.5156L154.034 49.6959L157.616 48.9462L157.59 48.7842C157.109 45.9397 154.572 44.1712 150.972 44.1712C149.165 44.1712 147.635 44.6388 146.428 45.5609C145.193 46.4778 144.568 47.6741 144.568 49.1212C144.568 51.2162 145.897 52.7886 148.127 53.3267C148.706 53.4626 149.316 53.5722 149.908 53.6821C152.128 54.0869 154.225 54.4708 154.225 55.965C154.225 57.117 152.886 57.919 150.972 57.919C149.024 57.919 147.949 57.1405 147.685 55.5367L147.656 55.3589L144.077 56.1088L144.106 56.2732C144.627 59.1597 147.191 60.8836 150.969 60.8836C152.889 60.8836 154.533 60.4057 155.851 59.4653C157.169 58.5353 157.835 57.3364 157.835 55.9023C157.835 52.1409 154.501 51.5139 151.818 51.0098Z" fill="var(--fill-0, #1B1E2E)"/>
<path id="Vector_9" d="M74.794 44.4821L70.0691 56.4377L65.3129 44.4821H61.4222L68.0923 60.8001L63.3466 72.3091L66.7485 72.9857L78.4703 44.4821H74.794Z" fill="var(--fill-0, #1B1E2E)"/>
<path id="Vector_10" d="M63.9543 70.819L63.1254 72.8251C62.9606 73.2221 62.5842 73.4911 62.1605 73.5094C61.8808 73.5199 61.5984 73.5278 61.3134 73.5278C51.5577 73.5225 42.9264 66.6448 40.7876 57.168L37.4669 57.9176C38.667 63.2333 41.6792 68.0579 45.9491 71.5059C50.2687 74.9931 55.7099 76.9183 61.2768 76.9287C61.2846 76.9287 61.3265 76.9287 61.3265 76.9287C61.6534 76.9287 61.9775 76.9209 62.3017 76.9079C64.0484 76.8347 65.6094 75.7402 66.2761 74.1181L67.3586 71.4956L63.9543 70.819Z" fill="url(#paint1_linear_23_461)"/>
</g>
<defs>
<linearGradient id="paint0_linear_23_461" x1="58.7839" y1="26.5636" x2="77.3501" y2="46.4075" gradientUnits="userSpaceOnUse">
<stop offset="0.0939" stop-color="#58D09E"/>
<stop offset="0.9883" stop-color="#58D09E" stop-opacity="0"/>
</linearGradient>
<linearGradient id="paint1_linear_23_461" x1="36.6106" y1="63.6344" x2="72.0808" y2="73.0754" gradientUnits="userSpaceOnUse">
<stop offset="0.0774" stop-color="#58D09E"/>
<stop offset="0.7617" stop-color="#1B1E2E"/>
</linearGradient>
</defs>
</svg>
