<svg preserveAspectRatio="xMidYMid meet" overflow="visible" style="display: block;" viewBox="0 0 196 104.276" fill="none" xmlns="http://www.w3.org/2000/svg">
<g id="1715859342-flatfile-c.svg">
<path id="Vector" d="M29.086 53.7022C28.6482 54.1398 28.1011 54.3587 27.4444 54.3587H25.2008H21.9723C21.4798 54.3587 21.0966 54.1947 20.7684 53.8662C20.4947 53.5379 20.2759 53.1548 20.2759 52.6625V44.29V35.8629C20.2759 35.3704 20.4947 34.9874 20.7684 34.659C21.0966 34.3854 21.5344 34.1665 21.9723 34.1665H27.0066H32.041C32.5335 34.1665 32.9166 34.3854 33.2449 34.659C33.5733 34.9874 33.7374 35.3704 33.7374 35.8629V42.4295V48.0658C33.7374 48.6678 33.5185 49.2696 33.0807 49.6527L31.1107 51.6226L29.086 53.7022Z" fill="var(--fill-0, #3B2FC9)"/>
<path id="Vector_2" d="M36.3644 42.9766C35.9265 42.539 35.7076 41.9917 35.7076 41.3897V39.0915V35.8629C35.7076 35.3704 35.9265 34.9874 36.2001 34.659C36.5284 34.3854 36.9663 34.1665 37.404 34.1665H45.7765H54.2036C54.6961 34.1665 55.0792 34.3854 55.4075 34.659C55.7358 34.9874 55.9 35.3704 55.9 35.8629V40.8973V45.9317C55.9 46.4241 55.681 46.8072 55.4075 47.1355C55.0792 47.4639 54.6961 47.628 54.2036 47.628H47.637H41.9459C41.3439 47.628 40.7421 47.4091 40.3043 46.9714L38.3343 45.0014L36.3644 42.9766Z" fill="var(--fill-0, #3B2FC9)"/>
<path id="Vector_3" d="M47.1426 50.3656C47.5804 49.928 48.1276 49.7091 48.7843 49.7091H51.0279H54.2017C54.6941 49.7091 55.0772 49.928 55.4055 50.2016C55.7339 50.5299 55.898 50.913 55.898 51.4053V59.7778V68.1503C55.898 68.6428 55.6792 69.0259 55.4055 69.3542C55.0772 69.6824 54.6941 69.8467 54.2017 69.8467H49.1672H44.1328C43.6403 69.8467 43.2574 69.6277 42.9289 69.3542C42.6006 69.0259 42.4365 68.6428 42.4365 68.1503V61.5837V55.9474C42.4365 55.3454 42.6554 54.7434 43.0932 54.3604L45.0631 52.3904L47.1426 50.3656Z" fill="var(--fill-0, #3B2FC9)"/>
<path id="Vector_4" d="M39.8116 61.089C40.2492 61.5266 40.4681 62.0738 40.4681 62.7305V64.9742V68.2027C40.4681 68.6952 40.2492 69.0783 39.9756 69.4066C39.6473 69.7349 39.2642 69.8991 38.7718 69.8991H30.3994H21.9723C21.4798 69.8991 21.0966 69.6802 20.7684 69.4066C20.4947 69.0783 20.2759 68.6406 20.2759 68.2027V63.1683V58.1339C20.2759 57.6414 20.4947 57.2584 20.7684 56.93C21.0966 56.6017 21.4798 56.4375 21.9723 56.4375H28.5389H34.1752C34.7771 56.4375 35.379 56.6566 35.7621 57.0942L37.732 59.0642L39.8116 61.089Z" fill="var(--fill-0, #3B2FC9)"/>
<path id="Vector_5" d="M112.429 61.0866C112.21 61.2508 111.991 61.4149 111.827 61.5244C111.662 61.6338 111.553 61.6886 111.444 61.7433C111.334 61.798 111.225 61.8527 111.171 61.8527C111.061 61.8527 111.006 61.8527 110.841 61.8527C110.404 61.8527 110.076 61.6338 109.912 61.2508C109.747 60.813 109.638 60.047 109.638 58.8977V53.5898C109.638 52.6594 109.583 51.8934 109.474 51.4009C109.364 50.9083 109.2 50.4159 108.927 49.9781C108.051 48.6101 106.355 47.8987 103.892 47.8987C102.086 47.8987 100.609 48.227 99.5149 48.829C98.42 49.4309 97.9276 50.3063 97.9276 51.4009C97.9276 51.9482 98.0917 52.4405 98.42 52.769C98.7483 53.0973 99.1857 53.3162 99.6781 53.3162C100.226 53.3162 100.718 53.1519 101.046 52.8236C101.374 52.4954 101.594 52.0576 101.594 51.5651C101.594 51.1272 101.43 50.7443 101.156 50.4706C100.937 50.2517 100.828 50.1423 100.828 50.1423C100.773 50.0876 100.773 50.0876 100.773 50.0329C100.773 49.9234 100.828 49.814 100.992 49.6498C101.156 49.5404 101.32 49.4309 101.539 49.3215C101.758 49.212 102.032 49.1573 102.305 49.1026C102.578 49.0479 102.907 49.0479 103.181 49.0479C104.658 49.0479 105.643 49.4856 106.135 50.3612C106.246 50.5801 106.355 50.7443 106.41 50.9631C106.464 51.1273 106.519 51.4009 106.574 51.6745C106.628 51.9482 106.628 52.2765 106.683 52.6594C106.683 53.0973 106.738 53.5898 106.738 54.1369L103.728 54.6842L102.524 54.903C101.922 55.0125 101.374 55.1221 100.992 55.2314C100.554 55.3409 100.171 55.4503 99.8432 55.5597C99.5149 55.6692 99.2407 55.8333 98.9674 55.9975C98.6932 56.1617 98.475 56.3258 98.2559 56.49C97.4892 57.2014 97.1069 58.1863 97.1069 59.445C97.1069 60.813 97.4892 61.9075 98.3109 62.6735C99.0766 63.4397 100.171 63.8775 101.539 63.8775C102.524 63.8775 103.454 63.6586 104.275 63.2208C105.096 62.783 105.917 62.0716 106.792 61.0866C106.902 61.5244 107.011 61.9075 107.066 62.1263C107.175 62.3452 107.285 62.5641 107.449 62.783C107.668 63.1114 107.942 63.3302 108.27 63.4943C108.598 63.6586 108.927 63.768 109.309 63.768C109.912 63.768 110.459 63.6037 111.006 63.3302C111.553 63.0566 112.21 62.5094 112.921 61.8527L112.429 61.0866ZM106.792 54.9578V57.4749C106.792 58.5694 106.628 59.445 106.3 59.9922C105.971 60.5394 105.534 60.9772 104.931 61.3055C104.33 61.6338 103.673 61.798 103.017 61.798C102.141 61.798 101.43 61.5244 100.937 60.9772C100.39 60.4299 100.171 59.7185 100.171 58.8431C100.171 57.4203 100.828 56.49 102.086 55.9975C102.524 55.8333 103.126 55.6692 103.838 55.505C104.549 55.3956 105.534 55.1767 106.792 54.9578Z" fill="var(--fill-0, #090B2B)"/>
<path id="Vector_6" d="M123.591 61.3068C123.044 61.5258 122.551 61.6898 122.223 61.7446C121.895 61.854 121.566 61.854 121.292 61.854C120.471 61.854 119.87 61.6351 119.487 61.1426C119.103 60.6501 118.885 59.9387 118.885 59.0085V49.87H123.372V48.8303H118.885V42.8108H118.174L116.094 44.8903V48.7755H112.428V49.8152H116.094V60.0482C116.094 61.1973 116.367 62.1276 116.914 62.6749C117.462 63.2768 118.283 63.5503 119.322 63.5503C120.034 63.5503 120.746 63.4409 121.456 63.1674C122.168 62.9485 122.989 62.5107 123.919 61.9635L123.591 61.3068Z" fill="var(--fill-0, #090B2B)"/>
<path id="Vector_7" d="M142.689 46.3133C143.236 46.3133 143.729 46.1491 144.111 45.766C144.494 45.383 144.659 44.9452 144.659 44.3981C144.659 43.8508 144.494 43.413 144.111 43.03C143.729 42.6469 143.29 42.4828 142.743 42.4828C142.251 42.4828 141.758 42.6469 141.376 43.03C140.993 43.413 140.828 43.8508 140.828 44.3433C140.828 44.8905 140.993 45.3283 141.376 45.7114C141.704 46.0944 142.197 46.3133 142.689 46.3133Z" fill="var(--fill-0, #090B2B)"/>
<path id="Vector_8" d="M173.498 59.6639C173.059 60.1564 172.622 60.5394 172.24 60.8678C171.856 61.1961 171.473 61.4149 171.09 61.6338C170.707 61.798 170.323 61.9622 169.886 62.0169C169.447 62.0716 169.011 62.1263 168.463 62.1263C166.658 62.1263 165.29 61.5244 164.359 60.3205C163.976 59.7733 163.702 59.1713 163.538 58.4599C163.374 57.7486 163.319 56.8183 163.319 55.6144H174.757C174.702 54.5201 174.592 53.5898 174.483 52.933C174.317 52.2216 174.099 51.6197 173.772 51.0177C173.223 50.0329 172.403 49.2667 171.309 48.7195C170.215 48.1723 169.011 47.8987 167.643 47.8987C166.493 47.8987 165.454 48.0629 164.523 48.4459C163.593 48.829 162.827 49.3215 162.17 49.9781C161.514 50.6348 161.021 51.4557 160.693 52.4405C160.365 53.4256 160.146 54.5201 160.146 55.6692C160.146 56.8731 160.31 57.9674 160.693 58.9525C161.021 59.9376 161.569 60.7584 162.17 61.4698C162.827 62.181 163.593 62.6735 164.523 63.0566C165.454 63.4397 166.493 63.6037 167.643 63.6037C168.354 63.6037 168.956 63.5491 169.558 63.4397C170.16 63.3302 170.707 63.1114 171.2 62.8377C171.746 62.5641 172.24 62.2358 172.732 61.798C173.223 61.3602 173.772 60.8678 174.264 60.2659L173.498 59.6639ZM167.479 48.8837C168.847 48.8837 169.832 49.3215 170.433 50.197C171.035 51.0726 171.419 52.4954 171.583 54.5747H163.265C163.429 52.55 163.812 51.0726 164.469 50.197C165.126 49.3215 166.165 48.8837 167.479 48.8837Z" fill="var(--fill-0, #090B2B)"/>
<path id="Vector_9" d="M92.7283 61.9631C92.4546 61.8537 92.2358 61.6895 92.0716 61.4706C91.9075 61.2517 91.8526 60.9235 91.798 60.5403C91.7433 60.1572 91.7433 59.6101 91.7433 58.9533V40.3481L86.1069 41.7161V42.7558C86.6542 42.7558 87.1466 42.8106 87.475 42.9199C87.858 43.0294 88.1316 43.1936 88.2959 43.4125C88.5148 43.6313 88.6242 43.9597 88.7335 44.3975C88.7882 44.8352 88.843 45.3824 88.843 46.0391V58.9533C88.843 59.6101 88.843 60.1026 88.7882 60.5403C88.7335 60.9235 88.6788 61.2517 88.5148 61.4706C88.3505 61.6895 88.1316 61.8537 87.858 61.9631C87.5845 62.0725 87.2014 62.1272 86.7089 62.2368L85.9428 62.2914V63.2764H94.6982V62.2914L93.9322 62.2368C93.3848 62.182 93.0019 62.0725 92.7283 61.9631Z" fill="var(--fill-0, #090B2B)"/>
<path id="Vector_10" d="M145.643 61.9662C145.37 61.8568 145.151 61.6926 144.987 61.4737C144.823 61.2548 144.768 60.9266 144.714 60.5434C144.659 60.1604 144.659 59.6133 144.659 58.9565V47.465L139.022 48.833V49.8728C139.569 49.8728 140.062 49.9275 140.39 50.0369C140.773 50.1463 141.047 50.3105 141.266 50.5294C141.485 50.7483 141.594 51.0765 141.704 51.5144C141.758 51.9522 141.813 52.4993 141.813 53.1561V59.0113C141.813 59.6679 141.813 60.1604 141.758 60.5981C141.704 60.9812 141.649 61.3095 141.485 61.5284C141.321 61.7474 141.102 61.9115 140.828 62.0209C140.554 62.1304 140.172 62.1851 139.679 62.2946L138.913 62.3492V63.3343H147.668V62.3492L146.902 62.2946C146.3 62.1851 145.918 62.0757 145.643 61.9662Z" fill="var(--fill-0, #090B2B)"/>
<path id="Vector_11" d="M156.534 61.9631C156.261 61.8537 156.042 61.6895 155.878 61.4706C155.714 61.2517 155.66 60.9235 155.605 60.5403C155.55 60.1572 155.55 59.6101 155.55 58.9533V40.3481L149.968 41.7708V42.8106C150.515 42.8106 151.008 42.8652 151.336 42.9747C151.719 43.0842 151.993 43.2483 152.212 43.4672C152.431 43.6861 152.54 44.0145 152.649 44.4521C152.704 44.89 152.759 45.4371 152.759 46.0938V59.0082C152.759 59.6647 152.759 60.1572 152.704 60.595C152.649 60.9781 152.595 61.3064 152.431 61.5254C152.267 61.7442 152.048 61.9083 151.774 62.0178C151.5 62.1272 151.117 62.182 150.625 62.2914L149.859 62.3462V63.3311H158.614V62.3462L157.849 62.2914C157.246 62.182 156.863 62.0725 156.534 61.9631Z" fill="var(--fill-0, #090B2B)"/>
<path id="Vector_12" d="M136.617 41.7193C135.96 41.2816 135.14 41.0079 134.1 41.0079C132.567 41.0079 131.309 41.5004 130.379 42.4854C129.449 43.4704 129.01 44.8384 129.01 46.5348C129.01 46.699 129.01 47.5745 129.01 47.8481C129.01 48.1764 129.066 48.45 129.066 48.7784H126.111V49.818H129.066V58.9566C129.066 59.6133 129.066 60.1058 129.01 60.5435C128.956 60.9266 128.901 61.2549 128.737 61.4738C128.573 61.6926 128.354 61.8568 128.081 61.9663C127.807 62.0757 127.424 62.1306 126.932 62.2399L126.165 62.2946V63.2796H135.14V62.2946L134.155 62.2399C133.662 62.1306 133.279 62.0757 133.006 61.9663C132.732 61.8568 132.513 61.6926 132.349 61.4738C132.185 61.2549 132.13 60.9266 132.075 60.5435C132.021 60.1604 132.021 59.6133 132.021 58.9566V49.8728H136.07V48.8331H132.021C131.966 48.7237 131.528 47.4104 131.309 45.9876C131.199 45.1121 131.199 44.4007 131.364 43.7987C131.528 43.0326 131.911 42.5401 132.513 42.2665H132.567C132.567 42.2665 132.567 42.2665 132.622 42.2665C132.622 42.2665 132.622 42.2665 132.678 42.2665H132.732C133.006 42.1571 133.279 42.1023 133.553 42.1023C133.826 42.1023 134.1 42.1571 134.374 42.2665C134.592 42.376 134.756 42.4854 134.756 42.5949C134.756 42.6495 134.702 42.759 134.592 42.8685C134.264 43.1968 134.046 43.6345 134.046 44.127C134.046 44.6195 134.21 45.0026 134.538 45.3309C134.866 45.6592 135.304 45.7687 135.796 45.7687C136.344 45.7687 136.836 45.5498 137.219 45.1667C137.603 44.7837 137.767 44.2365 137.767 43.6345C137.603 42.759 137.273 42.1571 136.617 41.7193Z" fill="var(--fill-0, #090B2B)"/>
<path id="Vector_13" d="M67.829 41.7737V42.8134L68.9781 42.9228C69.8536 43.0323 70.4555 43.2512 70.7292 43.5795C70.8387 43.689 70.8933 43.7984 70.948 43.9079C71.0029 44.0173 71.0575 44.1267 71.0575 44.3456C71.0575 44.5098 71.1123 44.7286 71.1123 45.0023C71.1123 45.2759 71.1123 45.6589 71.1123 46.0967V58.9563C71.1123 59.3942 71.1123 59.7771 71.1123 60.0507C71.1123 60.3245 71.0575 60.5432 71.0575 60.7074C71.0575 60.8716 71.0029 61.0358 70.948 61.1452C70.8933 61.2546 70.8387 61.3641 70.7292 61.4188C70.4555 61.8018 69.8536 62.0207 68.9781 62.0755L67.829 62.1849V63.2246H78.0618V62.1849L76.5844 62.0755C75.7088 62.0207 75.1617 61.8018 74.8333 61.4188C74.7239 61.3093 74.6691 61.2546 74.6691 61.1452C74.6144 61.0358 74.6144 60.8716 74.5597 60.7074C74.505 60.5432 74.505 60.3245 74.505 60.0507C74.505 59.7771 74.505 59.4488 74.505 58.9563V53.9767H77.2957C77.6241 53.9767 77.8977 54.0313 78.1166 54.0862C78.3903 54.1408 78.6638 54.2502 78.8827 54.4144C79.1016 54.5787 79.2657 54.7975 79.4299 55.1258C79.5941 55.3994 79.7583 55.7824 79.8677 56.2203L80.1413 57.0958H81.3999V49.4895H80.1413L79.9224 50.365C79.7583 50.8575 79.5941 51.2406 79.4846 51.5142C79.3205 51.8425 79.1563 52.0614 78.9374 52.2256C78.7185 52.3897 78.4996 52.5539 78.226 52.6085C78.0618 52.6634 77.8977 52.6634 77.6241 52.718H74.4503V43.1417H77.9524C78.9922 43.1417 79.8677 43.1965 80.5244 43.306C81.181 43.4154 81.7281 43.6342 82.1113 43.9626C82.4944 44.2909 82.7679 44.7286 82.8773 45.2759C83.0415 45.8232 83.0963 46.5892 83.1509 47.4647H84.4095V41.7737H67.829Z" fill="var(--fill-0, #090B2B)"/>
</g>
</svg>
