<svg preserveAspectRatio="xMidYMid meet" overflow="visible" style="display: block;" viewBox="0 0 196 104.792" fill="none" xmlns="http://www.w3.org/2000/svg">
<g id="1715859371-flecoin-c.svg">
<path id="Vector" d="M165.188 47.8468H168.363V50.0846L168.421 50.1434C168.932 49.2994 169.597 48.6419 170.421 48.1707C171.244 47.68 172.155 47.4346 173.154 47.4346C174.82 47.4346 176.134 47.8665 177.094 48.7302C178.054 49.5938 178.535 50.8894 178.535 52.6167V63.0691H175.183V53.5C175.144 52.3026 174.889 51.4389 174.419 50.909C173.949 50.3594 173.214 50.0846 172.214 50.0846C171.646 50.0846 171.136 50.1925 170.685 50.4084C170.235 50.6047 169.852 50.8894 169.539 51.2622C169.226 51.6156 168.98 52.0376 168.804 52.5284C168.627 53.0191 168.54 53.5392 168.54 54.0888V63.0691H165.188V47.8468Z" fill="var(--fill-0, #222222)"/>
<path id="Vector_2" d="M158.185 42.0449H161.536V45.2249H158.185V42.0449ZM158.185 47.8454H161.536V63.0676H158.185V47.8454Z" fill="var(--fill-0, #222222)"/>
<path id="Vector_3" d="M147.637 63.4813C146.423 63.4813 145.335 63.285 144.374 62.8925C143.433 62.4802 142.63 61.9209 141.963 61.2142C141.317 60.5075 140.817 59.6635 140.464 58.682C140.131 57.7006 139.964 56.621 139.964 55.4433C139.964 54.2851 140.131 53.2154 140.464 52.2339C140.817 51.2524 141.317 50.4084 141.963 49.7018C142.63 48.9951 143.433 48.4456 144.374 48.053C145.335 47.6407 146.423 47.4346 147.637 47.4346C148.852 47.4346 149.93 47.6407 150.871 48.053C151.832 48.4456 152.635 48.9951 153.282 49.7018C153.948 50.4084 154.448 51.2524 154.782 52.2339C155.134 53.2154 155.311 54.2851 155.311 55.4433C155.311 56.621 155.134 57.7006 154.782 58.682C154.448 59.6635 153.948 60.5075 153.282 61.2142C152.635 61.9209 151.832 62.4802 150.871 62.8925C149.93 63.285 148.852 63.4813 147.637 63.4813ZM147.637 60.8314C148.383 60.8314 149.029 60.6744 149.578 60.3603C150.126 60.0462 150.577 59.6341 150.931 59.1237C151.283 58.6133 151.538 58.0441 151.694 57.416C151.871 56.7682 151.959 56.1106 151.959 55.4433C151.959 54.7955 151.871 54.1477 151.694 53.5C151.538 52.8523 151.283 52.283 150.931 51.7923C150.577 51.2819 150.126 50.8697 149.578 50.5557C149.029 50.2416 148.383 50.0846 147.637 50.0846C146.893 50.0846 146.246 50.2416 145.697 50.5557C145.149 50.8697 144.697 51.2819 144.345 51.7923C143.992 52.283 143.727 52.8523 143.552 53.5C143.394 54.1477 143.316 54.7955 143.316 55.4433C143.316 56.1106 143.394 56.7682 143.552 57.416C143.727 58.0441 143.992 58.6133 144.345 59.1237C144.697 59.6341 145.149 60.0462 145.697 60.3603C146.246 60.6744 146.893 60.8314 147.637 60.8314Z" fill="var(--fill-0, #222222)"/>
<path id="Vector_4" d="M134.594 52.9406C134.457 51.9984 134.075 51.2917 133.447 50.8207C132.839 50.3299 132.065 50.0846 131.125 50.0846C130.693 50.0846 130.233 50.1631 129.743 50.3201C129.253 50.4575 128.802 50.7323 128.391 51.1446C127.979 51.5371 127.636 52.0965 127.362 52.8228C127.088 53.5294 126.95 54.4618 126.95 55.62C126.95 56.248 127.019 56.8762 127.156 57.5043C127.313 58.1324 127.548 58.6919 127.862 59.1826C128.195 59.6734 128.616 60.0757 129.126 60.3897C129.636 60.6842 130.253 60.8314 130.977 60.8314C131.957 60.8314 132.761 60.5272 133.389 59.9187C134.035 59.3102 134.437 58.4563 134.594 57.3571H137.945C137.632 59.3396 136.877 60.8609 135.681 61.9209C134.505 62.9612 132.937 63.4813 130.977 63.4813C129.782 63.4813 128.723 63.285 127.803 62.8925C126.901 62.4802 126.137 61.9307 125.51 61.2436C124.882 60.537 124.403 59.7028 124.069 58.7409C123.756 57.7792 123.598 56.7388 123.598 55.62C123.598 54.4814 123.756 53.4116 124.069 52.4106C124.382 51.4095 124.853 50.5459 125.481 49.8196C126.108 49.0736 126.882 48.4946 127.803 48.0824C128.744 47.6505 129.841 47.4346 131.096 47.4346C131.978 47.4346 132.81 47.5524 133.594 47.788C134.398 48.0039 135.103 48.3376 135.711 48.7891C136.338 49.2405 136.848 49.8097 137.24 50.4968C137.632 51.1837 137.867 51.9984 137.945 52.9406H134.594Z" fill="var(--fill-0, #222222)"/>
<path id="Vector_5" d="M118.434 54.1183C118.396 53.5883 118.278 53.078 118.082 52.5873C117.906 52.0965 117.65 51.6745 117.318 51.3211C117.004 50.9483 116.612 50.6538 116.142 50.4379C115.69 50.2023 115.181 50.0846 114.612 50.0846C114.025 50.0846 113.486 50.1925 112.996 50.4084C112.525 50.6047 112.114 50.8894 111.762 51.2622C111.428 51.6156 111.153 52.0376 110.938 52.5284C110.742 53.0191 110.634 53.549 110.615 54.1183H118.434ZM110.615 56.3266C110.615 56.9155 110.693 57.4847 110.85 58.0343C111.026 58.5839 111.281 59.0648 111.614 59.4771C111.947 59.8893 112.369 60.2229 112.879 60.4781C113.388 60.7136 113.995 60.8314 114.701 60.8314C115.681 60.8314 116.465 60.6253 117.053 60.2131C117.66 59.7813 118.111 59.1433 118.405 58.2993H121.58C121.404 59.1237 121.1 59.8598 120.669 60.5075C120.238 61.1553 119.718 61.7049 119.111 62.1564C118.503 62.5882 117.817 62.9121 117.053 63.128C116.309 63.3636 115.525 63.4813 114.701 63.4813C113.505 63.4813 112.447 63.285 111.526 62.8925C110.605 62.4999 109.821 61.9503 109.174 61.2436C108.547 60.537 108.067 59.693 107.734 58.7115C107.42 57.7301 107.263 56.6504 107.263 55.4728C107.263 54.3931 107.43 53.3724 107.763 52.4106C108.116 51.4291 108.606 50.5753 109.233 49.849C109.879 49.1031 110.654 48.5143 111.555 48.0824C112.457 47.6505 113.476 47.4346 114.612 47.4346C115.809 47.4346 116.876 47.6898 117.817 48.2002C118.778 48.6909 119.572 49.3484 120.198 50.1729C120.826 50.9973 121.276 51.9493 121.551 53.0289C121.845 54.0888 121.924 55.1881 121.786 56.3266H110.615Z" fill="var(--fill-0, #222222)"/>
<path id="Vector_6" d="M100.995 42.0449H104.347V63.0676H100.995V42.0449Z" fill="var(--fill-0, #222222)"/>
<path id="Vector_7" d="M93.9043 42.0449H97.2558V45.2249H93.9043V42.0449ZM93.9043 47.8454H97.2558V63.0676H93.9043V47.8454Z" fill="var(--fill-0, #222222)"/>
<path id="Vector_8" d="M76.8601 42.0449H91.3536V45.2249H80.5349V50.7308H90.0307V53.734H80.5349V63.0676H76.8601V42.0449Z" fill="var(--fill-0, #222222)"/>
<path id="Vector_9" fill-rule="evenodd" clip-rule="evenodd" d="M63.7878 55.7846C61.9133 68.51 50.0892 77.306 37.3639 75.4314C24.6386 73.5569 15.8425 61.7327 17.7171 49.0075C19.5917 36.2821 31.4158 27.4861 44.141 29.3607C56.8664 31.2352 65.6624 43.0954 63.7878 55.7846Z" fill="var(--fill-0, #0090FF)"/>
<path id="Vector_10" fill-rule="evenodd" clip-rule="evenodd" d="M51.0937 38.4249C46.3821 35.4328 43.0372 41.9938 42.9653 42.2101C42.1382 43.8323 41.4548 46.3557 41.0232 48.2303L34.9089 47.3291L34.6571 48.9873L40.6995 49.8885C40.5196 50.7537 40.4477 51.2945 40.4477 51.2945L40.124 53.0969V53.2051L34.1176 52.3038L33.9018 53.9981L39.8362 54.8633C38.2897 62.7219 37.1388 65.1012 35.9519 66.399C35.7001 66.6874 34.0457 67.8049 33.2184 65.7861C32.643 64.3803 31.5281 64.5966 31.5281 64.5966C31.2044 64.5605 29.7657 65.4978 32.0315 66.9397C36.7432 69.9318 40.088 63.3709 40.1599 63.1546C40.9872 61.5324 42.1022 57.0983 42.5337 55.2238L48.72 56.1611L48.9717 54.5027L42.8934 53.6376C43.0732 52.7724 43.1451 52.2317 43.1451 52.2317L43.4329 50.3932L43.4688 50.2851L49.4752 51.1863L49.691 49.528L43.7566 48.6628C45.3032 40.8041 46.0224 40.3355 47.2093 39.0378C47.4611 38.7493 49.1156 37.6318 49.9428 39.6506C50.5182 41.0565 51.6332 40.8402 51.6332 40.8402C51.921 40.8402 53.3955 39.9029 51.0937 38.4249Z" fill="var(--fill-0, white)"/>
</g>
</svg>
