<svg preserveAspectRatio="xMidYMid meet" overflow="visible" style="display: block;" viewBox="0 0 196 104.276" fill="none" xmlns="http://www.w3.org/2000/svg">
<g id="1715859258-forward-c.svg">
<path id="Vector" fill-rule="evenodd" clip-rule="evenodd" d="M179.681 60.8107H176.489V47.9142H179.681C183.232 47.9142 186.111 50.8012 186.111 54.3623C186.111 57.9236 183.232 60.8107 179.681 60.8107ZM179.523 45.7437C184.347 45.7437 188.37 49.7021 188.274 54.5382C188.181 59.217 184.369 62.9813 179.681 62.9813H174.324V46.7292C174.324 46.1849 174.764 45.7437 175.307 45.7437H179.523ZM136.705 46.3679C136.853 45.9914 137.215 45.7437 137.619 45.7437H139.434L146.209 62.9813H143.726L141.688 57.7952H134.697L132.658 62.9813H130.175L136.705 46.3679ZM135.554 55.6148H140.83L138.193 48.9034L135.554 55.6148ZM110.838 62.9813H108.399L102.575 45.7436H105.014L109.55 59.3634L113.345 46.4469C113.469 46.0296 113.852 45.7436 114.286 45.7436H115.966L119.961 59.3324L124.411 45.7436H126.846L121.119 62.9813H118.683L118.69 62.9622L114.76 49.5912L110.831 62.9594L110.838 62.9813ZM96.3174 50.8237C96.3417 53.3194 94.5888 55.4088 92.2502 55.8979L96.741 62.9813H94.1318L89.7104 56.0064H84.9317V62.9813H82.7673V46.7293C82.7673 46.1849 83.2074 45.7436 83.7501 45.7436H91.0822C93.9081 45.7436 96.2898 47.9902 96.3174 50.8237ZM84.9317 53.8359H91.2006C92.8312 53.8359 94.1532 52.5103 94.1532 50.8751C94.1532 49.2397 92.8312 47.9141 91.2006 47.9141H84.9317V53.8359ZM66.1071 45.2663C71.1077 45.2663 75.1615 49.3312 75.1615 54.3457C75.1615 59.3602 71.1077 63.4253 66.1071 63.4253C61.1066 63.4253 57.0528 59.3602 57.0528 54.3457C57.0528 49.3312 61.1066 45.2663 66.1071 45.2663ZM66.1071 61.2359C69.9019 61.2359 72.9781 58.1511 72.9781 54.3457C72.9781 50.5405 69.9019 47.4555 66.1071 47.4555C62.3124 47.4555 59.2361 50.5405 59.2361 54.3457C59.2361 58.1511 62.3124 61.2359 66.1071 61.2359ZM40.4221 45.7437H51.9146L51.1934 47.9142H41.6038V53.4883H49.3416L48.6205 55.6588H41.6038V62.9813H39.4392V46.7294C39.4392 46.1849 39.8792 45.7437 40.4221 45.7437ZM166.551 50.8237C166.576 53.3194 164.822 55.4088 162.484 55.8979L166.975 62.9813H164.366L159.944 56.0064H155.165V62.9813H153.001V46.7293C153.001 46.1849 153.441 45.7436 153.984 45.7436H161.316C164.142 45.7436 166.524 47.9902 166.551 50.8237ZM155.165 53.8359H161.434C163.065 53.8359 164.387 52.5103 164.387 50.8751C164.387 49.2397 163.065 47.9141 161.434 47.9141H155.165V53.8359Z" fill="var(--fill-0, black)"/>
<path id="Vector_2" d="M30.6064 43.4483H26.3288C25.4826 43.4483 24.7314 43.9915 24.4639 44.7966L19.1852 60.686H23.4629C24.3091 60.686 25.0603 60.1429 25.3277 59.3377L30.6064 43.4483Z" fill="var(--fill-0, #1D60DC)"/>
<path id="Vector_3" d="M20.1109 47.6749H15.8332C14.9872 47.6749 14.2359 48.2179 13.9683 49.0229L8.68966 64.9123H12.9673C13.8135 64.9123 14.5646 64.3691 14.8322 63.5642L20.1109 47.6749Z" fill="var(--fill-0, #1D60DC)"/>
</g>
</svg>
