<svg preserveAspectRatio="xMidYMid meet" overflow="visible" style="display: block;" viewBox="0 0 196 104.276" fill="none" xmlns="http://www.w3.org/2000/svg">
<g id="1715859384-healthtap-c.svg">
<path id="Vector" opacity="0.8" d="M39.4095 50.6617H30.3943V41.5172H25.4289V50.6617H16.4138V55.7024H25.4289V64.8468H30.3943V55.6916H39.4095V50.6725V50.6617Z" fill="var(--fill-0, #43577A)"/>
<path id="Vector_2" d="M44.3744 41.5172H39.409V64.8468H44.3744V41.5172ZM60.0137 47.6243C58.5687 46.7644 56.9126 46.3244 55.2313 46.3533C53.5081 46.3533 51.9356 46.7626 50.5353 47.592C49.1401 48.4044 47.996 49.5858 47.2287 51.0063C46.423 52.4934 46.0114 54.162 46.0332 55.8532C46.0332 57.6197 46.4316 59.2244 47.2395 60.6785C48.0141 62.1186 49.1711 63.317 50.5831 64.1417C51.9951 64.9666 53.6073 65.3857 55.2422 65.3531C57.2037 65.387 59.1227 64.7794 60.7072 63.6226C62.2918 62.4657 63.4551 60.823 64.0204 58.9444H58.9904C58.6242 59.5907 58.118 60.0969 57.4609 60.4739C56.8039 60.84 56.0607 61.0124 55.2422 61.0124C54.1904 61.0541 53.1597 60.7092 52.3448 60.043C51.5375 59.3071 51.0215 58.3057 50.8908 57.2211H64.3112C64.6047 55.1054 64.2399 52.9506 63.2664 51.0494C62.5214 49.6277 61.395 48.4416 60.0137 47.6243ZM51.02 53.893C51.2892 52.8158 51.8063 51.9864 52.5387 51.3833C53.3037 50.7788 54.2568 50.4624 55.2313 50.4893C56.3085 50.4893 57.2348 50.7801 57.9887 51.3726C58.7426 51.9542 59.2812 52.7943 59.6044 53.893H51.02ZM80.8659 48.5398C79.2795 47.0906 77.1981 46.3043 75.0497 46.3426C73.3745 46.317 71.7231 46.741 70.2674 47.5705C68.86 48.3729 67.7039 49.5515 66.9285 50.974C66.1192 52.4597 65.7074 54.1293 65.7329 55.8209C65.7329 57.598 66.1315 59.2244 66.9393 60.6893C67.7114 62.1197 68.8678 63.3061 70.2783 64.1144C71.7236 64.9402 73.3637 65.3642 75.0281 65.3423C77.247 65.3423 79.1534 64.6314 80.769 63.1989L81.1998 64.8145H84.9697V46.8273H81.3721L80.8552 48.5506L80.8659 48.5398ZM78.8841 59.3429C78.4377 59.8019 77.9008 60.1633 77.3075 60.4043C76.7143 60.6453 76.0775 60.7607 75.4374 60.7431C74.0372 60.7431 72.8848 60.28 71.9693 59.3429C71.517 58.8773 71.163 58.3257 70.928 57.7206C70.6929 57.1157 70.5819 56.4696 70.6013 55.8209C70.6013 54.4099 71.0645 53.2359 71.9693 52.2988C72.416 51.8366 72.9542 51.4724 73.5494 51.2295C74.1447 50.9866 74.784 50.8702 75.4267 50.8879C76.8269 50.8879 77.9686 51.351 78.8841 52.2881C79.3376 52.7549 79.6925 53.3083 79.9275 53.9153C80.1625 54.5223 80.2729 55.1703 80.252 55.8209C80.252 57.2426 79.7996 58.4059 78.8841 59.3429ZM92.6492 41.5172H87.8562V64.8468H92.6492V41.5172ZM100.845 59.8061C100.596 59.5299 100.405 59.2065 100.282 58.855C100.161 58.5035 100.111 58.131 100.135 57.7597V50.7586H104.95V46.8488H100.059V41.5172H95.3419V58.4274C95.3419 60.4092 95.9127 61.9818 97.0441 63.1235C97.6524 63.7116 98.3765 64.1681 99.1692 64.4646C99.9629 64.761 100.808 64.8912 101.654 64.8468H105.046V60.517H102.871C101.988 60.517 101.309 60.28 100.845 59.8061ZM118.359 46.4287C116.226 46.4287 114.45 47.1288 113.006 48.529V41.5172H108.203V64.8468H113.006V55.3901C113.006 53.9467 113.361 52.7943 114.084 51.9434C114.441 51.5299 114.887 51.2027 115.388 50.9863C115.89 50.7699 116.435 50.67 116.98 50.694C118.047 50.694 118.833 51.0171 119.328 51.6849C119.824 52.3419 120.072 53.3544 120.072 54.7222V64.8468H124.865V53.9037C124.865 51.5987 124.283 49.7785 123.109 48.4321C122.518 47.763 121.785 47.2347 120.963 46.8862C120.14 46.5376 119.251 46.3777 118.359 46.4179V46.4287ZM140.924 41.5172H123.174V46.2025H129.55V64.836H134.526V46.2025H140.924V41.5172Z" fill="var(--fill-0, #142D59)"/>
<path id="Vector_3" d="M153.355 48.5359C151.768 47.0866 149.687 46.3003 147.539 46.3386C145.87 46.3169 144.227 46.7408 142.778 47.5665C141.37 48.369 140.214 49.5475 139.439 50.97C138.629 52.4558 138.218 54.1254 138.243 55.8169C138.243 57.5942 138.642 59.2205 139.439 60.6854C140.21 62.1159 141.367 63.3021 142.778 64.1104C144.226 64.9382 145.87 65.3621 147.539 65.3384C149.758 65.3384 151.663 64.6275 153.279 63.1949L153.699 64.8105H157.469V46.8233H153.872L153.355 48.5467V48.5359ZM151.373 59.339C150.926 59.798 150.389 60.1594 149.796 60.4003C149.203 60.6413 148.566 60.7567 147.926 60.7392C146.526 60.7392 145.384 60.2761 144.468 59.339C144.017 58.8734 143.662 58.3218 143.428 57.7168C143.192 57.1117 143.081 56.4657 143.1 55.8169C143.1 54.4059 143.553 53.232 144.468 52.2949C144.914 51.834 145.45 51.4706 146.044 51.2276C146.637 50.9848 147.274 50.8678 147.915 50.8839C149.315 50.8839 150.468 51.3471 151.373 52.2841C151.829 52.7501 152.185 53.3031 152.422 53.9101C152.659 54.5171 152.771 55.1656 152.752 55.8169C152.752 57.2387 152.299 58.4019 151.373 59.339ZM178.138 50.9809C177.366 49.5568 176.214 48.3748 174.81 47.5665C173.362 46.7393 171.717 46.3153 170.05 46.3386C167.852 46.3386 165.956 47.0603 164.362 48.4928L163.544 46.8449H160.388V70.1098H165.181V63.8628C166.607 64.86 168.309 65.3871 170.05 65.3706C171.805 65.3706 173.389 64.9614 174.81 64.1428C176.216 63.3324 177.368 62.1464 178.138 60.7177C178.947 59.2201 179.358 57.5403 179.334 55.8385C179.357 54.1437 178.946 52.4711 178.138 50.9809ZM173.109 59.3821C172.662 59.841 172.125 60.2024 171.532 60.4435C170.938 60.6845 170.302 60.7999 169.662 60.7823C168.262 60.7823 167.109 60.3083 166.194 59.3713C165.74 58.9045 165.385 58.351 165.15 57.7441C164.915 57.1371 164.804 56.489 164.825 55.8385C164.825 54.4383 165.289 53.2535 166.194 52.3272C166.64 51.8638 167.177 51.499 167.773 51.2559C168.368 51.0129 169.008 50.8972 169.651 50.9163C171.051 50.9163 172.192 51.3793 173.109 52.3165C173.56 52.782 173.915 53.3336 174.149 53.9387C174.385 54.5437 174.496 55.1897 174.476 55.8385C174.497 56.489 174.387 57.1371 174.151 57.7441C173.917 58.351 173.561 58.9045 173.109 59.3713V59.3821Z" fill="var(--fill-0, #142D59)"/>
</g>
</svg>
