<svg preserveAspectRatio="xMidYMid meet" overflow="visible" style="display: block;" viewBox="0 0 196 104.276" fill="none" xmlns="http://www.w3.org/2000/svg">
<g id="1715859421-iterable-c.svg">
<path id="Vector" opacity="0.25" d="M44.3324 71.6165L60.2128 55.736L52.2073 47.7304L36.3268 63.6109L44.3324 71.6165Z" fill="var(--fill-0, #59C1A7)"/>
<path id="Vector_2" opacity="0.25" d="M52.1036 55.644L60.1091 47.6384L44.2287 31.758L36.2231 39.7636L52.1036 55.644Z" fill="var(--fill-0, #36C3F2)"/>
<path id="Vector_3" opacity="0.15" d="M35.9797 71.6618L43.9853 63.6563L28.1049 47.7758L20.0993 55.7813L35.9797 71.6618Z" fill="var(--fill-0, #EF3D55)"/>
<path id="Vector_4" opacity="0.15" d="M28.4773 55.2516L44.3577 39.3712L36.3522 31.3657L20.4718 47.2461L28.4773 55.2516Z" fill="var(--fill-0, #6A266D)"/>
<path id="Vector_5" d="M40.1175 41.3319C43.2658 41.3319 45.8179 38.7797 45.8179 35.6314C45.8179 32.4832 43.2658 29.931 40.1175 29.931C36.9693 29.931 34.4171 32.4832 34.4171 35.6314C34.4171 38.7797 36.9693 41.3319 40.1175 41.3319Z" fill="var(--fill-0, #6A266D)"/>
<path id="Vector_6" d="M56.2166 57.4817C59.3648 57.4817 61.917 54.9294 61.917 51.7813C61.917 48.633 59.3648 46.0809 56.2166 46.0809C53.0683 46.0809 50.5162 48.633 50.5162 51.7813C50.5162 54.9294 53.0683 57.4817 56.2166 57.4817Z" fill="var(--fill-0, #36C3F2)"/>
<path id="Vector_7" d="M40.1177 73.5861C43.266 73.5861 45.8181 71.034 45.8181 67.8857C45.8181 64.7376 43.266 62.1853 40.1177 62.1853C36.9695 62.1853 34.4173 64.7376 34.4173 67.8857C34.4173 71.034 36.9695 73.5861 40.1177 73.5861Z" fill="var(--fill-0, #59C1A7)"/>
<path id="Vector_8" d="M24.0452 57.4364C27.1935 57.4364 29.7457 54.8842 29.7457 51.736C29.7457 48.5877 27.1935 46.0356 24.0452 46.0356C20.897 46.0356 18.3448 48.5877 18.3448 51.736C18.3448 54.8842 20.897 57.4364 24.0452 57.4364Z" fill="var(--fill-0, #EF3D55)"/>
<path id="Vector_9" d="M111.554 45.021H104.614C104.482 45.021 104.376 45.1265 104.376 45.2585V57.4774C104.376 57.6094 104.482 57.715 104.614 57.715H111.554C111.686 57.715 111.791 57.6094 111.791 57.4774V55.5245C111.791 55.3926 111.686 55.287 111.554 55.287H107.306C107.041 55.287 106.857 55.1023 106.857 54.8384V52.8326C106.857 52.5687 107.041 52.384 107.306 52.384H111.185C111.316 52.384 111.423 52.2784 111.423 52.1465V50.4047C111.423 50.2727 111.316 50.1672 111.185 50.1672H107.306C107.041 50.1672 106.857 49.9824 106.857 49.7185V47.8712C106.857 47.6072 107.041 47.4225 107.306 47.4225H111.554C111.686 47.4225 111.791 47.317 111.791 47.185V45.2849C111.791 45.1265 111.686 45.021 111.554 45.021ZM140.373 57.715C140.452 57.715 140.531 57.6621 140.558 57.6094C140.61 57.5566 140.61 57.4511 140.584 57.3983L135.675 45.153C135.622 45.0738 135.543 44.9946 135.464 44.9946H134.224C134.145 44.9946 134.066 45.0474 134.013 45.153L129.104 57.3719C129.078 57.4246 129.078 57.5302 129.13 57.583C129.183 57.6358 129.262 57.6886 129.316 57.6886H131.558C131.664 57.6886 131.717 57.6358 131.77 57.5302L132.376 55.8412C132.429 55.6828 132.614 55.5509 132.799 55.5509H136.916C137.101 55.5509 137.285 55.6828 137.338 55.8412L137.918 57.5302C137.971 57.6094 138.025 57.6886 138.13 57.6886L140.373 57.715ZM136.204 53.2285C136.124 53.3605 135.992 53.4133 135.834 53.4133H133.908C133.749 53.4133 133.643 53.3605 133.538 53.2285C133.459 53.0966 133.433 52.9646 133.485 52.8326L134.435 50.1408C134.514 49.9032 134.778 49.7714 135.016 49.8769C135.147 49.9297 135.254 50.0352 135.28 50.1408L136.23 52.8326C136.309 52.9382 136.283 53.0966 136.204 53.2285ZM164.626 57.715C164.758 57.715 164.864 57.6094 164.864 57.4774V55.5245C164.864 55.3926 164.758 55.287 164.626 55.287H161.011C160.747 55.287 160.562 55.1023 160.562 54.8384V45.2322C160.562 45.1002 160.456 44.9946 160.324 44.9946H158.293C158.16 44.9946 158.055 45.1002 158.055 45.2322V57.4511C158.055 57.583 158.16 57.6886 158.293 57.6886L164.626 57.715ZM144.913 57.715H149.715C150.455 57.7413 151.193 57.5566 151.853 57.2136C152.434 56.8969 152.882 56.4218 153.199 55.894C153.489 55.3661 153.674 54.7592 153.674 54.1522C153.727 52.8326 152.961 51.5923 151.747 51.0117C151.694 50.9853 151.694 50.9589 151.694 50.9061V50.8533L151.747 50.8006C152.46 50.2199 152.856 49.3227 152.856 48.399C152.856 47.8184 152.698 47.2378 152.434 46.7363C152.143 46.2086 151.694 45.7863 151.167 45.5224C150.507 45.2057 149.794 45.0474 149.056 45.0474H144.992C144.833 45.0474 144.727 45.153 144.727 45.3113V57.5038C144.648 57.6094 144.78 57.715 144.913 57.715ZM147.155 47.8184C147.155 47.6072 147.314 47.449 147.525 47.449H148.634C149.056 47.4225 149.478 47.5545 149.794 47.8184C150.032 48.0296 150.164 48.2934 150.217 48.6101C150.269 49.0588 150.111 49.481 149.794 49.7977C149.478 50.088 149.03 50.2464 148.607 50.2199H147.525C147.314 50.2199 147.155 50.0616 147.155 49.8505V47.8184ZM147.155 52.6743C147.155 52.4632 147.314 52.3049 147.525 52.3049H149.214C149.663 52.2784 150.111 52.4368 150.428 52.7534C150.744 53.0174 150.903 53.4133 150.903 53.8355C150.903 54.2577 150.744 54.6536 150.428 54.9439C150.085 55.2606 149.636 55.419 149.188 55.3926H147.525C147.314 55.3926 147.129 55.2078 147.129 54.9967L147.155 52.6743ZM123.219 53.3341C123.087 53.123 123.166 52.8591 123.378 52.7534C123.932 52.4104 124.38 51.9617 124.697 51.4075C125.066 50.7478 125.278 49.9824 125.278 49.2171C125.278 48.5046 125.092 47.792 124.75 47.1587C124.38 46.5253 123.853 45.9711 123.219 45.628C122.533 45.2322 121.741 45.0474 120.949 45.0474H117.096C116.965 45.0474 116.858 45.153 116.858 45.2849V57.5038C116.858 57.6358 116.965 57.7413 117.096 57.7413H119.128C119.261 57.7413 119.366 57.6358 119.366 57.5038V53.8091C119.366 53.5452 119.55 53.3605 119.815 53.3605H120.421C120.58 53.3605 120.738 53.4396 120.817 53.598L122.903 57.6094C122.955 57.6886 123.034 57.7413 123.113 57.7413H125.409C125.541 57.7413 125.647 57.6621 125.674 57.5302C125.674 57.4774 125.674 57.4511 125.621 57.3983L123.219 53.3341ZM122.19 50.4839C121.82 50.827 121.292 50.9853 120.791 50.9589H119.788C119.524 50.9589 119.34 50.7741 119.34 50.5103V47.8712C119.34 47.6072 119.524 47.4225 119.788 47.4225H120.791C121.292 47.3962 121.794 47.5809 122.19 47.9239C122.876 48.6101 122.903 49.7185 122.242 50.4047C122.216 50.4311 122.19 50.4574 122.19 50.4839ZM99.7312 45.021H91.7349C91.6029 45.021 91.4973 45.1265 91.4973 45.2585V47.2114C91.4973 47.3434 91.6029 47.449 91.7349 47.449H94.0836C94.3475 47.449 94.5322 47.6337 94.5322 47.8976V57.5302C94.5322 57.6621 94.6378 57.7678 94.7698 57.7678H96.8279C96.9601 57.7678 97.0654 57.6621 97.0654 57.5302V47.8712C97.0654 47.6072 97.2508 47.4225 97.5143 47.4225H99.7843C99.9156 47.4225 100.022 47.317 100.022 47.185V45.2322C99.9687 45.1265 99.8634 45.021 99.7312 45.021ZM176.423 55.3134H172.174C171.91 55.3134 171.725 55.1286 171.725 54.8647V52.8591C171.725 52.5951 171.91 52.4104 172.174 52.4104H176.053C176.186 52.4104 176.291 52.3049 176.291 52.1729V50.4311C176.291 50.2991 176.186 50.1936 176.053 50.1936H172.174C171.91 50.1936 171.725 50.0089 171.725 49.7449V47.8976C171.725 47.6337 171.91 47.449 172.174 47.449H176.423C176.554 47.449 176.661 47.3434 176.661 47.2114V45.2849C176.661 45.153 176.554 45.0474 176.423 45.0474H169.482C169.35 45.0474 169.245 45.153 169.245 45.2849V57.5038C169.245 57.6358 169.35 57.7413 169.482 57.7413H176.449C176.582 57.7413 176.687 57.6358 176.687 57.5038V55.5509C176.661 55.419 176.554 55.3134 176.423 55.3134ZM86.7733 55.287H84.7677C84.5037 55.287 84.319 55.1023 84.319 54.8384V47.8449C84.319 47.5809 84.5037 47.3962 84.7677 47.3962H86.7997C86.9317 47.3962 87.0372 47.2906 87.0372 47.1587V45.2057C87.0372 45.0738 86.9317 44.9682 86.7997 44.9682H79.2256C79.0936 44.9682 78.9881 45.0738 78.9881 45.2057V47.1587C78.9881 47.2906 79.0936 47.3962 79.2256 47.3962H81.3633C81.6271 47.3962 81.8118 47.5809 81.8118 47.8449V54.8647C81.8118 55.1023 81.6008 55.287 81.3633 55.287H79.2256C79.0936 55.287 78.9881 55.3926 78.9881 55.5245V57.4774C78.9881 57.6094 79.0936 57.715 79.2256 57.715H81.9702C81.9966 57.715 82.023 57.7413 82.023 57.7413H84.0815C84.1078 57.7413 84.1343 57.7413 84.1343 57.715H86.7733C86.9053 57.715 87.0109 57.6094 87.0109 57.4774V55.5245C87.0109 55.3926 86.9053 55.287 86.7733 55.287Z" fill="var(--fill-0, #333332)"/>
</g>
</svg>
