<svg preserveAspectRatio="xMidYMid meet" overflow="visible" style="display: block;" viewBox="0 0 196 104.276" fill="none" xmlns="http://www.w3.org/2000/svg">
<g id="1715859397-kindercare-c.svg">
<path id="Vector" fill-rule="evenodd" clip-rule="evenodd" d="M30.0355 47.2216C29.9465 47.1461 29.8294 47.0963 29.7351 47.0448C29.5554 46.9464 29.4001 46.8099 29.2444 46.6776C28.9275 46.4094 28.6517 46.0826 28.4215 45.7389C28.2985 45.5568 28.2019 45.3587 28.0754 45.1784C27.8429 44.8452 27.5982 44.5085 27.3405 44.1952C27.1091 43.9123 26.8216 43.6242 26.4702 43.5006C26.284 43.4356 26.0228 43.4045 25.8278 43.4532C25.3272 43.5791 24.7848 43.9533 24.5764 44.454C24.3198 45.0712 24.2853 45.7465 24.273 46.4064C24.2601 47.0987 24.2759 47.7979 24.1459 48.4807C24.1102 48.664 24.0604 48.842 23.9943 49.016C23.9626 49.0992 23.9269 49.18 23.8906 49.2614C23.7541 49.5718 23.9163 49.584 23.9649 49.6005C24.0405 49.6262 24.1213 49.6286 24.1998 49.6251C24.5002 49.6121 24.7667 49.5191 25.0466 49.4195C25.3377 49.3181 25.6298 49.2227 25.9233 49.1337C26.5136 48.9522 27.1091 48.7893 27.7013 48.6166C28.0251 48.5229 28.3659 48.4128 28.6886 48.3162C29.1706 48.1709 29.3603 48.1774 29.9243 47.8845C30.316 47.6814 30.1743 47.4418 30.1433 47.3645C30.1199 47.3072 30.0812 47.2615 30.0355 47.2216Z" fill="var(--fill-0, black)"/>
<path id="Vector_2" fill-rule="evenodd" clip-rule="evenodd" d="M26.0636 44.7373C25.8762 44.643 25.5828 44.595 25.3866 44.6817C25.1448 44.7889 25.0259 45.0665 24.9614 45.3078C24.7887 45.9549 24.9211 46.6329 24.8871 47.2912C24.8695 47.6321 24.8367 48.0321 24.7226 48.3553C25.851 48.1269 26.8735 47.7304 27.978 47.4154C27.8673 47.3621 27.7835 47.2567 27.742 47.2127C27.4937 46.9462 27.3028 46.6417 27.1464 46.3133C26.9262 45.8535 26.7259 45.3722 26.3851 44.9838C26.2985 44.8867 26.1877 44.8006 26.0636 44.7373Z" fill="var(--fill-0, #FE3937)"/>
<path id="Vector_3" fill-rule="evenodd" clip-rule="evenodd" d="M30.9361 50.0301C28.3225 50.0026 25.3252 50.2139 22.8018 50.1297C22.9365 47.8738 22.7321 45.4787 22.0018 43.351C23.6498 43.1279 25.4799 43.1461 27.1776 43.0583C28.6616 43.0401 30.2673 43.1836 31.7718 43.1625C31.185 45.3322 30.8324 47.6507 30.9361 50.0301ZM48.1147 72.4694C48.1147 72.4694 46.0896 67.8769 45.254 65.6006C43.0005 61.01 40.8905 56.3542 37.8453 52.0757C37.344 51.4918 36.9258 50.864 36.2793 50.5308C34.8392 50.2181 33.278 50.2327 31.7718 50.0723C32.6754 47.998 33.1468 45.5765 33.2306 43.2175C33.764 43.2152 35.6574 43.7429 35.4431 42.6501C35.2797 41.8191 34.8516 40.9442 34.5078 40.1734C34.1723 39.4186 33.798 38.6796 33.4133 37.9475C32.6186 36.4343 31.6757 35.0129 30.6023 33.6825C29.9938 32.9282 29.3339 32.1914 28.6182 31.5361L26.9773 30.1634C26.6816 29.8917 26.2512 29.801 25.9343 30.2091C24.3701 31.9086 23.3792 33.6233 22.314 35.6472C21.3488 37.4831 20.3797 39.4842 19.5516 41.3886C19.3531 41.846 18.4835 43.1607 19.2236 43.5549C19.349 43.6216 20.6614 43.5157 20.6637 43.4828C20.4582 46.7705 22.0938 50.1689 22.0352 50.1689C21.8138 50.1689 21.0689 50.1923 20.8452 50.2046C20.1074 50.245 19.3098 50.259 18.5906 50.43C17.7965 50.6174 17.2987 51.3624 16.8495 51.9832C16.3131 52.7263 15.8077 53.4361 15.3632 54.2425C14.9058 55.0741 14.4714 55.9174 14.0532 56.7706C12.7929 59.3386 11.6656 61.9767 10.5237 64.5986C9.842 66.1657 9.3243 67.7955 8.79431 69.4177C8.63853 69.8974 8.09742 71.5335 7.80285 72.3938C7.22308 74.0834 10.0101 73.6945 10.7989 73.7507C12.3168 73.8579 13.8576 73.8614 15.3785 73.8274C16.442 73.8035 17.5037 73.7788 18.5672 73.7548C19.0737 73.7437 19.5809 73.7355 20.0869 73.7202C20.9348 73.6951 21.7828 73.6606 22.6302 73.6295C23.6416 73.5914 24.6471 73.575 25.6597 73.575H27.1904C28.5854 73.575 29.9792 73.5792 31.3742 73.5756C33.904 73.5698 36.4264 73.5692 38.9533 73.6916C41.0533 73.7928 43.151 73.8064 45.2522 73.7718C45.9292 73.7607 48.6271 74.0289 48.1147 72.4694Z" fill="var(--fill-0, black)"/>
<path id="Vector_4" fill-rule="evenodd" clip-rule="evenodd" d="M26.9978 32.022C26.9978 32.022 26.4538 31.6594 26.2049 32.1127C26.1287 32.2509 23.6451 35.7271 20.8547 41.4792C20.7522 41.6917 20.8435 41.9717 21.1416 41.9143C21.2171 41.8996 25.388 41.2853 33.2013 41.9196C33.329 41.9301 33.483 41.8657 33.4134 41.659C32.9144 40.1668 28.8337 33.178 26.9978 32.022Z" fill="var(--fill-0, #FE3937)"/>
<path id="Vector_5" fill-rule="evenodd" clip-rule="evenodd" d="M30.6855 40.8043C30.6638 40.8043 30.6416 40.8037 30.6199 40.8037C30.3336 40.7978 29.4773 40.7434 29.6044 40.2357C29.6852 39.9165 30.4056 39.9282 30.658 39.8972C30.8319 39.8761 30.9988 39.8779 31.1733 39.8779C31.3981 39.8773 31.9258 39.8896 32.0851 40.091C32.1665 40.1958 32.1243 40.3628 32.1243 40.5091C32.1243 40.6509 31.4275 40.7604 31.3303 40.7709C31.1171 40.7949 30.9004 40.8055 30.6855 40.8043ZM28.8706 40.299C28.8308 40.4002 28.1884 40.4243 28.0795 40.4436C27.4194 40.559 26.7366 40.7464 26.0643 40.6216C25.8265 40.5771 25.3581 40.3798 25.4049 40.067C25.4646 39.6723 26.4924 39.7478 26.7582 39.7432C27.0154 39.7379 29.0867 39.732 28.8706 40.299ZM23.7078 37.827C23.6755 37.6618 23.8027 37.485 23.9414 37.4041C24.185 37.2625 24.4949 37.2496 24.7689 37.2431C25.108 37.2356 25.4412 37.2695 25.7739 37.3315C26.0368 37.3808 26.4924 37.4001 26.7167 37.5447C26.7817 37.5863 26.8028 37.6712 26.8239 37.7532C26.8673 37.9136 25.7663 38.0806 25.6567 38.0911C25.1636 38.1398 24.181 38.3939 23.7833 37.9711C23.7412 37.926 23.7172 37.8768 23.7078 37.827ZM24.8193 40.3416C24.8076 40.4283 24.2383 40.5296 24.1382 40.5531C23.9063 40.6052 23.6721 40.6509 23.4361 40.679C22.9377 40.7399 22.0534 40.8148 21.7513 40.299C21.6505 40.1255 21.9756 39.8703 22.1026 39.831C22.2859 39.773 22.4874 39.8029 22.6759 39.8023C23.35 39.7977 24.0416 39.7081 24.6729 40.0073C24.7788 40.091 24.8392 40.1958 24.8193 40.3416ZM25.9255 35.0827C26.1235 35.0266 26.3542 35.0652 26.5515 35.0529C26.794 35.0388 27.0365 35.0435 27.2777 35.0722C27.4945 35.0992 28.4677 35.2111 28.4589 35.5489C28.4466 36.0133 26.5627 36.0075 26.2072 35.9694C26.0204 35.9501 25.7288 35.9155 25.6186 35.7351C25.5074 35.5525 25.6186 35.2491 25.7844 35.1443C25.8289 35.1167 25.8758 35.0963 25.9255 35.0827ZM30.6222 37.6496C30.6855 37.7954 30.5197 37.8996 30.4343 37.9412C29.8182 38.0466 29.1933 38.0706 28.5702 38.1058C28.3336 38.1186 28.0959 38.1772 27.8575 38.1486C27.6261 38.1198 27.3187 37.9236 27.512 37.6496C27.7234 37.3497 27.9565 37.2894 28.3149 37.2759C28.8144 37.2572 29.3198 37.2689 29.817 37.3286C30.0553 37.3567 30.5103 37.3901 30.6222 37.6496Z" fill="var(--fill-0, black)"/>
<path id="Vector_6" fill-rule="evenodd" clip-rule="evenodd" d="M45.1543 69.3457C44.6899 68.3859 44.2091 67.436 43.7026 66.4913C42.9226 65.0367 42.1495 63.5779 41.3747 62.1215C41.2002 61.7918 41.0315 61.4591 40.8482 61.1347C40.286 60.1333 39.766 59.1102 39.1388 58.1287C38.5778 57.2485 38.2288 56.4743 37.6811 55.5813C37.0985 54.629 36.4725 53.6774 35.8383 52.6191C35.6772 52.3521 35.4617 51.6142 35.0219 51.6529C34.3953 51.7079 33.3628 51.6915 32.7327 51.7061C30.1589 51.7688 27.5839 51.736 25.0095 51.7852C24.2528 51.7992 23.4962 51.8174 22.7396 51.8403C21.4852 51.8789 20.3643 51.7729 19.0344 51.8947C18.7597 51.9193 18.5413 52.2936 18.4324 52.5067C18.2385 52.8845 18.0224 53.2504 17.8104 53.6182C17.3841 54.3584 16.949 55.0963 16.5965 55.8752C15.4474 58.5046 14.2592 61.082 13.194 63.8063C12.2342 65.9749 10.4357 69.9507 10.0381 70.9C9.61231 71.9183 9.79681 72.2673 12.038 72.0483C12.7758 71.9757 16.6292 71.9494 18.9126 71.8715C21.1332 71.7954 23.365 71.7133 25.5869 71.7327C27.8433 71.7526 30.1003 71.8399 32.3561 71.9295C34.0375 71.9974 35.7206 72.0079 37.403 72.036C38.8255 72.0612 40.248 72.0805 41.6699 72.1022C41.9609 72.1063 42.2508 72.1099 42.5413 72.1145C43.2306 72.1034 43.9169 72.1842 44.6026 72.2222C46.0861 72.303 46.5481 72.1263 45.8576 70.8331C45.5988 70.3494 45.3926 69.8393 45.1543 69.3457Z" fill="var(--fill-0, #FE3937)"/>
<path id="Vector_7" fill-rule="evenodd" clip-rule="evenodd" d="M43.0415 69.3669C42.7874 69.641 41.6026 69.62 41.4627 69.637C40.692 69.7329 39.8704 69.9069 39.1056 69.6826C38.5235 69.5116 38.295 69.1907 38.9738 68.8814C39.4587 68.6619 39.9617 68.7948 40.4735 68.7936C40.9708 68.7913 41.4738 68.7192 41.9698 68.7836C42.2339 68.8176 42.8465 68.875 43.0186 69.0917C43.1112 69.2077 43.1071 69.2973 43.0415 69.3669ZM37.9917 65.1393C38.1123 65.0978 38.2446 65.0808 38.3548 65.0697C38.6997 65.0363 39.0546 65.0286 39.4013 65.0427C40.1017 65.0703 40.7992 65.2132 41.496 65.2904C41.66 65.3091 42.2538 65.2764 42.2702 65.5206C42.2872 65.7718 41.7772 65.8866 41.6079 65.9346C40.637 66.2145 39.6162 66.3533 38.6194 66.1161C38.3155 66.0441 37.4611 65.8637 37.6661 65.4C37.7264 65.264 37.8517 65.1856 37.9917 65.1393ZM34.2783 62.3272C34.2408 62.2434 34.2595 62.1351 34.3696 61.9951C34.6179 61.6836 35.1403 61.6689 35.5016 61.6825C36.4638 61.7175 37.4289 61.6273 38.3881 61.7363C38.6265 61.7639 38.9515 61.6994 39.1553 61.8522C39.2262 61.9043 39.3685 62.0648 39.3937 62.1462C39.4546 62.3494 39.1729 62.3565 39.0288 62.3735C38.3366 62.4566 37.6491 62.5726 36.9563 62.6522C36.3104 62.7266 35.7253 62.716 35.0811 62.6341C34.8545 62.6054 34.3755 62.5468 34.2783 62.3272ZM36.3836 69.3564C36.3836 69.5719 33.6036 69.7845 33.3494 69.7775C33.1146 69.7722 32.4271 69.7927 32.3035 69.5104C31.9674 68.7391 34.0328 68.7099 34.3374 68.7099C35.0272 68.7099 35.7997 68.8153 36.3836 69.2112V69.3564ZM32.0482 65.5276C32.0611 65.4837 32.0851 65.4415 32.1226 65.4035C32.2918 65.2302 32.5629 65.1821 32.7884 65.1236C33.3957 64.966 34.034 65.0117 34.6507 65.0837C35.0014 65.1236 35.3417 65.1939 35.6878 65.2577C35.867 65.2892 36.4228 65.2835 36.2828 65.6037C36.1979 65.8016 35.9075 65.811 35.7259 65.8222C35.4471 65.8374 35.1713 65.8679 34.8955 65.9107C34.3339 65.9978 33.7722 66.105 33.2025 66.1174C32.912 66.1243 32.5799 66.1168 32.3088 65.9984C32.1255 65.9194 31.9955 65.7074 32.0482 65.5276ZM30.7657 65.7355C30.7247 65.7502 30.6819 65.7613 30.6416 65.7678C30.3791 65.8157 30.1162 65.8304 29.8556 65.8931C29.3368 66.0166 28.8138 66.1349 28.2803 66.1683C27.9769 66.1876 27.5916 66.2128 27.3146 66.0617C27.0757 65.9311 27.0921 65.6769 27.1776 65.455C27.3415 65.2172 27.7099 65.1335 27.9799 65.1024C28.4238 65.0515 28.8759 65.1124 29.3203 65.1417C29.6085 65.1604 29.8972 65.1763 30.1865 65.1862C30.4618 65.195 31.0158 65.0292 30.9994 65.4597C30.9935 65.6055 30.8869 65.6893 30.7657 65.7355ZM30.5203 69.2528C29.0164 69.6914 27.136 69.9203 25.5701 69.4607C25.1888 69.2393 25.7598 68.885 25.9302 68.8048C26.336 68.6138 26.7641 68.6566 27.1999 68.6601C27.796 68.6636 28.3957 68.6168 28.9919 68.6531C29.178 68.6648 30.5203 68.8218 30.5203 69.1057V69.2528ZM25.3264 65.3279C25.0125 65.7554 24.2143 65.66 23.7523 65.7513C22.8914 65.9247 22.0757 66.1625 21.1849 66.0494C20.9764 66.0225 20.679 65.9621 20.5512 65.7777C20.3879 65.5399 20.5852 65.1956 20.8265 65.0936C21.3658 64.8659 21.9966 64.9619 22.5717 64.9566C23.1766 64.9496 23.7816 64.939 24.3859 64.9683C24.6453 64.9812 24.9095 64.9824 25.1666 65.0152C25.296 65.0321 25.402 65.1159 25.3621 65.2547C25.3539 65.2834 25.3422 65.3074 25.3264 65.3279ZM23.9075 69.1168C23.8184 69.5063 23.0126 69.4683 22.7245 69.4823C22.0856 69.5128 21.4713 69.7178 20.83 69.7213C20.2772 69.7247 19.5709 69.5537 19.1001 69.2528C19.0807 69.0654 19.1422 68.8979 19.2454 68.7509C19.9908 68.4434 20.837 68.464 21.6258 68.5377C22.0387 68.5763 22.4504 68.6203 22.8609 68.6707C23.0958 68.6982 23.9906 68.7333 23.9075 69.1168ZM14.801 62.8015C14.5715 62.6347 14.6757 62.4051 14.801 62.2388C15.2801 61.8229 15.991 62.0098 16.5966 61.8833C17.4727 61.8833 18.3282 61.8833 19.1001 62.0929C19.226 62.1761 19.3092 62.3225 19.2043 62.4472C17.868 62.8654 16.2405 63.3655 14.801 62.8015ZM18.631 65.6699C18.5238 65.8234 18.1532 65.8971 18.0355 65.9275C17.6607 66.0248 17.3017 66.1753 16.9245 66.2596C16.3108 66.395 15.666 66.4107 15.0435 66.4816C14.6646 66.5255 14.2108 66.5407 13.8617 66.3604C13.6702 66.2603 13.5647 66.0798 13.5735 65.8603C13.5929 65.3712 14.3296 65.3115 14.6787 65.2781C15.2614 65.2219 15.8692 65.1956 16.4537 65.1939C16.9878 65.1926 17.5207 65.2453 18.0472 65.3291C18.1859 65.3507 18.6163 65.3836 18.6562 65.5464C18.6662 65.5914 18.6568 65.6324 18.631 65.6699ZM17.1523 68.8205C17.1458 68.8293 17.1394 68.8381 17.133 68.8475C16.8004 69.2867 15.6057 69.3348 15.1091 69.4026C14.6687 69.463 14.2248 69.4993 13.7827 69.5285C13.2936 69.5608 12.7789 69.7728 12.3028 69.5625C11.9356 69.4015 12.0849 69.0261 12.3128 68.8457C12.6349 68.5886 13.1173 68.5248 13.508 68.4546C14.4695 68.2812 15.4482 68.3222 16.4191 68.3983C16.6978 68.4182 17.4152 68.43 17.1523 68.8205ZM17.0633 57.8202C17.3268 57.7342 17.6536 57.7149 17.8246 57.7049C18.4471 57.6679 19.0667 57.6767 19.6886 57.6949C20.0084 57.7042 20.3955 57.6591 20.7076 57.73C20.9231 57.7793 21.3032 57.764 21.4514 57.9561C21.5989 58.1482 21.3108 58.3327 21.1526 58.3954C20.5531 58.6325 19.8169 58.6424 19.1833 58.6946C18.5385 58.7467 17.8873 58.7555 17.2442 58.6905C17.0335 58.6466 16.8472 58.5652 16.6996 58.3778C16.5836 58.0733 16.7892 57.9098 17.0633 57.8202ZM19.6013 54.4335C20.3768 53.8398 21.4021 53.852 22.3257 53.9399C22.5892 53.9645 22.851 54.0025 23.1139 54.0336C23.3066 54.0564 23.5298 54.0354 23.7101 54.1179C24.1119 54.3007 23.5292 54.6643 23.371 54.734C23.0179 54.8927 22.6279 54.9518 22.2496 55.0162C21.8098 55.0907 21.3612 55.1111 20.9173 55.0913C20.5296 55.0748 20.0746 55.0637 19.7068 54.9319C19.476 54.85 19.5387 54.5566 19.6013 54.4335ZM25.3557 62.1755C25.1917 62.2235 24.9827 62.2312 24.8925 62.2352C24.5581 62.2464 24.233 62.3366 23.9057 62.3945C23.289 62.5029 22.673 62.6106 22.0446 62.5825C21.7987 62.5726 20.9062 62.5315 20.9694 62.1175C21.0479 61.6127 21.917 61.4892 22.3111 61.4475C22.8802 61.3867 23.4495 61.4277 24.0164 61.4833C24.2506 61.5062 25.7018 61.6297 25.573 62.0239C25.5484 62.0976 25.4611 62.1445 25.3557 62.1755ZM25.7604 57.6897C26.0221 57.7078 27.0488 57.8946 26.7407 58.3555C26.6071 58.5558 26.3085 58.5687 26.0936 58.5786C25.5256 58.6067 24.9616 58.6881 24.3952 58.7373C23.8969 58.7807 23.2323 58.8778 22.7543 58.6905C22.5447 58.6079 22.6062 58.3362 22.7122 58.1892C23.504 57.4994 24.7788 57.6258 25.7604 57.6897ZM25.0875 54.1536C25.3896 54.0096 25.8458 54.081 26.1381 54.0722C26.674 54.0553 27.2238 54.0875 27.7556 54.1584C28.0279 54.1941 28.6931 54.1882 28.7231 54.5401C28.7529 54.9178 28.1468 54.905 27.9167 54.9144C27.4112 54.9354 26.9141 55.0391 26.4092 55.0607C26.0438 55.0772 25.6544 55.025 25.3077 54.9039C25.0728 54.8213 24.6447 54.6251 24.8978 54.3013C24.9487 54.2368 25.0131 54.1894 25.0875 54.1536ZM32.0897 62.1486C31.9369 62.2012 31.7279 62.206 31.6482 62.223C31.3226 62.2897 31.0005 62.3383 30.6714 62.3817C29.7789 62.5034 28.8946 62.4625 27.9992 62.4876C27.854 62.4912 27.6642 62.5122 27.5465 62.408C27.1577 62.0648 27.8118 61.69 28.0642 61.6057C28.5585 61.4393 29.109 61.4089 29.626 61.43C29.9242 61.4423 30.2217 61.4599 30.5197 61.4745C30.8635 61.4897 31.2002 61.5541 31.5328 61.6361C31.7326 61.6859 32.2444 61.6525 32.2637 61.96C32.2702 62.0566 32.1923 62.1135 32.0897 62.1486ZM32.3275 58.0118C32.4833 58.0498 32.6321 58.1447 32.5354 58.3274C32.4452 58.499 32.1243 58.6354 31.9416 58.6747C31.6921 58.7286 31.4251 58.7408 31.1709 58.7754C30.8535 58.8187 30.535 58.8539 30.2146 58.8808C29.8409 58.9118 29.4656 58.9628 29.089 58.9481C28.8777 58.9405 28.2451 58.9189 28.1802 58.6272C27.9623 57.6328 30.0512 57.8202 30.5273 57.8677C31.0825 57.921 31.6312 57.9649 32.187 57.9912C32.2297 57.9936 32.2783 58 32.3275 58.0118ZM30.4477 54.3832C30.7282 54.0617 31.4233 54.0184 31.7577 53.988C32.1372 53.9522 32.5202 53.9674 32.9009 53.9903C33.2276 54.009 33.6188 53.9786 33.9262 54.0998C34.0949 54.1653 34.7731 54.3768 34.6911 54.6456C34.6267 54.8546 34.0961 54.8283 33.931 54.8389C33.4601 54.8687 32.9928 54.9413 32.5208 54.9624C31.9158 54.9876 31.3343 54.9671 30.7312 54.9184C30.549 54.9038 30.2784 54.85 30.3411 54.587C30.3598 54.5091 30.3973 54.44 30.4477 54.3832ZM37.9389 58.2355C37.9507 58.26 37.953 58.2852 37.9413 58.3098C37.8898 58.4205 37.5811 58.5213 37.4687 58.5417C37.1185 58.6032 36.7613 58.6103 36.4094 58.66C36.0445 58.7121 35.6779 58.7637 35.309 58.7818C34.8955 58.8023 34.1342 58.8621 33.808 58.5446C33.6593 58.3994 33.747 58.164 33.8812 58.0311C34.1442 57.7705 34.5834 57.7945 34.9225 57.8103C35.3535 57.8314 35.771 57.8179 36.2026 57.8103C36.5036 57.8056 36.8087 57.8214 37.1056 57.8776C37.2198 57.8987 37.8517 58.058 37.9389 58.2355Z" fill="var(--fill-0, black)"/>
<path id="Vector_8" fill-rule="evenodd" clip-rule="evenodd" d="M187.341 44.4057H187.657C187.854 44.4057 188.003 44.3788 188.003 44.1622C188.003 43.9724 187.799 43.9455 187.642 43.9455H187.341V44.4057ZM186.995 43.6686H187.659C188.104 43.6686 188.354 43.8082 188.354 44.1931C188.354 44.5173 188.15 44.6452 187.889 44.665L188.358 45.4383H187.992L187.565 44.6796H187.341V45.4383H186.995V43.6686ZM187.619 45.8016C188.279 45.8016 188.811 45.2772 188.811 44.5558C188.811 43.8374 188.279 43.3176 187.619 43.3176C186.957 43.3176 186.435 43.8374 186.435 44.5558C186.435 45.2772 186.957 45.8016 187.619 45.8016ZM187.619 42.9806C188.476 42.9806 189.241 43.5945 189.241 44.5558C189.241 45.516 188.476 46.1345 187.619 46.1345C186.766 46.1345 186.001 45.516 186.001 44.5558C186.001 43.5945 186.766 42.9806 187.619 42.9806Z" fill="var(--fill-0, black)"/>
<path id="Vector_9" fill-rule="evenodd" clip-rule="evenodd" d="M52.8321 47.4996H52.883L59.6605 39.2392H62.499V39.981C62.499 40.7227 61.1954 40.3641 59.6605 42.2313L55.6707 47.0393C58.0496 50.0823 61.6556 54.5329 62.6275 55.4791C63.0363 55.8885 63.8289 56.298 63.8289 56.5531V57.1413H60.658C59.5839 57.1413 59.0723 56.3744 57.896 54.9932L52.883 48.3441H52.8321V54.405C52.8321 55.5042 53.2159 55.6829 54.4687 55.9644C54.8016 56.0158 54.8524 56.2202 54.7502 56.4252L54.5458 56.9368C54.4687 57.0642 54.3408 57.1413 54.1113 57.1413H47.6148C47.4109 57.1413 47.1545 57.0899 47.2824 56.7062L47.4361 56.2716C47.5382 55.9902 47.7426 55.9645 47.9226 55.9142C48.5609 55.7857 49.2261 55.3757 49.2261 54.405V41.9756C49.2261 40.8758 48.8424 40.697 47.589 40.4155C47.2567 40.3641 47.2053 40.1603 47.3075 39.9547L47.5131 39.4436C47.5891 39.3158 47.7169 39.2392 47.9477 39.2392H54.4436C54.648 39.2392 54.9033 39.2907 54.7759 39.6744L54.6223 40.1083C54.5201 40.3898 54.3157 40.4155 54.1369 40.467C53.4968 40.5942 52.8321 41.0037 52.8321 41.9756V47.4996Z" fill="var(--fill-0, black)"/>
<path id="Vector_10" fill-rule="evenodd" clip-rule="evenodd" d="M68.5801 38.7301C69.6034 38.7301 70.473 39.5997 70.473 40.6224C70.473 41.5949 69.6034 42.5148 68.6058 42.5148C67.5574 42.5148 66.6877 41.6709 66.6877 40.6224C66.6877 39.574 67.5574 38.7301 68.5801 38.7301ZM66.8664 47.0932C66.8664 45.9929 66.4833 45.8142 65.307 45.5583C65.0511 45.4818 64.7954 45.379 64.9484 45.0724L65.1791 44.5607C65.2556 44.3563 65.4086 44.3563 65.5622 44.3563H70.2686V54.4069C70.2686 55.5066 70.6511 55.6853 71.9052 55.9669C72.2375 56.0182 72.2889 56.2233 72.1861 56.4271L71.9811 56.9388C71.9052 57.0673 71.7772 57.1438 71.5466 57.1438H65.2556C65.0511 57.1438 64.7954 57.0924 64.9226 56.7087L65.0768 56.2741C65.1791 55.9926 65.3829 55.9669 65.5622 55.9161C66.2018 55.7882 66.8664 55.3788 66.8664 54.4069V47.0932Z" fill="var(--fill-0, black)"/>
<path id="Vector_11" fill-rule="evenodd" clip-rule="evenodd" d="M78.6616 46.8357H78.7123C79.8892 44.9176 82.0882 44.048 83.751 44.048C86.0265 44.048 87.3821 45.3773 87.3821 48.4208V54.4052C87.3821 55.5049 87.7659 55.6842 89.0192 55.9651C89.351 56.0165 89.403 56.2216 89.3002 56.4254L89.0958 56.937C89.0192 57.065 88.8907 57.142 88.6612 57.142H82.5233C82.3446 57.142 82.1139 57.0912 82.2161 56.707L82.3697 56.2724C82.472 55.9908 82.6507 55.9651 82.8043 55.9144C83.393 55.7864 83.9806 55.3771 83.9806 54.4052V49.8022C83.9806 46.9887 83.2651 46.2984 81.986 46.2984C80.1953 46.2984 78.6616 48.0885 78.6616 52.9473V54.4052C78.6616 55.5049 78.9939 55.6842 80.1451 55.9651C80.4265 56.0165 80.4774 56.2216 80.4008 56.4254L80.1953 56.937C80.145 57.065 80.0171 57.142 79.8121 57.142H73.6485C73.4447 57.142 73.1882 57.0912 73.3168 56.707L73.4698 56.2724C73.5714 55.9908 73.777 55.9651 73.9551 55.9144C74.5947 55.7864 75.2599 55.3771 75.2599 54.4052V47.0915C75.2599 45.9912 74.8763 45.8124 73.6999 45.5566C73.4447 45.4801 73.1882 45.3773 73.3424 45.0706L73.5715 44.559C73.6485 44.3552 73.8021 44.3552 73.9551 44.3552H78.0477C78.3292 44.3552 78.6616 44.3295 78.6616 44.8662V46.8357Z" fill="var(--fill-0, black)"/>
<path id="Vector_12" fill-rule="evenodd" clip-rule="evenodd" d="M93.4939 50.8256C93.4939 53.3061 94.6189 55.3007 96.256 55.3007C98.0715 55.3007 99.6829 53.639 99.6829 49.7264C99.6829 46.9895 99.2223 45.3775 97.2537 45.3775C94.8753 45.3775 93.4939 48.2172 93.4939 50.8256ZM99.6829 54.6617H99.6317C98.8381 56.119 97.075 57.4489 95.1819 57.4489C92.2663 57.4489 89.8874 54.9176 89.8874 51.3372C89.8874 47.4754 93.0845 44.0487 97.5085 44.0487C98.1487 44.0487 98.8381 44.1761 99.6578 44.3554V41.0823C99.6578 39.9819 99.2735 39.8032 98.0975 39.5474C97.8407 39.4702 97.5868 39.3681 97.7393 39.0609L97.9691 38.5498C98.0463 38.3453 98.1999 38.3453 98.3524 38.3453H102.369C102.88 38.3453 103.084 38.6263 103.084 39.1379V54.3288C103.084 55.2499 103.315 55.4549 103.902 55.6844C104.286 56.0173 104.875 55.9408 104.67 56.4519L104.541 56.9378C104.44 57.1171 104.26 57.1422 104.031 57.1422H100.399C99.8876 57.1422 99.6829 56.8608 99.6829 56.3502V54.6617Z" fill="var(--fill-0, black)"/>
<path id="Vector_13" fill-rule="evenodd" clip-rule="evenodd" d="M113.096 49.4698C113.786 49.4698 114.093 49.0603 114.093 48.3449C114.093 46.0425 112.917 45.3008 111.818 45.3008C110.002 45.3008 108.928 47.3205 108.928 49.4698H113.096ZM108.928 50.8505C108.928 53.3567 110.18 55.6836 112.763 55.6836C114.272 55.6836 115.091 55.0961 115.987 54.1242C116.242 53.8941 116.983 54.2264 116.778 54.6352L115.961 56.2981C115.833 56.5276 115.705 56.7834 115.424 56.9376C114.836 57.2186 113.429 57.4487 112.432 57.4487C107.878 57.4487 105.322 54.3794 105.322 50.8756C105.322 46.6049 108.083 44.048 111.869 44.048C115.346 44.048 117.11 46.4011 117.11 49.8278C117.11 50.2881 116.882 50.8505 116.523 50.8505H108.928Z" fill="var(--fill-0, black)"/>
<path id="Vector_14" fill-rule="evenodd" clip-rule="evenodd" d="M123.837 46.6564H123.887C124.936 45.1729 126.164 44.048 127.289 44.048C128.005 44.048 128.44 44.3797 128.542 44.6618L129.053 46.5793C129.079 46.6564 129.053 46.758 129.003 46.8094L128.005 47.6277C127.724 47.9863 127.238 47.4496 126.522 47.2439C125.345 46.8859 124.655 47.1931 124.297 47.8064C123.684 48.8303 123.811 49.9809 123.811 51.2851V54.4052C123.811 55.5049 124.322 55.6836 125.958 55.9646C126.419 56.0165 126.47 56.221 126.343 56.426L126.062 56.937C125.958 57.065 125.806 57.142 125.499 57.142H118.798C118.594 57.142 118.338 57.0907 118.466 56.7064L118.619 56.2718C118.721 55.9908 118.927 55.9646 119.105 55.9144C119.744 55.7864 120.41 55.3764 120.41 54.4052V47.0909C120.41 45.9917 120.025 45.8119 118.849 45.5566C118.594 45.4801 118.338 45.3767 118.491 45.0706L118.721 44.559C118.798 44.3546 118.952 44.3546 119.105 44.3546H123.222C123.503 44.3546 123.837 44.3289 123.837 44.8657V46.6564Z" fill="var(--fill-0, black)"/>
<path id="Vector_15" fill-rule="evenodd" clip-rule="evenodd" d="M145.455 56.094C145.301 56.3505 145.199 56.6057 144.943 56.7587C144.329 57.1424 142.309 57.4496 139.956 57.4496C134.125 57.4496 130.136 53.6135 130.136 48.0381C130.136 43.0257 134.33 38.9337 139.853 38.9337C142.923 38.9337 145.072 40.0078 145.865 40.4938C146.068 40.5959 146.068 40.7496 146.068 40.9283V42.5654C146.068 42.6677 145.992 42.7698 145.916 42.8464L145.224 43.3323C144.841 43.6139 143.997 40.5959 139.879 40.5959C136.018 40.5959 133.997 43.6652 133.997 47.8337C133.997 52.9477 136.99 55.7868 140.467 55.7868C142.207 55.7868 144.126 55.3523 145.531 54.023C145.916 53.6643 146.478 53.9972 146.248 54.3804L145.455 56.094Z" fill="var(--fill-0, black)"/>
<path id="Vector_16" fill-rule="evenodd" clip-rule="evenodd" d="M151.054 50.8248C151.054 53.3053 151.975 55.2999 153.561 55.2999C155.07 55.2999 157.192 52.9987 157.192 49.367C157.192 47.1931 156.86 45.3767 154.763 45.3767C152.385 45.3767 151.054 48.2164 151.054 50.8248ZM157.192 54.1242H157.141C156.323 56.0165 154.302 57.4481 152.385 57.4481C149.315 57.4481 147.448 54.5845 147.448 51.5152C147.448 47.4747 150.595 44.048 155.07 44.048C156.784 44.048 158.011 44.3289 159.11 44.7383C159.903 45.0706 160.594 45.2243 160.594 46.8865V54.328C160.594 55.2491 160.824 55.4541 161.413 55.6836C161.797 56.0165 162.385 55.94 162.179 56.4511L162.051 56.937C161.949 57.1163 161.77 57.1414 161.54 57.1414H157.908C157.397 57.1671 157.192 56.8599 157.192 56.3494V54.1242Z" fill="var(--fill-0, black)"/>
<path id="Vector_17" fill-rule="evenodd" clip-rule="evenodd" d="M168.624 46.6564H168.675C169.723 45.1729 170.951 44.048 172.076 44.048C172.792 44.048 173.227 44.3797 173.329 44.6618L173.84 46.5793C173.866 46.6564 173.84 46.758 173.789 46.8094L172.792 47.6277C172.511 47.9863 172.025 47.4496 171.309 47.2439C170.133 46.8859 169.442 47.1931 169.084 47.8064C168.471 48.8303 168.598 49.9809 168.598 51.2851V54.4052C168.598 55.5049 169.109 55.6836 170.746 55.9646C171.206 56.0165 171.258 56.221 171.129 56.426L170.849 56.937C170.746 57.065 170.593 57.142 170.286 57.142H163.585C163.381 57.142 163.125 57.0907 163.253 56.7064L163.406 56.2718C163.508 55.9908 163.713 55.9646 163.893 55.9144C164.531 55.7864 165.197 55.3764 165.197 54.4052V47.0909C165.197 45.9917 164.814 45.8119 163.637 45.5566C163.381 45.4801 163.125 45.3767 163.279 45.0706L163.508 44.559C163.585 44.3546 163.739 44.3546 163.893 44.3546H168.011C168.291 44.3546 168.624 44.3289 168.624 44.8657V46.6564Z" fill="var(--fill-0, black)"/>
<path id="Vector_18" fill-rule="evenodd" clip-rule="evenodd" d="M181.488 49.4698C182.18 49.4698 182.486 49.0603 182.486 48.3449C182.486 46.0425 181.309 45.3008 180.209 45.3008C178.393 45.3008 177.319 47.3205 177.319 49.4698H181.488ZM177.319 50.8505C177.319 53.3567 178.572 55.6836 181.155 55.6836C182.664 55.6836 183.482 55.0961 184.378 54.1242C184.634 53.8941 185.375 54.2264 185.171 54.6352L184.353 56.2981C184.225 56.5276 184.096 56.7834 183.815 56.9376C183.226 57.2186 181.82 57.4487 180.823 57.4487C176.271 57.4487 173.713 54.3794 173.713 50.8756C173.713 46.6049 176.475 44.048 180.261 44.048C183.738 44.048 185.503 46.4011 185.503 49.8278C185.503 50.2881 185.272 50.8505 184.915 50.8505H177.319Z" fill="var(--fill-0, black)"/>
<path id="Vector_19" fill-rule="evenodd" clip-rule="evenodd" d="M55.4628 72.9768C55.5078 72.8518 55.5995 72.8401 55.6801 72.8167C55.9651 72.7706 56.263 72.6 56.263 72.211V66.4511C56.263 66.0042 56.0907 65.9365 55.5311 65.8226C55.3828 65.7998 55.3601 65.7081 55.4055 65.6159L55.4967 65.4108C55.5311 65.3647 55.589 65.3309 55.6912 65.3309H58.0917C58.1822 65.3309 58.2978 65.3542 58.2406 65.5031L58.1711 65.6847C58.1256 65.8109 58.0344 65.8226 57.9544 65.8454C57.6688 65.8904 57.3715 66.062 57.3715 66.4511V71.6509C57.3715 72.6106 57.5765 72.7146 58.0683 72.7146H59.0747C60.2521 72.7146 60.4121 71.7655 60.5716 71.811L60.8572 71.9026C60.9028 71.9132 60.9262 71.9599 60.9262 72.0049V73.0451C60.9262 73.2279 60.7088 73.3307 60.4004 73.3307H55.5434C55.4517 73.3307 55.3373 73.3085 55.3945 73.1601L55.4628 72.9768Z" fill="var(--fill-0, black)"/>
<path id="Vector_20" fill-rule="evenodd" clip-rule="evenodd" d="M64.3207 68.6793H66.9602C67.109 68.6793 67.1669 68.7482 67.109 68.8515L66.9491 69.1365C66.8813 69.2633 66.7669 69.2966 66.584 69.2966H64.3207V71.6509C64.3207 72.6106 64.527 72.7146 65.0175 72.7146H66.0233C67.2014 72.7146 67.3609 71.766 67.5208 71.811L67.8059 71.9026C67.8526 71.9132 67.8748 71.9599 67.8748 72.0049V73.0451C67.8748 73.2279 67.6581 73.3307 67.3497 73.3307H63.8179C63.4639 73.3307 63.2128 73.3424 63.2128 72.5428V66.5416C63.2128 66.0965 62.9827 65.9248 62.492 65.846C62.3204 65.8121 62.2175 65.7759 62.2748 65.6509L62.3665 65.4558C62.4121 65.3542 62.492 65.3309 62.561 65.3309H67.0291C67.2463 65.3309 67.3835 65.4558 67.3609 65.6159V66.4511C67.3609 66.4849 67.3381 66.5194 67.3036 66.5533L67.0979 66.7255C66.9269 66.8628 66.7558 65.9482 65.9894 65.9482H64.3207V68.6793Z" fill="var(--fill-0, black)"/>
<path id="Vector_21" fill-rule="evenodd" clip-rule="evenodd" d="M74.3548 70.2802L73.0295 66.829L71.6809 70.2802H74.3548ZM77.178 73.2402C77.132 73.3191 77.0069 73.3307 76.9146 73.3307H74.6515C74.5486 73.3307 74.4353 73.2974 74.5037 73.1707L74.6065 72.9546C74.6981 72.7829 75.3149 72.8856 75.0749 72.2116L74.5954 70.8975H71.463L70.9035 72.3261C70.6862 72.8734 71.5892 72.7712 71.4408 73.0346L71.3719 73.149C71.3374 73.2057 71.3035 73.3307 71.1436 73.3307H69.4294C69.2115 73.3307 68.9714 73.3658 69.0748 73.1257L69.1314 72.9774C69.1653 72.8856 69.257 72.8623 69.4294 72.8173C69.9089 72.7146 69.9895 72.6468 70.2289 72.1206L72.3315 66.8389C72.5377 66.3249 72.2515 66.1543 72.126 66.0398C71.8637 65.8115 71.3263 65.8798 71.4864 65.6059L71.5437 65.4459C71.5892 65.3425 71.692 65.3309 71.817 65.3309H73.4634C73.6235 65.3309 73.7146 65.4803 73.7497 65.6515C74.5375 67.9369 75.4972 70.2562 76.2634 72.1206C76.4918 72.6918 76.5256 72.6345 77.1547 72.8062C77.2803 72.8407 77.3381 72.9195 77.3148 72.9885L77.178 73.2402Z" fill="var(--fill-0, black)"/>
<path id="Vector_22" fill-rule="evenodd" clip-rule="evenodd" d="M80.8005 69.2288H81.5896C82.4692 69.2505 83.2349 68.6787 83.2121 67.4218C83.1888 66.2787 82.6071 65.9476 81.8174 65.9476H80.8005V69.2288ZM85.3492 73.3307H84.0351C83.8523 73.3307 83.7722 73.1485 83.7261 73.0568L81.9891 69.8456H80.8005V72.2105C80.8005 72.6561 80.9728 72.7251 81.5318 72.8395C81.6807 72.8623 81.7035 72.954 81.6574 73.0451L81.5656 73.2513C81.5318 73.2969 81.4757 73.3307 81.3718 73.3307H78.9718C78.8807 73.3307 78.7668 73.308 78.8229 73.1596L78.8924 72.9762C78.938 72.8523 79.029 72.8395 79.1091 72.8161C79.3947 72.7706 79.692 72.5995 79.692 72.2105V66.5416C79.692 66.0959 79.463 65.9243 78.9718 65.846C78.8001 65.8115 78.6979 65.7764 78.7551 65.6509L78.8468 65.4558C78.8924 65.3542 78.9718 65.3309 79.0407 65.3309H82.0463C83.43 65.3309 84.3095 65.9243 84.3201 67.319C84.3201 68.1991 83.715 69.0566 82.916 69.5133C84.0006 71.3414 84.8346 72.7595 85.3492 72.9996V73.3307Z" fill="var(--fill-0, black)"/>
<path id="Vector_23" fill-rule="evenodd" clip-rule="evenodd" d="M93.5103 66.4511C93.5103 66.0054 93.3386 65.9371 92.7796 65.8226C92.6301 65.7998 92.6074 65.7081 92.6529 65.6159L92.744 65.4108C92.7796 65.3647 92.8369 65.3309 92.9385 65.3309H94.9389C95.0301 65.3309 95.1445 65.3548 95.0873 65.5031L95.019 65.6854C94.9734 65.8121 94.8817 65.8226 94.8022 65.8465C94.5166 65.8909 94.2187 66.0626 94.2187 66.4511V72.9546C94.2187 73.1829 94.1732 73.3313 93.9665 73.3313H93.5447C93.4876 73.3313 93.4186 73.2519 93.0647 72.8173L88.436 67.1373H88.4126V72.2116C88.4126 72.6567 88.5837 72.7257 89.145 72.8401C89.2922 72.8629 89.3156 72.9546 89.2706 73.0457L89.1784 73.2519C89.145 73.2969 89.0878 73.3313 88.985 73.3313H86.9846C86.8923 73.3313 86.7784 73.3091 86.835 73.1601L86.9046 72.9768C86.9507 72.8523 87.0419 72.8401 87.1218 72.8173C87.4074 72.7712 87.7041 72.6 87.7041 72.2116V66.4622C87.3269 66.0626 86.9046 65.8909 86.6651 65.8465C86.4473 65.7998 86.4245 65.7192 86.4688 65.6159L86.5611 65.4108C86.5956 65.3647 86.6529 65.3309 86.7556 65.3309H88.127C88.4126 65.3548 88.5616 65.5586 88.7677 65.7998L93.4876 71.5937H93.5103V66.4511Z" fill="var(--fill-0, black)"/>
<path id="Vector_24" fill-rule="evenodd" clip-rule="evenodd" d="M97.6003 66.4511C97.6003 66.0054 97.4303 65.9371 96.8703 65.8226C96.7217 65.7998 96.6975 65.7081 96.7439 65.6159L96.8356 65.4108C96.8703 65.3647 96.9254 65.3309 97.0297 65.3309H99.4309C99.5207 65.3309 99.6356 65.3548 99.5786 65.5031L99.5091 65.6854C99.4647 65.8121 99.373 65.8226 99.2928 65.8465C99.007 65.8909 98.7097 66.0626 98.7097 66.4511V72.2116C98.7097 72.6567 98.8805 72.7257 99.4415 72.8401C99.5892 72.8629 99.6134 72.9546 99.567 73.0457L99.4753 73.2519C99.4415 73.2969 99.3846 73.3313 99.2822 73.3313H96.881C96.7892 73.3313 96.6753 73.3091 96.7323 73.1601L96.8008 72.9768C96.8472 72.8523 96.937 72.8401 97.0181 72.8173C97.3039 72.7712 97.6003 72.6 97.6003 72.2116V66.4511Z" fill="var(--fill-0, black)"/>
<path id="Vector_25" fill-rule="evenodd" clip-rule="evenodd" d="M108.253 66.4511C108.253 66.0054 108.08 65.9371 107.522 65.8226C107.372 65.7998 107.35 65.7081 107.396 65.6159L107.487 65.4108C107.522 65.3647 107.578 65.3309 107.681 65.3309H109.681C109.774 65.3309 109.886 65.3548 109.83 65.5031L109.761 65.6854C109.717 65.8121 109.625 65.8226 109.544 65.8465C109.259 65.8909 108.962 66.0626 108.962 66.4511V72.9546C108.962 73.1829 108.915 73.3313 108.71 73.3313H108.288C108.23 73.3313 108.162 73.2519 107.806 72.8173L103.178 67.1373H103.156V72.2116C103.156 72.6567 103.328 72.7257 103.887 72.8401C104.034 72.8629 104.058 72.9546 104.012 73.0457L103.922 73.2519C103.887 73.2969 103.83 73.3313 103.726 73.3313H101.728C101.635 73.3313 101.52 73.3091 101.577 73.1601L101.647 72.9768C101.692 72.8523 101.784 72.8401 101.864 72.8173C102.149 72.7712 102.446 72.6 102.446 72.2116V66.4622C102.07 66.0626 101.647 65.8909 101.407 65.8465C101.19 65.7998 101.167 65.7192 101.212 65.6159L101.304 65.4108C101.338 65.3647 101.395 65.3309 101.498 65.3309H102.869C103.156 65.3548 103.304 65.5586 103.509 65.7998L108.23 71.5937H108.253V66.4511Z" fill="var(--fill-0, black)"/>
<path id="Vector_26" fill-rule="evenodd" clip-rule="evenodd" d="M119.03 72.7006C119.03 73.0428 119.008 73.3168 118.722 73.3168H118.161C117.934 73.3168 117.956 73.0195 117.956 72.8373V72.5406H117.934C117.623 73.0773 116.402 73.4657 115.738 73.4657C113.224 73.4657 111.441 71.7515 111.441 69.2604C111.441 67.0194 113.316 65.1912 115.783 65.1912C117.156 65.1912 118.116 65.6025 118.447 65.7852C118.572 65.8314 118.562 65.9225 118.562 66.002V66.7694C118.562 66.8027 118.538 66.836 118.505 66.8722L118.287 67.0544C118.116 67.18 118.07 65.8092 115.749 65.8092C113.762 65.8314 112.687 67.305 112.687 69.1687C112.687 71.4536 114.242 72.8501 115.716 72.8501C117.271 72.8501 117.968 72.0715 117.968 71.272C117.968 70.7463 117.739 70.5167 117.647 70.449C117.338 70.1517 116.802 70.265 116.927 70.0022L117.007 69.8316C117.064 69.7178 117.202 69.7289 117.338 69.7289H118.756C119.008 69.7289 119.008 69.8199 119.03 70.0262V72.7006Z" fill="var(--fill-0, black)"/>
<path id="Vector_27" fill-rule="evenodd" clip-rule="evenodd" d="M131.99 72.7683C131.83 73.0428 131.751 73.1795 131.682 73.2256C131.385 73.374 130.619 73.4657 129.636 73.4657C126.801 73.4657 125.019 71.7515 125.019 69.2604C125.019 67.0194 126.892 65.1912 129.362 65.1912C130.733 65.1912 131.694 65.6025 132.025 65.7852C132.149 65.8314 132.139 65.9225 132.139 66.002V66.7694C132.139 66.8021 132.116 66.836 132.081 66.8722L131.864 67.0544C131.694 67.18 131.647 65.8086 129.326 65.8086C127.337 65.8086 126.264 67.305 126.264 69.1687C126.264 71.4536 127.83 72.8495 129.772 72.8495C130.688 72.8495 131.499 72.5061 131.875 72.2426C132.116 72.0715 132.31 72.1632 132.174 72.4261L131.99 72.7683Z" fill="var(--fill-0, black)"/>
<path id="Vector_28" fill-rule="evenodd" clip-rule="evenodd" d="M135.647 68.6793H138.288C138.437 68.6793 138.493 68.7482 138.437 68.8515L138.277 69.1365C138.208 69.2633 138.093 69.2966 137.911 69.2966H135.647V71.6509C135.647 72.6106 135.854 72.7146 136.346 72.7146H137.351C138.528 72.7146 138.687 71.766 138.848 71.811L139.133 71.9026C139.179 71.9132 139.202 71.9599 139.202 72.0049V73.0451C139.202 73.2279 138.985 73.3307 138.676 73.3307H135.143C134.79 73.3307 134.539 73.3424 134.539 72.5428V66.5416C134.539 66.0965 134.31 65.9248 133.819 65.846C133.647 65.8121 133.546 65.7759 133.602 65.6509L133.693 65.4558C133.739 65.3542 133.819 65.3309 133.886 65.3309H138.355C138.573 65.3309 138.71 65.4558 138.687 65.6159V66.4511C138.687 66.4849 138.665 66.5194 138.631 66.5533L138.424 66.7255C138.253 66.8628 138.082 65.9482 137.316 65.9482H135.647V68.6793Z" fill="var(--fill-0, black)"/>
<path id="Vector_29" fill-rule="evenodd" clip-rule="evenodd" d="M147.545 66.4511C147.545 66.0054 147.374 65.9371 146.814 65.8226C146.664 65.7998 146.642 65.7081 146.687 65.6159L146.78 65.4108C146.814 65.3647 146.87 65.3309 146.974 65.3309H148.974C149.064 65.3309 149.179 65.3548 149.122 65.5031L149.053 65.6854C149.008 65.8121 148.916 65.8226 148.836 65.8465C148.55 65.8909 148.253 66.0626 148.253 66.4511V72.9546C148.253 73.1829 148.207 73.3313 148.002 73.3313H147.578C147.521 73.3313 147.452 73.2519 147.099 72.8173L142.47 67.1373H142.447V72.2116C142.447 72.6567 142.618 72.7257 143.178 72.8401C143.327 72.8629 143.35 72.9546 143.305 73.0457L143.213 73.2519C143.178 73.2969 143.122 73.3313 143.017 73.3313H141.019C140.928 73.3313 140.813 73.3091 140.87 73.1601L140.938 72.9768C140.985 72.8523 141.077 72.8401 141.156 72.8173C141.442 72.7712 141.739 72.6 141.739 72.2116V66.4622C141.36 66.0626 140.938 65.8909 140.698 65.8465C140.482 65.7998 140.459 65.7192 140.504 65.6159L140.595 65.4108C140.63 65.3647 140.687 65.3309 140.789 65.3309H142.162C142.447 65.3548 142.596 65.5586 142.802 65.7998L147.521 71.5937H147.545V66.4511Z" fill="var(--fill-0, black)"/>
<path id="Vector_30" fill-rule="evenodd" clip-rule="evenodd" d="M154.129 72.2116C154.129 72.6573 154.299 72.7262 154.86 72.8406C155.009 72.8629 155.031 72.9552 154.987 73.0463L154.894 73.2524C154.86 73.298 154.802 73.3319 154.7 73.3319H152.299C152.208 73.3319 152.093 73.3091 152.152 73.1607L152.22 72.9774C152.266 72.8529 152.357 72.8406 152.437 72.8173C152.723 72.7718 153.019 72.6012 153.019 72.2116V66.0398H150.46C150.3 66.0398 150.14 65.9827 150.3 65.7998L150.516 65.4686C150.643 65.3431 150.768 65.3309 150.951 65.3309H156.687C156.848 65.3309 157.009 65.3893 156.848 65.5709L156.631 65.9026C156.506 66.0287 156.38 66.0398 156.197 66.0398H154.129V72.2116Z" fill="var(--fill-0, black)"/>
<path id="Vector_31" fill-rule="evenodd" clip-rule="evenodd" d="M160.093 68.6793H162.733C162.882 68.6793 162.94 68.7482 162.882 68.8515L162.722 69.1365C162.653 69.2633 162.54 69.2966 162.356 69.2966H160.093V71.6509C160.093 72.6106 160.299 72.7146 160.791 72.7146H161.797C162.974 72.7146 163.134 71.766 163.294 71.811L163.58 71.9026C163.624 71.9132 163.647 71.9599 163.647 72.0049V73.0451C163.647 73.2279 163.43 73.3307 163.122 73.3307H159.591C159.237 73.3307 158.985 73.3424 158.985 72.5428V66.5416C158.985 66.0965 158.756 65.9248 158.266 65.846C158.094 65.8121 157.99 65.7759 158.047 65.6509L158.139 65.4558C158.186 65.3542 158.266 65.3309 158.333 65.3309H162.801C163.019 65.3309 163.157 65.4558 163.134 65.6159V66.4511C163.134 66.4849 163.112 66.5194 163.076 66.5533L162.871 66.7255C162.699 66.8628 162.528 65.9482 161.762 65.9482H160.093V68.6793Z" fill="var(--fill-0, black)"/>
<path id="Vector_32" fill-rule="evenodd" clip-rule="evenodd" d="M167.293 69.2288H168.082C168.962 69.2505 169.728 68.6787 169.705 67.4218C169.683 66.2787 169.1 65.9476 168.31 65.9476H167.293V69.2288ZM171.843 73.3307H170.529C170.345 73.3307 170.266 73.1485 170.219 73.0568L168.482 69.8456H167.293V72.2105C167.293 72.6561 167.466 72.7251 168.026 72.8395C168.175 72.8623 168.197 72.954 168.151 73.0451L168.059 73.2513C168.026 73.2969 167.967 73.3307 167.865 73.3307H165.466C165.373 73.3307 165.259 73.308 165.316 73.1596L165.385 72.9762C165.432 72.8523 165.522 72.8395 165.604 72.8161C165.887 72.7706 166.186 72.5995 166.186 72.2105V66.5416C166.186 66.0959 165.956 65.9243 165.466 65.846C165.294 65.8115 165.191 65.7764 165.248 65.6509L165.339 65.4558C165.385 65.3542 165.466 65.3309 165.534 65.3309H168.54C169.923 65.3309 170.803 65.9243 170.814 67.319C170.814 68.1991 170.208 69.0566 169.408 69.5133C170.494 71.3414 171.329 72.7595 171.843 72.9996V73.3307Z" fill="var(--fill-0, black)"/>
<path id="Vector_33" fill-rule="evenodd" clip-rule="evenodd" d="M177.293 67.031C177.202 67.1111 176.985 66.6409 176.836 66.3448C176.608 65.8758 176.265 65.7053 175.751 65.7053C175.19 65.7053 174.596 66.0481 174.506 66.6304C174.379 67.4534 174.974 67.9217 175.911 68.5513C177.156 69.3849 177.867 69.9678 177.911 71.248C177.955 72.7111 176.539 73.4651 175.248 73.4651C174.608 73.4651 174.14 73.3734 173.774 73.2601C173.18 73.0773 173.18 73.0656 173.18 72.7678V71.6597C173.18 71.5336 173.133 71.3624 173.249 71.3169L173.558 71.2147C173.717 71.168 173.717 71.6714 174.002 72.1504C174.219 72.6532 174.734 72.8822 175.283 72.8822C176.208 72.8822 176.778 72.2537 176.814 71.4536C176.894 70.4244 175.728 69.7172 175.019 69.2143C174.345 68.7336 173.409 68.2086 173.409 67.0877C173.409 66.2876 174.334 65.1912 175.843 65.1912C176.368 65.1912 176.778 65.2824 177.123 65.4191C177.466 65.5557 177.647 65.6591 177.626 65.8536V66.6987C177.626 66.7449 177.59 66.7793 177.557 66.8255L177.293 67.031Z" fill="var(--fill-0, black)"/>
</g>
</svg>
