<svg preserveAspectRatio="xMidYMid meet" overflow="visible" style="display: block;" viewBox="0 0 119.589 37.4231" fill="none" xmlns="http://www.w3.org/2000/svg">
<path id="Vector" fill-rule="evenodd" clip-rule="evenodd" d="M105.929 19.4332C105.929 15.2579 109.022 12.8352 112.888 12.8352C115.775 12.8352 118.352 14.227 119.589 17.6807C119.228 19.4332 117.063 21.3919 116.136 21.7014C115.362 20.0519 114.486 19.0724 113.662 19.0724C112.63 19.0724 112.579 19.7942 112.579 20.7219C112.579 21.379 112.767 22.3468 112.993 23.5115C113.336 25.2706 113.764 27.4786 113.764 29.7426C113.764 33.8664 110.878 36.9078 106.444 36.9078C102.386 36.9078 100.142 34.2466 99.1411 29.9955C96.4902 34.7472 92.6119 36.9078 89.6399 36.9078C84.9941 36.9078 83.9006 33.4736 84.0112 29.9902C82.1444 33.2896 78.5504 36.9078 75.1039 36.9078C71.5856 36.9078 70.3436 33.8455 70.6279 30.2793C68.5204 34.2056 64.7072 36.9078 61.0317 36.9078C57.0429 36.9078 55.0687 33.7391 55.7076 29.8115C53.0241 33.1097 48.0289 36.9078 42.8355 36.9078C36.9141 36.9078 34.3366 33.7145 34.0311 29.7134C31.1731 34.294 27.3208 37.0623 22.7322 37.0623C16.1084 37.0623 13.7392 31.1721 13.3945 26.354C10.9395 29.6413 8.17961 33.052 4.79385 36.8561C4.433 37.217 4.12376 37.4231 3.76291 37.4231C2.5774 37.4231 0.154665 32.1654 0 30.2065C1.01736 28.6279 7.43025 21.582 12.5933 15.9095C14.4082 13.9155 16.0687 12.0912 17.2859 10.7336C14.124 11.6877 10.8639 13.5906 6.75269 16.5467C6.03098 17.0621 4.02072 12.3713 4.07224 8.76304C8.81457 5.25785 16.0312 3.0413 21.8559 3.0413C30.0004 3.0413 34.6911 7.57744 34.6911 13.8661C34.6911 19.124 30.3097 24.8971 23.9178 25.1034C20.5943 25.1897 18.4642 23.3241 17.3747 21.0202C17.5049 24.5834 19.3575 28.9694 24.3302 28.9694C29.7512 28.9694 32.3545 25.6971 36.2368 20.8167C36.489 20.4996 36.7466 20.1758 37.0107 19.8456C40.3098 15.7733 44.1243 12.1651 49.6914 12.1651C53.0935 12.1651 55.4131 14.2785 55.4131 17.4745C55.4131 21.3404 50.8768 26.7013 44.5366 26.7013C43.4538 26.7013 42.4667 26.5587 41.6335 26.2767C41.6125 26.4391 41.5985 26.5991 41.5985 26.7529C41.5985 28.557 42.2686 29.6396 45.2068 29.6396C49.5368 29.6396 53.6088 27.0622 58.5574 21.0312C63.4031 15.1033 67.063 12.526 70.9287 12.526C73.5388 12.526 75.5192 13.9404 76.3925 16.3223C81.5729 8.83911 85.9693 3.53683 89.6923 0C93.3513 1.54646 95.9808 4.58766 95.2589 5.20623C92.5266 7.68048 83.4029 17.6291 79.7943 23.557C78.8667 25.1034 77.9905 26.8045 77.9905 27.6292C77.9905 28.4024 78.4543 28.6601 78.9696 28.6601C81.4467 28.6601 86.4108 22.8129 90.6975 17.7629C92.2985 15.8765 93.8054 14.1014 95.0522 12.7837C97.9398 13.9693 100.878 16.495 100.156 17.3714C96.3418 21.9075 93.4551 25.6189 93.4551 27.7323C93.4551 28.2993 93.6608 28.6601 94.4342 28.6601C95.878 28.6601 97.2179 27.3714 99.4341 24.6394C99.8979 24.0725 100.466 24.0725 100.826 24.9489C101.806 27.3199 103.248 28.6086 104.383 28.6086C105.723 28.6086 106.393 27.423 106.393 25.6189C106.393 24.3859 106.243 22.9524 106.113 21.7181C106.016 20.785 105.929 19.9658 105.929 19.4332ZM22.7838 18.7631C25.5158 18.7631 28.5056 17.2683 28.5056 14.227C28.5056 12.3813 27.36 10.6798 24.2989 10.1616C24.1373 10.414 23.9769 10.6647 23.8175 10.9141C22.262 13.3459 20.795 15.6394 19.3144 17.8814C20.2016 18.3796 21.3234 18.7631 22.7838 18.7631ZM50.413 19.691C50.413 18.8663 49.8975 18.2992 49.0728 18.2992C47.0047 18.2992 43.8854 21.2015 42.4176 24.0041C42.9593 24.2134 43.5954 24.3302 44.2789 24.3302C47.9388 24.3302 50.413 21.5467 50.413 19.691ZM63.9697 27.1653C63.9697 28.0932 64.485 28.7117 65.5678 28.7117C68.9183 28.7117 73.0934 22.6292 73.0934 20.1548C73.0934 19.124 72.5268 18.5053 71.5992 18.5053C68.5573 18.5053 63.9697 24.2787 63.9697 27.1653ZM107.011 8.55705C105.825 10.5158 104.022 12.7323 103.351 13.4024C100.258 12.1138 97.3712 9.53647 97.7836 8.81476C98.9179 6.8045 100.774 4.63948 101.444 3.96939C104.537 5.25804 107.424 7.88696 107.011 8.55705Z" fill="var(--fill-0, #FF4438)"/>
</svg>
