<svg preserveAspectRatio="xMidYMid meet" overflow="visible" style="display: block;" viewBox="0 0 196 104.792" fill="none" xmlns="http://www.w3.org/2000/svg">
<g id="1715859358-streamlit-c.svg">
<path id="Vector" d="M28.9383 54.9018L21.1726 50.7968L7.69235 43.6722C7.6801 43.6598 7.65543 43.6598 7.64318 43.6598C7.15102 43.426 6.64647 43.9182 6.83105 44.4105L13.6998 61.9293L13.701 61.933C13.7084 61.9501 13.7146 61.9673 13.7219 61.9846C14.0036 62.638 14.619 63.0417 15.2883 63.2003C15.3451 63.2126 15.3855 63.2238 15.4534 63.2374C15.5211 63.2525 15.6157 63.273 15.6969 63.2791C15.7105 63.2804 15.7227 63.2803 15.7363 63.2815H15.7461C15.756 63.2828 15.7659 63.2828 15.7756 63.284H15.7892C15.7977 63.2853 15.8076 63.2853 15.8162 63.2853H15.8323C15.842 63.2865 15.8519 63.2865 15.8618 63.2865C24.5606 64.2348 33.3371 64.2348 42.0359 63.2865C42.1406 63.2865 42.2427 63.2815 42.3411 63.2716C42.3732 63.2679 42.4038 63.2642 42.4346 63.2606C42.4383 63.2594 42.4433 63.2594 42.447 63.2582C42.4678 63.2557 42.4887 63.252 42.5097 63.2483C42.5404 63.2446 42.5712 63.2384 42.6021 63.2324C42.6635 63.2188 42.6915 63.2089 42.775 63.1803C42.8585 63.1516 42.997 63.1014 43.0838 63.0596C43.1705 63.0177 43.2307 62.9777 43.3034 62.932C43.3931 62.8755 43.4787 62.8176 43.5652 62.7526C43.6025 62.724 43.6282 62.7056 43.6553 62.6798L43.6405 62.6713L28.9383 54.9018Z" fill="var(--fill-0, #FF4B4B)"/>
<path id="Vector_2" d="M50.2069 43.6723H50.1946L36.7093 50.7969L44.2057 61.9614L51.0571 44.4106V44.386C51.2294 43.8692 50.7003 43.4017 50.2069 43.6723Z" fill="var(--fill-0, #7D353B)"/>
<path id="Vector_3" d="M29.657 40.2845C29.3126 39.7813 28.5619 39.7813 28.2296 40.2845L21.1728 50.7968L28.9384 54.9019L43.6555 62.6797C43.7478 62.5892 43.8219 62.5011 43.9003 62.408C44.011 62.2713 44.1144 62.1248 44.2055 61.9612L36.7092 50.7968L29.657 40.2845Z" fill="var(--fill-0, #BD4043)"/>
<path id="Vector_4" d="M76.9245 46.3H79.64C79.5156 42.8035 76.2907 40.1896 71.8097 40.1896C67.374 40.1896 63.8889 42.7695 63.8889 46.662C63.8889 49.7852 66.152 51.6409 69.7729 52.6818L72.6246 53.4967C75.0687 54.1756 77.2412 55.0355 77.2412 57.3439C77.2412 59.8785 74.7971 61.5533 71.5834 61.5533C68.8225 61.5533 66.3784 60.3312 66.152 57.706H63.2552C63.5267 61.5079 66.6046 64.0879 71.5834 64.0879C76.9245 64.0879 79.9569 61.1459 79.9569 57.3891C79.9569 53.044 75.8381 51.6409 73.4392 51.0072L71.0856 50.3735C69.3656 49.9209 66.6046 49.0157 66.6046 46.5263C66.6046 44.3084 68.6414 42.679 71.7192 42.679C74.5255 42.679 76.6529 44.0141 76.9245 46.3ZM91.1303 46.3H87.4188V42.1357H84.7483V46.3H82.1231V48.563H84.7483V59.4259C84.7483 62.4584 87.1924 63.9069 89.4556 63.9069C90.4514 63.9069 91.085 63.7258 91.4472 63.5902L90.9039 61.1912C90.6778 61.2364 90.3155 61.3269 89.7271 61.3269C88.5504 61.3269 87.4188 60.9648 87.4188 58.7018V48.563H91.1303V46.3ZM94.5099 63.6806H97.1801V52.6818C97.1801 50.3282 99.0363 48.6083 101.571 48.6083C102.284 48.6083 103.019 48.744 103.201 48.7894V46.0736C102.895 46.051 102.194 46.0284 101.797 46.0284C99.7155 46.0284 97.9049 47.2051 97.2713 48.9252H97.0899V46.3H94.5099V63.6806ZM112.487 64.0427C116.017 64.0427 118.597 62.2775 119.412 59.6523L116.832 58.928C116.153 60.7385 114.58 61.6438 112.487 61.6438C109.352 61.6438 107.191 59.6184 107.066 55.8955H119.683V54.764C119.683 48.2914 115.836 46.0736 112.215 46.0736C107.508 46.0736 104.385 49.7852 104.385 55.1261C104.385 60.467 107.462 64.0427 112.487 64.0427ZM107.066 53.5872C107.248 50.8828 109.16 48.4725 112.215 48.4725C115.112 48.4725 116.967 50.6451 116.967 53.5872H107.066ZM128.223 64.0879C131.256 64.0879 132.839 62.4584 133.383 61.3269H133.519V63.6806H136.189V52.2292C136.189 46.7073 131.98 46.0736 129.762 46.0736C127.137 46.0736 124.15 46.9789 122.792 50.1472L125.326 51.0524C125.914 49.7852 127.307 48.4272 129.853 48.4272C132.308 48.4272 133.519 49.7285 133.519 51.9577V52.0482C133.519 53.3382 132.206 53.2251 129.038 53.6323C125.813 54.0511 122.293 54.764 122.293 58.747C122.293 62.1417 124.919 64.0879 128.223 64.0879ZM128.63 61.6892C126.503 61.6892 124.965 60.7385 124.965 58.8829C124.965 56.846 126.82 56.2124 128.902 55.9407C130.033 55.805 133.067 55.4881 133.519 54.945V57.3891C133.519 59.5618 131.798 61.6892 128.63 61.6892ZM140.426 63.6806H143.097V52.8176C143.097 50.2717 144.953 48.4725 147.035 48.4725C149.061 48.4725 150.475 49.7964 150.475 51.7767V63.6806H153.191V52.3651C153.191 50.1247 154.594 48.4725 157.037 48.4725C158.939 48.4725 160.568 49.4796 160.568 52.0482V63.6806H163.239V52.0482C163.239 47.9633 161.043 46.0736 157.942 46.0736C155.452 46.0736 153.632 47.2165 152.737 49.0157H152.557C151.696 47.1599 150.18 46.0736 147.894 46.0736C145.632 46.0736 143.957 47.1599 143.232 49.0157H143.006V46.3H140.426V63.6806ZM170.154 40.5063H167.484V63.6806H170.154V40.5063ZM174.408 63.6806H177.079V46.3H174.408V63.6806ZM175.766 43.4031C176.808 43.4031 177.667 42.5885 177.667 41.5927C177.667 40.5968 176.808 39.7822 175.766 39.7822C174.725 39.7822 173.865 40.5968 173.865 41.5927C173.865 42.5885 174.725 43.4031 175.766 43.4031ZM188.891 46.3H185.179V42.1357H182.509V46.3H179.884V48.563H182.509V59.4259C182.509 62.4584 184.954 63.9069 187.216 63.9069C188.212 63.9069 188.846 63.7258 189.208 63.5902L188.665 61.1912C188.438 61.2364 188.077 61.3269 187.488 61.3269C186.311 61.3269 185.179 60.9648 185.179 58.7018V48.563H188.891V46.3Z" fill="var(--fill-0, #262730)"/>
</g>
</svg>
