<svg preserveAspectRatio="xMidYMid meet" overflow="visible" style="display: block;" viewBox="0 0 196 104.792" fill="none" xmlns="http://www.w3.org/2000/svg">
<g id="1715859179-universal-music-c.svg">
<path id="Vector" fill-rule="evenodd" clip-rule="evenodd" d="M71.6485 33.16C75.2672 22.12 83.8259 13.5923 98.1329 13.5923C111.429 13.5923 121.198 22.2386 124.741 33.4C121.043 22.9944 110.534 15.4908 98.1514 15.4908C85.8606 15.4908 75.4217 22.8783 71.6485 33.16ZM124.682 50.0451C121.081 61.1135 110.959 69.7212 98.1329 69.7212C84.529 69.7212 75.3831 61.2296 71.7077 50.285C75.5299 60.479 85.9249 67.7891 98.1514 67.7891C110.473 67.7891 120.935 60.3655 124.682 50.0451Z" fill="var(--fill-0, #231F20)"/>
<g id="Mask group">
<path id="Vector_2" d="M24.2574 13.5894V90.6015H170.769V13.5894" fill="var(--fill-0, white)"/>
<path id="Vector_3" fill-rule="evenodd" clip-rule="evenodd" d="M91.4839 31.8288C91.1285 30.9622 91.1516 29.5512 91.914 28.2538C92.393 27.4386 93.6654 27.0775 94.778 27.5057C96.0246 26.5359 96.3234 27.5805 97.4236 27.1084C98.8762 26.4894 98.064 28.7516 99.4651 29.3242C100.047 27.7998 98.1446 26.6519 99.3371 25.9323C100.189 25.419 100.833 25.1017 101.181 24.4155C101.678 23.4353 101.873 22.7209 102.258 22.5893C103.139 22.2927 102.948 21.4646 102.948 21.4646C102.948 21.4646 103.891 21.7355 104.622 21.0596C104.063 20.7605 103.246 20.5051 103.463 19.9119C103.713 19.2128 105.608 20.634 106.17 19.4888C105.041 19.0038 103.891 17.9515 103.203 17.709C102.731 18.2171 102.438 18.0134 101.828 17.5387C100.799 16.7313 100.712 17.4975 100.069 16.9428C99.5534 17.9618 100.329 17.8818 100.565 18.1372C101.227 18.8516 99.896 17.4948 100.024 19.3185C100.058 19.7906 99.3468 19.8809 98.8218 18.8516C98.5482 18.3203 96.3594 18.4312 96.0272 17.9205C96.3311 17.3247 98.9063 15.2069 102.86 15.7125C97.117 13.4864 89.3539 15.9214 89.2765 16.7675C88.5013 17.2447 88.7667 17.7915 88.3803 17.9205C87.7132 18.1397 86.9817 20.1569 86.9817 20.1569C86.9817 20.1569 87.4015 20.4303 86.1009 21.867C85.032 23.051 84.7152 24.8385 84.7152 24.8385C84.7152 24.8385 85.4209 26.1154 85.287 27.5883C85.1839 28.7103 85.1376 27.8771 85.6321 28.6896C85.9206 29.1668 86.2348 30.8281 86.4279 30.1806C86.7911 28.945 85.7583 27.7998 85.9335 26.5694C85.9695 26.7241 86.3275 26.0819 86.3121 26.6622C86.276 28.1815 88.2103 31.1067 88.2103 31.1067C88.2103 31.1067 87.4865 31.8315 88.2412 31.8315L91.4839 31.8288ZM103.556 50.0166C103.939 50.1713 104.421 50.5505 104.643 51.1283C105.166 52.498 104.387 51.3889 104.387 53.4575C104.387 55.3586 103.844 55.0516 103.844 55.0516C103.844 55.0516 103.726 57.2984 102.549 58.6809C101.799 59.4238 102.381 60.0403 102.381 60.0403C102.381 60.0403 102.129 60.1822 101.763 61.8099C101.644 62.3386 102.328 63.1537 102.922 62.95C103.368 62.7977 101.84 62.6533 103.497 61.962C104.13 61.6989 103.609 61.196 103.609 61.196C103.609 61.196 104.683 61.1159 105.286 59.5167C106.355 59.6689 105.958 59.024 108.156 58.5571C108.735 58.4333 108.859 58.2605 108.787 57.7214C108.712 57.1823 109.503 57.7988 111.681 55.6088C113.397 53.878 112.779 53.4911 113.963 52.8643C115.218 52.2039 115.333 52.9211 115.751 52.3845C116.712 51.1542 116.372 51.2315 116.773 50.4473L117.055 50.0166H103.556ZM98.6928 30.4308C98.8626 30.1755 99.3807 30.3431 99.7436 30.3509C100.238 30.3637 100.12 31.0808 100.799 30.9364C101.478 30.7945 101.485 31.5735 102.451 31.5451C103.422 31.5168 102.258 31.8778 102.258 31.8778C102.258 31.8778 101.657 31.5941 101.269 31.785C101.065 31.8856 101.346 31.7257 101.003 31.4497C100.47 31.0189 100.539 31.5322 99.6485 30.7816C99.0178 30.2528 98.4124 30.8461 98.6928 30.4308Z" fill="var(--fill-0, #231F20)"/>
</g>
<path id="Vector_4" d="M50.3146 35.9057H45.9515L46.6032 36.6718V42.3259C46.6032 43.5976 45.7507 44.1342 44.4783 44.1342C43.2033 44.1342 42.3508 43.5976 42.3508 42.3259V36.6718L43.0025 35.9057H38.6395L39.291 36.6718V42.4189C39.291 45.2382 40.8905 46.3241 44.4783 46.3241C48.0635 46.3241 49.6629 45.2382 49.6629 42.4189V36.6718L50.3146 35.9057Z" fill="var(--fill-0, #231F20)"/>
<path id="Vector_5" d="M65.4562 35.9072H61.7758L62.43 36.6734V41.8219L57.1526 35.9072H53.8429L54.4971 36.6734V45.3609L53.8429 46.1271H57.5235L56.8718 45.3609V40.1221L62.4764 46.1271H64.8047V36.6734L65.4562 35.9072Z" fill="var(--fill-0, #231F20)"/>
<path id="Vector_6" d="M73.9351 46.1271L73.2834 45.3609V36.6734L73.9351 35.9072H69.5411L70.1927 36.6734V45.3609L69.5411 46.1271H73.9351Z" fill="var(--fill-0, #231F20)"/>
<path id="Vector_7" d="M88.4236 35.9072H84.7301L85.3818 36.6734L82.7727 42.2965L80.2589 36.6734L80.9105 35.9072H76.5629L81.3896 46.1271H83.5505L88.4236 35.9072Z" fill="var(--fill-0, #231F20)"/>
<path id="Vector_8" d="M100.76 46.1271V43.3541L99.9852 43.9964H94.6902V42.036H98.0437L98.8034 42.6783V39.3534L98.0437 39.9983H94.6902V38.0379H99.9852L100.76 38.6801V35.9072H91.0122L91.6639 36.6734V45.3609L91.0122 46.1271H100.76Z" fill="var(--fill-0, #231F20)"/>
<path id="Vector_9" fill-rule="evenodd" clip-rule="evenodd" d="M112.033 39.2167C112.033 39.9518 111.319 40.5503 110.326 40.5503H108.355V38.0379H110.699C111.378 38.0379 112.033 38.3757 112.033 39.2167ZM115.603 46.1271L112.793 42.0979C114.176 41.5459 115.136 40.4884 115.136 39.0025C115.136 37.3027 114.081 35.9072 111.134 35.9072H104.675L105.326 36.6734V45.3609L104.675 46.1271H109.007L108.355 45.3609V42.4642H109.656L111.644 45.3609L110.992 46.1271H115.603Z" fill="var(--fill-0, #231F20)"/>
<path id="Vector_10" d="M128.719 43.1394C128.719 41.5144 127.394 40.6116 125.486 39.9977C124.245 39.6159 122.49 39.3399 122.49 38.5274C122.49 38.1275 122.973 37.8541 123.812 37.8541C124.927 37.8541 126.759 38.3132 128.188 38.9865V35.5688L127.366 36.3503C126.496 35.9995 124.989 35.6307 123.951 35.6307C120.427 35.6307 119.291 37.1654 119.291 38.5583C119.291 40.4568 120.566 41.2848 122.568 41.9735C124.056 42.4791 125.439 42.5281 125.439 43.369C125.439 44.0913 124.587 44.1815 124.151 44.1815C123.049 44.1815 121.092 43.7972 119.353 42.6803V46.4643L120.177 45.5745C120.983 45.8814 122.802 46.4024 124.291 46.4024C127.348 46.4024 128.719 45.0688 128.719 43.1394Z" fill="var(--fill-0, #231F20)"/>
<path id="Vector_11" fill-rule="evenodd" clip-rule="evenodd" d="M139.217 42.4488H135.787L137.492 38.7885L139.217 42.4488ZM144.199 46.1271L139.107 35.9072H135.615L135.985 36.6734L131.374 46.1271H135.182L134.528 45.3609L135.04 44.2879H139.975L140.475 45.3609L139.823 46.1271H144.199Z" fill="var(--fill-0, #231F20)"/>
<path id="Vector_12" d="M156.47 46.1271V43.3541L155.695 43.9964H150.711V36.6734L151.362 35.9072H147.031L147.682 36.6734V45.3609L147.031 46.1271H156.47Z" fill="var(--fill-0, #231F20)"/>
<path id="Vector_13" d="M153.57 37.321C153.57 36.5343 154.219 35.8946 155.016 35.8946C155.813 35.8946 156.46 36.5343 156.46 37.321C156.46 38.1077 155.813 38.7475 155.016 38.7475C154.219 38.7475 153.57 38.1077 153.57 37.321ZM153.707 37.321C153.707 38.0355 154.294 38.6134 155.016 38.6134C155.739 38.6134 156.326 38.0355 156.326 37.321C156.326 36.6065 155.739 36.0287 155.016 36.0287C154.294 36.0287 153.707 36.6065 153.707 37.321Z" fill="var(--fill-0, #231F20)"/>
<path id="Vector_14" fill-rule="evenodd" clip-rule="evenodd" d="M155.557 36.7638C155.415 36.6426 155.246 36.5883 155.057 36.5883C154.632 36.5883 154.316 36.9134 154.316 37.3262C154.316 37.7414 154.628 38.069 155.052 38.069C155.246 38.069 155.431 37.9994 155.577 37.8729V37.6872C155.446 37.842 155.253 37.9401 155.047 37.9401C154.707 37.9401 154.455 37.6486 154.455 37.3262C154.455 37.0037 154.71 36.7174 155.05 36.7174C155.255 36.7174 155.423 36.7999 155.557 36.947V36.7638Z" fill="var(--fill-0, #231F20)"/>
<path id="Vector_15" d="M31.4253 84.1469V87.9386C31.4253 89.7985 30.3848 90.5181 28.0538 90.5181C25.7203 90.5181 24.6824 89.7985 24.6824 87.9386V84.1469L24.2574 83.6413H27.0931L26.6707 84.1469V87.8793C26.6707 88.7177 27.2245 89.071 28.0538 89.071C28.8806 89.071 29.437 88.7177 29.437 87.8793V84.1469L29.012 83.6413H31.8503L31.4253 84.1469Z" fill="var(--fill-0, #231F20)"/>
<path id="Vector_16" d="M42.8146 84.1495V90.3892H41.3002L37.6558 86.4246V89.8837L38.0781 90.3892H35.6854L36.1104 89.8837V84.1495L35.6854 83.644H37.8361L41.2693 87.5467V84.1495L40.8444 83.644H43.2396L42.8146 84.1495Z" fill="var(--fill-0, #231F20)"/>
<path id="Vector_17" d="M47.428 90.3892L47.853 89.8837V84.1495L47.428 83.644H50.2843L49.8619 84.1495V89.8837L50.2843 90.3892H47.428Z" fill="var(--fill-0, #231F20)"/>
<path id="Vector_18" d="M58.111 90.3892H56.7074L53.5677 83.644H56.3957L55.9707 84.1495L57.6062 87.8614L59.3035 84.1495L58.8786 83.644H61.2815L58.111 90.3892Z" fill="var(--fill-0, #231F20)"/>
<path id="Vector_19" d="M64.5106 90.3892L64.9355 89.8837V84.1495L64.5106 83.644H70.8517V85.4754L70.3468 85.0497H66.9032V86.3447H69.0848L69.5793 85.919V88.1141L69.0848 87.6886H66.9032V88.9834H70.3468L70.8517 88.5604V90.3892H64.5106Z" fill="var(--fill-0, #231F20)"/>
<path id="Vector_20" d="M78.8563 85.0497H77.3316V86.7084H78.6142C79.2607 86.7084 79.7243 86.3137 79.7243 85.8288C79.7243 85.2716 79.3019 85.0497 78.8563 85.0497ZM79.0469 90.3892L79.4719 89.8837L78.179 87.9723H77.3316V89.8837L77.7566 90.3892H74.9389L75.3638 89.8837V84.1495L74.9389 83.644H79.1397C81.0584 83.644 81.7436 84.5649 81.7436 85.6869C81.7436 86.6671 81.1177 87.3661 80.2188 87.7298L82.0474 90.3892H79.0469Z" fill="var(--fill-0, #231F20)"/>
<path id="Vector_21" d="M89.2368 90.564C88.2684 90.564 87.0862 90.2209 86.5608 90.0172L86.0251 90.6053V88.1058C87.1583 88.8435 88.4281 89.0989 89.1466 89.0989C89.4299 89.0989 89.9837 89.037 89.9837 88.5623C89.9837 88.0052 89.0848 87.9742 88.1165 87.6415C86.8132 87.1875 85.9865 86.6406 85.9865 85.387C85.9865 84.4662 86.723 83.4551 89.0153 83.4551C89.6901 83.4551 90.6714 83.6975 91.2355 83.9322L91.7712 83.4138V85.6708C90.8414 85.2246 89.6515 84.9202 88.9252 84.9202C88.3791 84.9202 88.0649 85.1033 88.0649 85.3664C88.0649 85.9029 89.2059 86.0861 90.0147 86.3389C91.256 86.7413 92.1137 87.3371 92.1137 88.4102C92.1137 89.6845 91.2252 90.564 89.2368 90.564Z" fill="var(--fill-0, #231F20)"/>
<path id="Vector_22" d="M99.3739 85.54L98.2639 87.9569H100.492L99.3739 85.54ZM100.889 90.3816L101.311 89.8786L100.989 89.1693H97.7797L97.445 89.8786L97.87 90.3816H95.3947L98.3949 84.1445L98.1533 83.6389H100.422L103.73 90.3816H100.889Z" fill="var(--fill-0, #231F20)"/>
<path id="Vector_23" d="M107.111 90.3892L107.536 89.8837V84.1495L107.111 83.644H109.929L109.504 84.1495V88.9834H112.744L113.248 88.5604V90.3892H107.111Z" fill="var(--fill-0, #231F20)"/>
<path id="Vector_24" d="M129.396 90.3892L129.821 89.8837V86.6491L128.033 90.3892H127.093L125.073 86.5871V89.8837L125.498 90.3892H123.166L123.591 89.8837V84.1495L123.166 83.644H125.54L127.729 87.7685L129.728 83.644H132.152L131.729 84.1495V89.8837L132.152 90.3892H129.396Z" fill="var(--fill-0, #231F20)"/>
<path id="Vector_25" d="M143.154 84.1469V87.9386C143.154 89.7985 142.113 90.5181 139.782 90.5181C137.451 90.5181 136.41 89.7985 136.41 87.9386V84.1469L135.985 83.6413H138.821L138.399 84.1469V87.8793C138.399 88.7177 138.955 89.071 139.782 89.071C140.609 89.071 141.166 88.7177 141.166 87.8793V84.1469L140.741 83.6413H143.579L143.154 84.1469Z" fill="var(--fill-0, #231F20)"/>
<path id="Vector_26" d="M150.566 90.564C149.597 90.564 148.416 90.2209 147.89 90.0172L147.354 90.6053V88.1058C148.485 88.8435 149.758 89.0989 150.474 89.0989C150.757 89.0989 151.313 89.037 151.313 88.5623C151.313 88.0052 150.414 87.9742 149.445 87.6415C148.142 87.1875 147.315 86.6406 147.315 85.387C147.315 84.4662 148.052 83.4551 150.345 83.4551C151.019 83.4551 151.998 83.6975 152.565 83.9322L153.1 83.4138V85.6708C152.171 85.2246 150.98 84.9202 150.251 84.9202C149.706 84.9202 149.394 85.1033 149.394 85.3664C149.394 85.9029 150.535 86.0861 151.344 86.3389C152.585 86.7413 153.443 87.3371 153.443 88.4102C153.443 89.6845 152.554 90.564 150.566 90.564Z" fill="var(--fill-0, #231F20)"/>
<path id="Vector_27" d="M157.534 90.3892L157.959 89.8837V84.1495L157.534 83.644H160.392L159.967 84.1495V89.8837L160.392 90.3892H157.534Z" fill="var(--fill-0, #231F20)"/>
<path id="Vector_28" d="M168.125 90.5181C166.075 90.5181 164.228 89.507 164.228 87.01C164.228 85.0367 165.642 83.5123 168.207 83.5123C168.982 83.5123 169.819 83.6929 170.296 83.876L170.763 83.4297V85.6764C170.033 85.2302 169.265 84.9672 168.315 84.9672C166.894 84.9672 166.337 85.9189 166.337 87.01C166.337 88.2327 167.146 89.0633 168.378 89.0633C169.622 89.0633 170.366 88.5758 170.772 88.3256V89.9016C170.286 90.1853 169.127 90.5181 168.125 90.5181Z" fill="var(--fill-0, #231F20)"/>
</g>
</svg>
