<svg preserveAspectRatio="xMidYMid meet" overflow="visible" style="display: block;" viewBox="0 0 182.483 21.0368" fill="none" xmlns="http://www.w3.org/2000/svg">
<path id="Vector" d="M0 20.044L1.09321 18.9438C1.35984 18.6755 1.49316 18.3715 1.49316 18.0316V0.670743H1.75979L14.8253 12.5309V3.81022C14.8253 3.47026 14.692 3.16612 14.4254 2.898L13.3322 1.79789V1.52957H20.2383V1.79789L19.1451 2.898C18.8785 3.16632 18.7451 3.47046 18.7451 3.81022V21.0368H18.4786L5.41288 9.14992V18.0315C5.41288 18.3714 5.54612 18.6755 5.8128 18.9436L6.90596 20.0439V20.3123H0V20.044ZM22.157 20.044L23.2502 18.9438C23.5168 18.6755 23.6502 18.3715 23.6502 18.0316V3.81022C23.6502 3.47026 23.5168 3.16612 23.2502 2.898L22.157 1.79789V1.52957H33.1693C35.0892 1.52957 36.5602 1.96782 37.5822 2.84432C38.6045 3.72072 39.1155 4.88349 39.1155 6.33253C39.1155 8.51489 37.9957 9.88332 35.7558 10.438V10.4916C38.5111 10.9747 39.8888 12.504 39.8888 15.08C39.8888 16.7973 39.2888 18.0986 38.089 18.9841C36.8891 19.8696 35.2136 20.3124 33.0627 20.3124H22.157V20.044ZM32.636 8.96212C34.1471 8.96212 34.9026 8.30016 34.9026 6.97644C34.9026 6.3503 34.7115 5.84949 34.3293 5.47381C33.947 5.09822 33.3827 4.91033 32.636 4.91033H27.9165V8.96212H32.636ZM32.5562 16.8777C34.5649 16.8777 35.5693 16.0817 35.5693 14.4896C35.5693 12.9872 34.5649 12.2357 32.5562 12.2357H27.9166V16.8777H32.5562ZM45.0075 18.0448C43.1588 16.2828 42.2345 13.9261 42.2345 10.9746C42.2345 8.00501 43.1677 5.63485 45.0343 3.8639C46.9009 2.09305 49.265 1.20738 52.1271 1.20738C52.7671 1.20738 53.5492 1.2656 54.4735 1.38194C55.3979 1.49819 55.9756 1.55622 56.2066 1.55622C56.8822 1.55622 57.5044 1.33261 58.0733 0.885475L58.3398 0.992743L56.7401 7.35222L56.4467 7.2717C56.2513 6.59187 55.8112 6.00156 55.127 5.50074C54.4425 4.99993 53.5315 4.74947 52.3939 4.74947C50.7762 4.74947 49.4385 5.31749 48.3809 6.45342C47.3234 7.58935 46.7944 9.1054 46.7944 11.0016C46.7944 12.8441 47.2921 14.3334 48.2875 15.4693C49.283 16.6052 50.5895 17.1732 52.2073 17.1732C54.0916 17.1732 55.5758 16.4309 56.6602 14.946L59.1667 17.8708C57.4246 19.749 55.0516 20.6884 52.0473 20.6884C49.2028 20.6881 46.8563 19.807 45.0075 18.0448ZM64.3917 18.7024C62.934 17.3784 62.2051 15.4555 62.2051 12.9333V3.81022C62.2051 3.47026 62.0718 3.16612 61.8052 2.898L60.7119 1.79789V1.52957H67.9114V1.79789L66.818 2.898C66.5514 3.16632 66.4181 3.47046 66.4181 3.81022V13.0407C66.4181 14.4001 66.747 15.4198 67.4048 16.0995C68.0624 16.7794 69.0046 17.1191 70.2311 17.1191C71.4399 17.1191 72.3687 16.7749 73.0175 16.0861C73.6664 15.3974 73.9908 14.3822 73.9908 13.0407V3.81022C73.9908 3.47026 73.8575 3.16612 73.5909 2.898L72.4975 1.79789V1.52957H79.7503V1.79789L78.657 2.898C78.3904 3.16632 78.2571 3.47046 78.2571 3.81022V12.9333C78.2571 15.4556 77.5238 17.3785 76.0573 18.7024C74.5908 20.0261 72.6487 20.688 70.2311 20.688C67.7958 20.6881 65.8493 20.0261 64.3917 18.7024ZM81.6959 20.044L82.7891 18.9438C83.0557 18.6755 83.1891 18.2641 83.1891 17.7095V10.0354C83.1891 9.4809 83.0557 9.06939 82.7891 8.80107L81.6959 7.70096V7.43265H87.082V9.74023C87.3841 9.00673 87.9398 8.39865 88.7486 7.9157C89.5574 7.43265 90.4332 7.19117 91.3746 7.19117C92.7611 7.19117 93.8367 7.6383 94.6014 8.53276C95.3661 9.42721 95.7484 10.6795 95.7484 12.2894V17.7097C95.7484 18.2641 95.8817 18.6756 96.1481 18.9439L97.2411 20.0441V20.3125H91.7483V13.1749C91.7483 12.4055 91.5706 11.7929 91.2153 11.3368C90.86 10.8806 90.3348 10.6525 89.6419 10.6525C88.8241 10.6525 88.2109 10.9074 87.802 11.4172C87.3931 11.927 87.1887 12.5846 87.1887 13.3895V17.7095C87.1887 18.264 87.3221 18.6755 87.5886 18.9438L88.6819 20.044V20.3124H81.6958L81.6959 20.044ZM98.4403 20.044L99.5332 18.9438C99.8007 18.6755 99.9339 18.2641 99.9339 17.7095V10.0354C99.9339 9.4809 99.8007 9.06939 99.5332 8.80107L98.4403 7.70096V7.43265H103.933V17.7097C103.933 18.2641 104.066 18.6756 104.333 18.9439L105.427 20.0441V20.3125H98.4403V20.044ZM100.24 4.85665C99.7698 4.40952 99.5332 3.85492 99.5332 3.19316C99.5332 2.53129 99.7688 1.9767 100.24 1.52957C100.711 1.08225 101.266 0.858731 101.906 0.858731C102.547 0.858731 103.102 1.08234 103.573 1.52957C104.044 1.9767 104.28 2.53129 104.28 3.19316C104.28 3.85492 104.044 4.40952 103.573 4.85665C103.102 5.30387 102.547 5.52749 101.906 5.52749C101.266 5.52749 100.711 5.30387 100.24 4.85665ZM107.719 10.3037C107.114 9.12308 106.44 8.26444 105.693 7.72771V7.43255H110.599L113.239 13.6578H113.292L115.612 7.43255H120.598V7.72771C119.834 8.26434 119.158 9.12308 118.571 10.3037L113.292 20.9025H113.025L107.719 10.3037ZM122.891 18.9036C121.628 17.7141 120.998 16.1086 120.998 14.0871C120.998 12.0479 121.619 10.3888 122.864 9.10975C124.109 7.83063 125.797 7.19117 127.93 7.19117C129.992 7.19117 131.539 7.79501 132.569 9.00238C133.601 10.2099 134.116 11.8332 134.116 13.8726C134.116 14.2841 134.099 14.6687 134.063 15.0264H125.104C125.193 15.7062 125.522 16.2786 126.091 16.7436C126.659 17.2087 127.414 17.4414 128.357 17.4414C129.548 17.4414 130.464 17.0836 131.104 16.3679L133.317 18.9976C132.108 20.1246 130.339 20.6881 128.01 20.6881C125.859 20.6881 124.153 20.0932 122.891 18.9036ZM125.824 10.921C125.362 11.4039 125.104 11.9943 125.051 12.6918H130.064C130.028 11.9584 129.806 11.3592 129.397 10.8941C128.988 10.429 128.41 10.1965 127.664 10.1965C126.899 10.1963 126.286 10.438 125.824 10.921ZM135.955 20.044L137.048 18.9438C137.316 18.6755 137.448 18.2641 137.448 17.7095V10.0354C137.448 9.4809 137.316 9.06939 137.048 8.80107L135.955 7.70096V7.43265H141.342V10.0354C141.644 9.21238 142.142 8.53276 142.835 7.99612C143.528 7.45949 144.328 7.19117 145.234 7.19117C145.893 7.19117 146.453 7.3164 146.914 7.56685L145.874 11.5919C145.306 11.0909 144.665 10.8404 143.955 10.8404C143.173 10.8404 142.559 11.0998 142.114 11.6185C141.67 12.1375 141.448 12.8708 141.448 13.819V17.7095C141.448 18.264 141.582 18.6755 141.848 18.9438L142.941 20.044V20.3124H135.955V20.044ZM147.341 18.9438L149.207 16.207C150.398 17.1907 151.829 17.6827 153.5 17.6827C154.638 17.6827 155.207 17.3249 155.207 16.6094C155.207 16.2694 155.06 16.0101 154.767 15.8313C154.473 15.6523 154.087 15.5272 153.607 15.4555C153.127 15.384 152.585 15.2944 151.98 15.1872C149.367 14.7401 148.06 13.4788 148.06 11.4038C148.06 9.91905 148.581 8.84578 149.62 8.18382C150.66 7.52186 151.98 7.19107 153.58 7.19107C154.202 7.19107 154.855 7.2492 155.54 7.36535C156.225 7.4817 156.682 7.53982 156.913 7.53982C157.5 7.53982 158.086 7.31621 158.673 6.86907L158.94 6.97644L157.686 11.8868L157.42 11.8062C156.886 10.6615 155.687 10.089 153.82 10.089C152.7 10.089 152.14 10.42 152.14 11.0818C152.14 11.3858 152.278 11.6274 152.554 11.8062C152.829 11.9851 153.198 12.1059 153.66 12.1684C154.123 12.2312 154.647 12.316 155.233 12.4234C156.389 12.6201 157.353 13.0137 158.127 13.6041C158.9 14.1945 159.286 15.0531 159.286 16.1799C159.286 17.611 158.748 18.7201 157.673 19.5073C156.597 20.2944 155.118 20.688 153.233 20.688C150.71 20.6881 148.745 20.1065 147.341 18.9438ZM162.032 19.6549C161.25 18.9661 160.859 18.0585 160.859 16.9314C160.859 15.5183 161.37 14.4629 162.391 13.7653C163.414 13.0675 165.01 12.701 167.178 12.665C167.853 12.6472 168.316 12.5623 168.565 12.4102C168.814 12.2582 168.938 11.9943 168.938 11.6185C168.938 11.243 168.746 10.9298 168.365 10.6795C167.983 10.429 167.4 10.3038 166.618 10.3038C165.427 10.3038 164.343 10.7511 163.366 11.6456L161.285 9.17686C162.601 7.85313 164.512 7.19137 167.018 7.19137C169.045 7.19137 170.534 7.60277 171.485 8.42558C172.436 9.24849 172.911 10.5007 172.911 12.1823V17.7098C172.911 18.2643 173.044 18.6757 173.311 18.944L174.404 20.0443V20.3126H169.018V18.5684C168.698 19.1947 168.182 19.7044 167.472 20.0978C166.76 20.4915 165.934 20.6882 164.991 20.6882C163.801 20.6881 162.814 20.3435 162.032 19.6549ZM168.245 17.1327C168.707 16.6587 168.938 16.0907 168.938 15.4289V14.5432C168.707 14.6326 168.147 14.7042 167.258 14.7579C165.659 14.8472 164.858 15.402 164.858 16.4216C164.858 16.8331 164.991 17.1729 165.259 17.4412C165.525 17.7095 165.925 17.8437 166.458 17.8437C167.187 17.8438 167.783 17.6069 168.245 17.1327ZM175.497 20.044L176.59 18.9438C176.857 18.6755 176.99 18.2641 176.99 17.7095V2.60284C176.99 2.04825 176.857 1.63684 176.59 1.36843L175.497 0.268314V0H180.989V17.7095C180.989 18.264 181.123 18.6755 181.39 18.9438L182.483 20.044V20.3124H175.497V20.044Z" fill="var(--fill-0, #400095)"/>
</svg>
