<svg preserveAspectRatio="xMidYMid meet" overflow="visible" style="display: block;" viewBox="0 0 196 105.313" fill="none" xmlns="http://www.w3.org/2000/svg">
<g id="1715859443-xsolla-c.svg">
<path id="Vector" d="M52.5725 58.3802L47.4105 67.0934H39.2783L48.2555 52.4922L40.2024 39.4621H47.9518L52.5065 47.1323L57.0611 39.4621H64.8897L56.6782 52.4922L65.6158 67.0934H57.7475L52.5725 58.3802Z" fill="var(--fill-0, black)"/>
<path id="Vector_2" d="M64.7991 59.6205H72.0469C72.509 61.5084 73.8951 62.3533 76.1659 62.3533C78.3574 62.3533 79.3211 61.614 79.3211 60.3862C79.3211 58.8416 76.892 58.6568 74.1196 58.3003C70.2646 57.7986 65.7232 56.9538 65.7232 51.6334C65.7232 47.2769 69.1557 44.2273 75.4794 44.2273C82.1859 44.2273 85.1958 47.2373 85.8824 51.6994H78.9779C78.6742 50.1548 77.5124 49.3099 75.4001 49.3099C73.2351 49.3099 72.4694 50.1152 72.4694 51.1977C72.4694 52.584 74.3572 52.8216 77.6709 53.244C81.5258 53.7457 86.1464 54.7095 86.1464 59.911C86.1464 64.3864 82.7535 67.7001 75.8226 67.7001C69.1557 67.7132 65.5252 64.7824 64.7991 59.6205Z" fill="var(--fill-0, black)"/>
<path id="Vector_3" d="M88.1883 56.462V55.7623C88.1883 48.1712 92.8881 44.2767 99.4754 44.2767C106.182 44.2767 110.723 48.2901 110.723 55.7623V56.462C110.723 63.8946 106.249 67.6835 99.4364 67.6835C92.2016 67.6703 88.1883 63.8946 88.1883 56.462ZM103.767 56.3828V55.7623C103.767 52.1054 102.221 50.2175 99.529 50.2175C96.9015 50.2175 95.172 52.0262 95.172 55.7623V56.3828C95.172 59.8153 96.9015 61.6239 99.489 61.6239C102.063 61.6239 103.767 59.8813 103.767 56.3828Z" fill="var(--fill-0, black)"/>
<path id="Vector_4" d="M113.747 67.0942V37.4166H120.837V67.0942H113.747Z" fill="var(--fill-0, black)"/>
<path id="Vector_5" d="M124.735 67.0942V37.4166H131.824V67.0942H124.735Z" fill="var(--fill-0, black)"/>
<path id="Vector_6" d="M149.473 63.3533C148.205 65.8617 145.776 67.6703 141.605 67.6703C136.747 67.6703 134.397 65.36 134.397 61.6635C134.397 58.9704 135.518 57.2277 137.327 56.1188C139.096 54.9966 140.72 54.693 144.337 54.1121C147.73 53.65 149.116 53.2671 149.116 51.8414C149.116 50.574 148.351 49.6762 145.961 49.6762C143.492 49.6762 142.304 50.838 142.225 52.9107H135.096C135.439 47.7092 138.99 44.2767 145.961 44.2767C153.368 44.2767 156.021 47.6696 156.021 52.8315V67.0894H150.238L149.473 63.3533ZM149.169 58.1122V56.7656C148.509 57.2673 147.506 57.5314 146.159 57.8086C144.232 58.1518 143.492 58.3499 142.806 58.8119C142.185 59.274 141.882 59.8153 141.882 60.581C141.882 61.8879 142.766 62.548 144.47 62.548C147.281 62.548 149.169 60.3037 149.169 58.1122Z" fill="var(--fill-0, black)"/>
</g>
</svg>
